<svg xmlns="http://www.w3.org/2000/svg" xmlns:svg="http://www.w3.org/2000/svg" xmlns:xlink="http://www.w3.org/1999/xlink" id="svg2" width="365.339" height="130" x="0" y="0" version="1.1" viewBox="0 0 365.339 130" xml:space="preserve"><metadata id="metadata67"/><defs id="defs65"><linearGradient id="gradient-0-3" gradientTransform="matrix(0,1,-1,0,0,0)" gradientUnits="objectBoundingBox"><stop id="stop80" offset="0" opacity-stop="1" stop-color="#ebf6fa"/><stop id="stop82" offset="1" opacity-stop="1" stop-color="#c4e3f3"/></linearGradient><linearGradient id="linearGradient5097" x1=".5" x2="49.5" y1=".5" y2=".5" gradientTransform="matrix(0,1,-1,0,220.33899,5)" gradientUnits="userSpaceOnUse" xlink:href="#gradient-0-3"/><linearGradient id="linearGradient5101" x1=".5" x2="49.5" y1=".5" y2=".5" gradientTransform="matrix(0,1,-1,0,290.33899,75)" gradientUnits="userSpaceOnUse" xlink:href="#gradient-0-3"/><linearGradient id="linearGradient5109" x1=".5" x2="49.5" y1=".5" y2=".5" gradientTransform="matrix(0,1,-1,0,360.33899,75)" gradientUnits="userSpaceOnUse" xlink:href="#gradient-0-3"/><defs id="defs77"><linearGradient id="linearGradient4903" gradientTransform="matrix(0,1,-1,0,0,0)" gradientUnits="objectBoundingBox"><stop id="stop4905" offset="0" opacity-stop="1" stop-color="#ebf6fa"/><stop id="stop4907" offset="1" opacity-stop="1" stop-color="#c4e3f3"/></linearGradient></defs><linearGradient id="linearGradient4238" x1=".5" x2="49.5" y1=".5" y2=".5" gradientTransform="matrix(0,1,-1,0,55,25)" gradientUnits="userSpaceOnUse" xlink:href="#gradient-0"/><linearGradient id="linearGradient4242" x1=".5" x2="49.5" y1=".5" y2=".5" gradientTransform="matrix(0,1,-1,0,85,55)" gradientUnits="userSpaceOnUse" xlink:href="#gradient-0"/><linearGradient id="linearGradient4250" x1=".5" x2="49.5" y1=".5" y2=".5" gradientTransform="matrix(0,1,-1,0,115,55)" gradientUnits="userSpaceOnUse" xlink:href="#gradient-0"/><defs id="defs10"><linearGradient id="gradient-0" gradientTransform="matrix(0,1,-1,0,0,0)" gradientUnits="objectBoundingBox"><stop id="stop13" offset="0" opacity-stop="1" stop-color="#ebf6fa"/><stop id="stop15" offset="1" opacity-stop="1" stop-color="#c4e3f3"/></linearGradient></defs></defs><desc id="desc6">Creator: FreeHEP Graphics2D Driver Producer: de.cau.cs.kieler.klighd.piccolo.freehep.SemanticSVGGraphics2D Revision Source: Date: Wednesday, December 13, 2017 12:59:42 PM CET</desc><path style="fill:url(#linearGradient4238);fill-opacity:1;fill-rule:nonzero;stroke:none;stroke-width:1;stroke-linecap:square;stroke-linejoin:miter;stroke-miterlimit:10;stroke-dasharray:none;stroke-dashoffset:0" id="path21" d="m 49.5,25.5 -39,0 c -2.761424,0 -5,2.238576 -5,5 l 0,39 c 0,2.761424 2.238576,5 5,5 l 39,0 c 2.761424,0 5,-2.238576 5,-5 l 0,-39 c 0,-2.761424 -2.238576,-5 -5,-5 z"/><path style="fill:none;stroke:#000;stroke-width:1;stroke-linecap:butt;stroke-linejoin:miter;stroke-miterlimit:10;stroke-dasharray:none;stroke-dashoffset:0;stroke-opacity:1" id="path25" d="m 5.5,30.5 0,39 c 0,2.761424 2.2385763,5 5,5 l 39,0 c 2.761424,0 5,-2.238576 5,-5 l 0,-39 c 0,-2.761424 -2.238576,-5 -5,-5 l -39,0 c -2.7614237,0 -5,2.238576 -5,5 z"/><path style="fill:url(#linearGradient4242);fill-opacity:1;fill-rule:nonzero;stroke:none;stroke-width:1;stroke-linecap:square;stroke-linejoin:miter;stroke-miterlimit:10;stroke-dasharray:none;stroke-dashoffset:0" id="path33" d="m 79.5,55.5 -39,0 c -2.761424,0 -5,2.238576 -5,5 l 0,39 c 0,2.76142 2.238576,5 5,5 l 39,0 c 2.761424,0 5,-2.23858 5,-5 l 0,-39 c 0,-2.761424 -2.238576,-5 -5,-5 z"/><path style="fill:none;stroke:#000;stroke-width:1;stroke-linecap:butt;stroke-linejoin:miter;stroke-miterlimit:10;stroke-dasharray:none;stroke-dashoffset:0;stroke-opacity:1" id="path39" d="m 35.5,60.5 0,39 c 0,2.76142 2.238576,5 5,5 l 39,0 c 2.761424,0 5,-2.23858 5,-5 l 0,-39 c 0,-2.761424 -2.238576,-5 -5,-5 l -39,0 c -2.761424,0 -5,2.238576 -5,5 z"/><path id="path47" d="m 109.5,55.5 -39,0 c -2.761424,0 -5,2.238576 -5,5 l 0,39 c 0,2.76142 2.238576,5 5,5 l 39,0 c 2.76142,0 5,-2.23858 5,-5 l 0,-39 c 0,-2.761424 -2.23858,-5 -5,-5 z" style="fill:url(#linearGradient4250);fill-opacity:1;fill-rule:nonzero;stroke:none;stroke-width:1;stroke-linecap:square;stroke-linejoin:miter;stroke-miterlimit:10;stroke-dasharray:none;stroke-dashoffset:0"/><path style="fill:none;stroke:#000;stroke-width:1;stroke-linecap:butt;stroke-linejoin:miter;stroke-miterlimit:10;stroke-dasharray:none;stroke-dashoffset:0;stroke-opacity:1" id="path53" d="m 65.5,60.5 0,39 c 0,2.76142 2.238576,5 5,5 l 39,0 c 2.76142,0 5,-2.23858 5,-5 l 0,-39 c 0,-2.761424 -2.23858,-5 -5,-5 l -39,0 c -2.761424,0 -5,2.238576 -5,5 z"/><path style="fill:none;stroke:#000;stroke-width:1;stroke-linecap:butt;stroke-linejoin:miter;stroke-miterlimit:10;stroke-dasharray:none;stroke-dashoffset:0;stroke-opacity:1" id="path57" d="m 6.4644661,26.464466 29.9999999,30"/><path style="fill:none;stroke:#000;stroke-width:1;stroke-linecap:butt;stroke-linejoin:miter;stroke-miterlimit:10;stroke-dasharray:none;stroke-dashoffset:0;stroke-opacity:1" id="path61" d="m 36.464466,56.464466 29.133179,1.165035"/><path id="path88" d="m 214.83899,5.5 -39,0 c -2.76142,0 -5,2.23858 -5,5 l 0,39 c 0,2.76142 2.23858,5 5,5 l 39,0 c 2.76142,0 5,-2.23858 5,-5 l 0,-39 c 0,-2.76142 -2.23858,-5 -5,-5 z" style="fill:url(#linearGradient5097);fill-opacity:1;fill-rule:nonzero;stroke:none;stroke-width:1;stroke-linecap:square;stroke-linejoin:miter;stroke-miterlimit:10;stroke-dasharray:none;stroke-dashoffset:0"/><path style="fill:none;stroke:#000;stroke-width:1;stroke-linecap:butt;stroke-linejoin:miter;stroke-miterlimit:10;stroke-dasharray:none;stroke-dashoffset:0;stroke-opacity:1" id="path92" d="m 170.83899,10.5 0,39 c 0,2.761424 2.23858,5 5,5 l 39,0 c 2.76142,0 5,-2.238576 5,-5 l 0,-39 c 0,-2.761424 -2.23858,-5 -5,-5 l -39,0 c -2.76142,0 -5,2.238576 -5,5 z"/><path id="path100" d="m 284.83899,75.5 -39,0 c -2.76142,0 -5,2.23858 -5,5 l 0,39 c 0,2.76142 2.23858,5 5,5 l 39,0 c 2.76142,0 5,-2.23858 5,-5 l 0,-39 c 0,-2.76142 -2.23858,-5 -5,-5 z" style="fill:url(#linearGradient5101);fill-opacity:1;fill-rule:nonzero;stroke:none;stroke-width:1;stroke-linecap:square;stroke-linejoin:miter;stroke-miterlimit:10;stroke-dasharray:none;stroke-dashoffset:0"/><path style="fill:none;stroke:#000;stroke-width:1;stroke-linecap:butt;stroke-linejoin:miter;stroke-miterlimit:10;stroke-dasharray:none;stroke-dashoffset:0;stroke-opacity:1" id="path106" d="m 240.83899,80.5 0,39 c 0,2.76142 2.23858,5 5,5 l 39,0 c 2.76142,0 5,-2.23858 5,-5 l 0,-39 c 0,-2.761424 -2.23858,-5 -5,-5 l -39,0 c -2.76142,0 -5,2.238576 -5,5 z"/><path style="fill:url(#linearGradient5109);fill-opacity:1;fill-rule:nonzero;stroke:none;stroke-width:1;stroke-linecap:square;stroke-linejoin:miter;stroke-miterlimit:10;stroke-dasharray:none;stroke-dashoffset:0" id="path114" d="m 354.83899,75.5 -39,0 c -2.76142,0 -5,2.23858 -5,5 l 0,39 c 0,2.76142 2.23858,5 5,5 l 39,0 c 2.76142,0 5,-2.23858 5,-5 l 0,-39 c 0,-2.76142 -2.23858,-5 -5,-5 z"/><path style="fill:none;stroke:#000;stroke-width:1;stroke-linecap:butt;stroke-linejoin:miter;stroke-miterlimit:10;stroke-dasharray:none;stroke-dashoffset:0;stroke-opacity:1" id="path120" d="m 310.83899,80.5 0,39 c 0,2.76142 2.23858,5 5,5 l 39,0 c 2.76142,0 5,-2.23858 5,-5 l 0,-39 c 0,-2.761424 -2.23858,-5 -5,-5 l -39,0 c -2.76142,0 -5,2.238576 -5,5 z"/><path style="fill:none;stroke:#000;stroke-width:1;stroke-linecap:butt;stroke-linejoin:miter;stroke-miterlimit:10;stroke-dasharray:none;stroke-dashoffset:0;stroke-opacity:1" id="path126" d="m 218.87452,53.535534 22.92893,22.928928"/><path style="fill:none;stroke:#000;stroke-width:1;stroke-linecap:butt;stroke-linejoin:miter;stroke-miterlimit:10;stroke-dasharray:none;stroke-dashoffset:0;stroke-opacity:1" id="path132" d="m 290.33899,100 20,0"/></svg>