<svg xmlns="http://www.w3.org/2000/svg" xmlns:svg="http://www.w3.org/2000/svg" xmlns:xlink="http://www.w3.org/1999/xlink" id="svg2" width="209.729" height="156.947" x="0" y="0" version="1.1" viewBox="0 0 209.729 156.947" xml:space="preserve"><metadata id="metadata285"/><defs id="defs283"><linearGradient id="linearGradient3264" x1=".5" x2="9.5" y1=".5" y2=".5" gradientUnits="userSpaceOnUse" xlink:href="#gradient-0"/><linearGradient id="linearGradient3266" x1=".5" x2="9.5" y1=".5" y2=".5" gradientUnits="userSpaceOnUse" xlink:href="#gradient-0"/><linearGradient id="linearGradient3268" x1="0" x2="10" y1="0" y2="0" gradientUnits="userSpaceOnUse" xlink:href="#gradient-0"/><linearGradient id="linearGradient3272" x1=".5" x2="9.5" y1=".5" y2=".5" gradientUnits="userSpaceOnUse" xlink:href="#gradient-0"/><linearGradient id="linearGradient3274" x1=".5" x2="9.5" y1=".5" y2=".5" gradientUnits="userSpaceOnUse" xlink:href="#gradient-0"/><linearGradient id="linearGradient3276" x1="0" x2="10" y1="0" y2="0" gradientUnits="userSpaceOnUse" xlink:href="#gradient-0"/><linearGradient id="linearGradient3280" x1=".5" x2="9.5" y1=".5" y2=".5" gradientUnits="userSpaceOnUse" xlink:href="#gradient-0"/><linearGradient id="linearGradient3282" x1=".5" x2="9.5" y1=".5" y2=".5" gradientUnits="userSpaceOnUse" xlink:href="#gradient-0"/><linearGradient id="linearGradient3284" x1="0" x2="10" y1="0" y2="0" gradientUnits="userSpaceOnUse" xlink:href="#gradient-0"/><linearGradient id="linearGradient3288" x1=".5" x2="9.5" y1=".5" y2=".5" gradientUnits="userSpaceOnUse" xlink:href="#gradient-0"/><linearGradient id="linearGradient3290" x1=".5" x2="9.5" y1=".5" y2=".5" gradientUnits="userSpaceOnUse" xlink:href="#gradient-0"/><linearGradient id="linearGradient3292" x1="0" x2="10" y1="0" y2="0" gradientUnits="userSpaceOnUse" xlink:href="#gradient-0"/><linearGradient id="linearGradient3296" x1=".5" x2="9.5" y1=".5" y2=".5" gradientUnits="userSpaceOnUse" xlink:href="#gradient-0"/><linearGradient id="linearGradient3298" x1=".5" x2="9.5" y1=".5" y2=".5" gradientUnits="userSpaceOnUse" xlink:href="#gradient-0"/><linearGradient id="linearGradient3300" x1="0" x2="10" y1="0" y2="0" gradientUnits="userSpaceOnUse" xlink:href="#gradient-0"/><linearGradient id="linearGradient3304" x1=".5" x2="9.5" y1=".5" y2=".5" gradientUnits="userSpaceOnUse" xlink:href="#gradient-0"/><linearGradient id="linearGradient3306" x1=".5" x2="9.5" y1=".5" y2=".5" gradientUnits="userSpaceOnUse" xlink:href="#gradient-0"/><linearGradient id="linearGradient3308" x1="0" x2="10" y1="0" y2="0" gradientUnits="userSpaceOnUse" xlink:href="#gradient-0"/><linearGradient id="linearGradient3312" x1=".5" x2="9.5" y1=".5" y2=".5" gradientUnits="userSpaceOnUse" xlink:href="#gradient-0"/><linearGradient id="linearGradient3314" x1=".5" x2="9.5" y1=".5" y2=".5" gradientUnits="userSpaceOnUse" xlink:href="#gradient-0"/><linearGradient id="linearGradient3316" x1="0" x2="10" y1="0" y2="0" gradientUnits="userSpaceOnUse" xlink:href="#gradient-0"/><linearGradient id="linearGradient3320" x1=".5" x2="9.5" y1=".5" y2=".5" gradientUnits="userSpaceOnUse" xlink:href="#gradient-0"/><linearGradient id="linearGradient3322" x1=".5" x2="9.5" y1=".5" y2=".5" gradientUnits="userSpaceOnUse" xlink:href="#gradient-0"/><linearGradient id="linearGradient3324" x1="0" x2="10" y1="0" y2="0" gradientUnits="userSpaceOnUse" xlink:href="#gradient-0"/><linearGradient id="linearGradient3328" x1=".5" x2="9.5" y1=".5" y2=".5" gradientUnits="userSpaceOnUse" xlink:href="#gradient-0"/><linearGradient id="linearGradient3330" x1=".5" x2="9.5" y1=".5" y2=".5" gradientUnits="userSpaceOnUse" xlink:href="#gradient-0"/><linearGradient id="linearGradient3332" x1="0" x2="10" y1="0" y2="0" gradientUnits="userSpaceOnUse" xlink:href="#gradient-0"/><linearGradient id="linearGradient3336" x1=".5" x2="9.5" y1=".5" y2=".5" gradientUnits="userSpaceOnUse" xlink:href="#gradient-0"/><linearGradient id="linearGradient3338" x1=".5" x2="9.5" y1=".5" y2=".5" gradientUnits="userSpaceOnUse" xlink:href="#gradient-0"/><linearGradient id="linearGradient3340" x1="0" x2="10" y1="0" y2="0" gradientUnits="userSpaceOnUse" xlink:href="#gradient-0"/><linearGradient id="linearGradient3344" x1=".5" x2="9.5" y1=".5" y2=".5" gradientUnits="userSpaceOnUse" xlink:href="#gradient-0"/><linearGradient id="linearGradient3346" x1=".5" x2="9.5" y1=".5" y2=".5" gradientUnits="userSpaceOnUse" xlink:href="#gradient-0"/><linearGradient id="linearGradient3348" x1="0" x2="10" y1="0" y2="0" gradientUnits="userSpaceOnUse" xlink:href="#gradient-0"/><linearGradient id="linearGradient3352" x1=".5" x2="9.5" y1=".5" y2=".5" gradientUnits="userSpaceOnUse" xlink:href="#gradient-0"/><linearGradient id="linearGradient3354" x1=".5" x2="9.5" y1=".5" y2=".5" gradientUnits="userSpaceOnUse" xlink:href="#gradient-0"/><linearGradient id="linearGradient3356" x1="0" x2="10" y1="0" y2="0" gradientUnits="userSpaceOnUse" xlink:href="#gradient-0"/><linearGradient id="linearGradient3360" x1=".5" x2="9.5" y1=".5" y2=".5" gradientUnits="userSpaceOnUse" xlink:href="#gradient-0"/><linearGradient id="linearGradient3362" x1=".5" x2="9.5" y1=".5" y2=".5" gradientUnits="userSpaceOnUse" xlink:href="#gradient-0"/><linearGradient id="linearGradient3364" x1="0" x2="10" y1="0" y2="0" gradientUnits="userSpaceOnUse" xlink:href="#gradient-0"/><linearGradient id="linearGradient3366" x1="141.394" x2="162.78" y1="40.591" y2="40.591" gradientTransform="scale(1.2153752,0.8227912)" gradientUnits="userSpaceOnUse" xlink:href="#gradient-0"/><linearGradient id="linearGradient3368" x1="660.242" x2="669.677" y1="5.436" y2="5.436" gradientTransform="scale(0.30491352,3.2796184)" gradientUnits="userSpaceOnUse" xlink:href="#gradient-0"/><linearGradient id="linearGradient3370" x1="123.519" x2="143.513" y1="20.994" y2="20.994" gradientTransform="scale(1.3937944,0.71746594)" gradientUnits="userSpaceOnUse" xlink:href="#gradient-0"/><linearGradient id="linearGradient3372" x1="281.128" x2="298.682" y1="59.337" y2="59.337" gradientTransform="scale(0.52686685,1.8980128)" gradientUnits="userSpaceOnUse" xlink:href="#gradient-0"/><linearGradient id="linearGradient3374" x1="64.962" x2="82.809" y1="181.745" y2="181.745" gradientTransform="scale(1.8569581,0.53851512)" gradientUnits="userSpaceOnUse" xlink:href="#gradient-0"/><linearGradient id="linearGradient3376" x1="201.248" x2="218.834" y1="53.558" y2="53.558" gradientTransform="scale(0.52807172,1.8936822)" gradientUnits="userSpaceOnUse" xlink:href="#gradient-0"/><linearGradient id="linearGradient3378" x1="59.175" x2="77.053" y1="259.657" y2="259.657" gradientTransform="scale(1.8565311,0.53863898)" gradientUnits="userSpaceOnUse" xlink:href="#gradient-0"/><linearGradient id="linearGradient3380" x1="44.765" x2="62.329" y1="125.535" y2="125.535" gradientTransform="scale(1.7989389,0.55588326)" gradientUnits="userSpaceOnUse" xlink:href="#gradient-0"/><linearGradient id="linearGradient3382" x1="26.554" x2="47.911" y1="97.521" y2="97.521" gradientTransform="scale(1.5052622,0.66433608)" gradientUnits="userSpaceOnUse" xlink:href="#gradient-0"/><linearGradient id="linearGradient3384" x1="21.354" x2="44.614" y1="51.075" y2="51.075" gradientTransform="scale(0.7601291,1.315566)" gradientUnits="userSpaceOnUse" xlink:href="#gradient-0"/><linearGradient id="linearGradient3386" x1="12.311" x2="33.782" y1="153.877" y2="153.877" gradientTransform="scale(1.4920809,0.67020493)" gradientUnits="userSpaceOnUse" xlink:href="#gradient-0"/><linearGradient id="linearGradient3388" x1="74.293" x2="97.744" y1="64.038" y2="64.038" gradientTransform="scale(0.75982861,1.3160863)" gradientUnits="userSpaceOnUse" xlink:href="#gradient-0"/><linearGradient id="linearGradient3390" x1="54.788" x2="68.856" y1="137.09" y2="137.09" gradientTransform="scale(2.2058774,0.45333435)" gradientUnits="userSpaceOnUse" xlink:href="#gradient-0"/><linearGradient id="linearGradient3392" x1="5.882" x2="164.839" y1="7.951" y2="7.951" gradientTransform="scale(1.1824663,0.84569009)" gradientUnits="userSpaceOnUse" xlink:href="#gradient-0"/><linearGradient id="linearGradient3394" x1="5.882" x2="164.839" y1="7.951" y2="7.951" gradientTransform="scale(1.1824663,0.84569009)" gradientUnits="userSpaceOnUse" xlink:href="#gradient-0"/><linearGradient id="linearGradient3396" x1="5.882" x2="164.839" y1="7.951" y2="7.951" gradientTransform="scale(1.1824663,0.84569009)" gradientUnits="userSpaceOnUse" xlink:href="#gradient-0"/><linearGradient id="linearGradient3398" x1="0" x2="161.871" y1="8.097" y2="8.097" gradientTransform="scale(1.2041436,0.83046571)" gradientUnits="userSpaceOnUse" xlink:href="#gradient-0"/><linearGradient id="linearGradient3400" x1="0" x2="161.871" y1="8.097" y2="8.097" gradientTransform="scale(1.2041436,0.83046571)" gradientUnits="userSpaceOnUse" xlink:href="#gradient-0"/><linearGradient id="linearGradient3402" x1="0" x2="161.871" y1="8.097" y2="8.097" gradientTransform="scale(1.2041436,0.83046571)" gradientUnits="userSpaceOnUse" xlink:href="#gradient-0"/><linearGradient id="linearGradient3404" x1="0" x2="161.871" y1="8.097" y2="8.097" gradientTransform="scale(1.2041436,0.83046571)" gradientUnits="userSpaceOnUse" xlink:href="#gradient-0"/><linearGradient id="linearGradient3406" x1="0" x2="161.871" y1="8.097" y2="8.097" gradientTransform="scale(1.2041436,0.83046571)" gradientUnits="userSpaceOnUse" xlink:href="#gradient-0"/><linearGradient id="linearGradient3408" x1="0" x2="161.871" y1="8.097" y2="8.097" gradientTransform="scale(1.2041436,0.83046571)" gradientUnits="userSpaceOnUse" xlink:href="#gradient-0"/><linearGradient id="linearGradient3410" x1="0" x2="165.323" y1="7.928" y2="7.928" gradientTransform="scale(1.1790007,0.8481759)" gradientUnits="userSpaceOnUse" xlink:href="#gradient-0"/><linearGradient id="linearGradient3412" x1="0" x2="171.317" y1="0" y2="0" gradientTransform="scale(1.1658417,0.85774939)" gradientUnits="userSpaceOnUse" xlink:href="#gradient-0"/><linearGradient id="linearGradient3414" x1="0" x2="171.317" y1="0" y2="0" gradientTransform="scale(1.1658417,0.85774939)" gradientUnits="userSpaceOnUse" xlink:href="#gradient-0"/><linearGradient id="linearGradient3416" x1="0" x2="171.317" y1="0" y2="0" gradientTransform="scale(1.1658417,0.85774939)" gradientUnits="userSpaceOnUse" xlink:href="#gradient-0"/><defs id="defs14"><linearGradient id="gradient-0" gradientTransform="matrix(0,1,-1,0,0,0)" gradientUnits="objectBoundingBox"><stop id="stop17" offset="0" opacity-stop="1" stop-color="#ebf6fa"/><stop id="stop19" offset="1" opacity-stop="1" stop-color="#c4e3f3"/></linearGradient></defs><linearGradient id="linearGradient3554" x1=".5" x2="9.5" y1=".5" y2=".5" gradientUnits="userSpaceOnUse" xlink:href="#gradient-0"/><linearGradient id="linearGradient3556" x1=".5" x2="9.5" y1=".5" y2=".5" gradientUnits="userSpaceOnUse" xlink:href="#gradient-0"/><linearGradient id="linearGradient3558" x1=".5" x2="9.5" y1=".5" y2=".5" gradientUnits="userSpaceOnUse" xlink:href="#gradient-0"/><linearGradient id="linearGradient3560" x1="0" x2="10" y1="0" y2="0" gradientUnits="userSpaceOnUse" xlink:href="#gradient-0"/><linearGradient id="linearGradient3562" x1=".5" x2="9.5" y1=".5" y2=".5" gradientUnits="userSpaceOnUse" xlink:href="#gradient-0"/><linearGradient id="linearGradient3564" x1=".5" x2="9.5" y1=".5" y2=".5" gradientUnits="userSpaceOnUse" xlink:href="#gradient-0"/><linearGradient id="linearGradient3566" x1=".5" x2="9.5" y1=".5" y2=".5" gradientUnits="userSpaceOnUse" xlink:href="#gradient-0"/><linearGradient id="linearGradient3568" x1="0" x2="10" y1="0" y2="0" gradientUnits="userSpaceOnUse" xlink:href="#gradient-0"/><linearGradient id="linearGradient3570" x1=".5" x2="9.5" y1=".5" y2=".5" gradientUnits="userSpaceOnUse" xlink:href="#gradient-0"/><linearGradient id="linearGradient3572" x1=".5" x2="9.5" y1=".5" y2=".5" gradientUnits="userSpaceOnUse" xlink:href="#gradient-0"/><linearGradient id="linearGradient3574" x1=".5" x2="9.5" y1=".5" y2=".5" gradientUnits="userSpaceOnUse" xlink:href="#gradient-0"/><linearGradient id="linearGradient3576" x1="0" x2="10" y1="0" y2="0" gradientUnits="userSpaceOnUse" xlink:href="#gradient-0"/><linearGradient id="linearGradient3578" x1=".5" x2="9.5" y1=".5" y2=".5" gradientUnits="userSpaceOnUse" xlink:href="#gradient-0"/><linearGradient id="linearGradient3580" x1=".5" x2="9.5" y1=".5" y2=".5" gradientUnits="userSpaceOnUse" xlink:href="#gradient-0"/><linearGradient id="linearGradient3582" x1=".5" x2="9.5" y1=".5" y2=".5" gradientUnits="userSpaceOnUse" xlink:href="#gradient-0"/><linearGradient id="linearGradient3584" x1="0" x2="10" y1="0" y2="0" gradientUnits="userSpaceOnUse" xlink:href="#gradient-0"/><linearGradient id="linearGradient3586" x1=".5" x2="9.5" y1=".5" y2=".5" gradientUnits="userSpaceOnUse" xlink:href="#gradient-0"/><linearGradient id="linearGradient3588" x1=".5" x2="9.5" y1=".5" y2=".5" gradientUnits="userSpaceOnUse" xlink:href="#gradient-0"/><linearGradient id="linearGradient3590" x1=".5" x2="9.5" y1=".5" y2=".5" gradientUnits="userSpaceOnUse" xlink:href="#gradient-0"/><linearGradient id="linearGradient3592" x1="0" x2="10" y1="0" y2="0" gradientUnits="userSpaceOnUse" xlink:href="#gradient-0"/><linearGradient id="linearGradient3594" x1=".5" x2="9.5" y1=".5" y2=".5" gradientUnits="userSpaceOnUse" xlink:href="#gradient-0"/><linearGradient id="linearGradient3596" x1=".5" x2="9.5" y1=".5" y2=".5" gradientUnits="userSpaceOnUse" xlink:href="#gradient-0"/><linearGradient id="linearGradient3598" x1=".5" x2="9.5" y1=".5" y2=".5" gradientUnits="userSpaceOnUse" xlink:href="#gradient-0"/><linearGradient id="linearGradient3600" x1="0" x2="10" y1="0" y2="0" gradientUnits="userSpaceOnUse" xlink:href="#gradient-0"/><linearGradient id="linearGradient3602" x1=".5" x2="9.5" y1=".5" y2=".5" gradientUnits="userSpaceOnUse" xlink:href="#gradient-0"/><linearGradient id="linearGradient3604" x1=".5" x2="9.5" y1=".5" y2=".5" gradientUnits="userSpaceOnUse" xlink:href="#gradient-0"/><linearGradient id="linearGradient3606" x1=".5" x2="9.5" y1=".5" y2=".5" gradientUnits="userSpaceOnUse" xlink:href="#gradient-0"/><linearGradient id="linearGradient3608" x1="0" x2="10" y1="0" y2="0" gradientUnits="userSpaceOnUse" xlink:href="#gradient-0"/><linearGradient id="linearGradient3610" x1=".5" x2="9.5" y1=".5" y2=".5" gradientUnits="userSpaceOnUse" xlink:href="#gradient-0"/><linearGradient id="linearGradient3612" x1=".5" x2="9.5" y1=".5" y2=".5" gradientUnits="userSpaceOnUse" xlink:href="#gradient-0"/><linearGradient id="linearGradient3614" x1=".5" x2="9.5" y1=".5" y2=".5" gradientUnits="userSpaceOnUse" xlink:href="#gradient-0"/><linearGradient id="linearGradient3616" x1="0" x2="10" y1="0" y2="0" gradientUnits="userSpaceOnUse" xlink:href="#gradient-0"/><linearGradient id="linearGradient3618" x1=".5" x2="9.5" y1=".5" y2=".5" gradientUnits="userSpaceOnUse" xlink:href="#gradient-0"/><linearGradient id="linearGradient3620" x1=".5" x2="9.5" y1=".5" y2=".5" gradientUnits="userSpaceOnUse" xlink:href="#gradient-0"/><linearGradient id="linearGradient3622" x1=".5" x2="9.5" y1=".5" y2=".5" gradientUnits="userSpaceOnUse" xlink:href="#gradient-0"/><linearGradient id="linearGradient3624" x1="0" x2="10" y1="0" y2="0" gradientUnits="userSpaceOnUse" xlink:href="#gradient-0"/><linearGradient id="linearGradient3626" x1=".5" x2="9.5" y1=".5" y2=".5" gradientUnits="userSpaceOnUse" xlink:href="#gradient-0"/><linearGradient id="linearGradient3628" x1=".5" x2="9.5" y1=".5" y2=".5" gradientUnits="userSpaceOnUse" xlink:href="#gradient-0"/><linearGradient id="linearGradient3630" x1=".5" x2="9.5" y1=".5" y2=".5" gradientUnits="userSpaceOnUse" xlink:href="#gradient-0"/><linearGradient id="linearGradient3632" x1="0" x2="10" y1="0" y2="0" gradientUnits="userSpaceOnUse" xlink:href="#gradient-0"/><linearGradient id="linearGradient3634" x1=".5" x2="9.5" y1=".5" y2=".5" gradientUnits="userSpaceOnUse" xlink:href="#gradient-0"/><linearGradient id="linearGradient3636" x1=".5" x2="9.5" y1=".5" y2=".5" gradientUnits="userSpaceOnUse" xlink:href="#gradient-0"/><linearGradient id="linearGradient3638" x1=".5" x2="9.5" y1=".5" y2=".5" gradientUnits="userSpaceOnUse" xlink:href="#gradient-0"/><linearGradient id="linearGradient3640" x1="0" x2="10" y1="0" y2="0" gradientUnits="userSpaceOnUse" xlink:href="#gradient-0"/><linearGradient id="linearGradient3642" x1=".5" x2="9.5" y1=".5" y2=".5" gradientUnits="userSpaceOnUse" xlink:href="#gradient-0"/><linearGradient id="linearGradient3644" x1=".5" x2="9.5" y1=".5" y2=".5" gradientUnits="userSpaceOnUse" xlink:href="#gradient-0"/><linearGradient id="linearGradient3646" x1=".5" x2="9.5" y1=".5" y2=".5" gradientUnits="userSpaceOnUse" xlink:href="#gradient-0"/><linearGradient id="linearGradient3648" x1="0" x2="10" y1="0" y2="0" gradientUnits="userSpaceOnUse" xlink:href="#gradient-0"/><linearGradient id="linearGradient3650" x1=".5" x2="9.5" y1=".5" y2=".5" gradientUnits="userSpaceOnUse" xlink:href="#gradient-0"/><linearGradient id="linearGradient3652" x1=".5" x2="9.5" y1=".5" y2=".5" gradientUnits="userSpaceOnUse" xlink:href="#gradient-0"/><linearGradient id="linearGradient3654" x1=".5" x2="9.5" y1=".5" y2=".5" gradientUnits="userSpaceOnUse" xlink:href="#gradient-0"/><linearGradient id="linearGradient3656" x1="0" x2="10" y1="0" y2="0" gradientUnits="userSpaceOnUse" xlink:href="#gradient-0"/><linearGradient id="linearGradient3658" x1="141.394" x2="162.78" y1="40.591" y2="40.591" gradientTransform="scale(1.2153752,0.8227912)" gradientUnits="userSpaceOnUse" xlink:href="#gradient-0"/><linearGradient id="linearGradient3660" x1="660.242" x2="669.677" y1="5.436" y2="5.436" gradientTransform="scale(0.30491352,3.2796184)" gradientUnits="userSpaceOnUse" xlink:href="#gradient-0"/><linearGradient id="linearGradient3662" x1="123.519" x2="143.513" y1="20.994" y2="20.994" gradientTransform="scale(1.3937944,0.71746594)" gradientUnits="userSpaceOnUse" xlink:href="#gradient-0"/><linearGradient id="linearGradient3664" x1="281.128" x2="298.682" y1="59.337" y2="59.337" gradientTransform="scale(0.52686685,1.8980128)" gradientUnits="userSpaceOnUse" xlink:href="#gradient-0"/><linearGradient id="linearGradient3666" x1="64.962" x2="82.809" y1="181.745" y2="181.745" gradientTransform="scale(1.8569581,0.53851512)" gradientUnits="userSpaceOnUse" xlink:href="#gradient-0"/><linearGradient id="linearGradient3668" x1="201.248" x2="218.834" y1="53.558" y2="53.558" gradientTransform="scale(0.52807172,1.8936822)" gradientUnits="userSpaceOnUse" xlink:href="#gradient-0"/><linearGradient id="linearGradient3670" x1="59.175" x2="77.053" y1="259.657" y2="259.657" gradientTransform="scale(1.8565311,0.53863898)" gradientUnits="userSpaceOnUse" xlink:href="#gradient-0"/><linearGradient id="linearGradient3672" x1="44.765" x2="62.329" y1="125.535" y2="125.535" gradientTransform="scale(1.7989389,0.55588326)" gradientUnits="userSpaceOnUse" xlink:href="#gradient-0"/><linearGradient id="linearGradient3674" x1="26.554" x2="47.911" y1="97.521" y2="97.521" gradientTransform="scale(1.5052622,0.66433608)" gradientUnits="userSpaceOnUse" xlink:href="#gradient-0"/><linearGradient id="linearGradient3676" x1="21.354" x2="44.614" y1="51.075" y2="51.075" gradientTransform="scale(0.7601291,1.315566)" gradientUnits="userSpaceOnUse" xlink:href="#gradient-0"/><linearGradient id="linearGradient3678" x1="12.311" x2="33.782" y1="153.877" y2="153.877" gradientTransform="scale(1.4920809,0.67020493)" gradientUnits="userSpaceOnUse" xlink:href="#gradient-0"/><linearGradient id="linearGradient3680" x1="74.293" x2="97.744" y1="64.038" y2="64.038" gradientTransform="scale(0.75982861,1.3160863)" gradientUnits="userSpaceOnUse" xlink:href="#gradient-0"/><linearGradient id="linearGradient3682" x1="54.788" x2="68.856" y1="137.09" y2="137.09" gradientTransform="scale(2.2058774,0.45333435)" gradientUnits="userSpaceOnUse" xlink:href="#gradient-0"/><linearGradient id="linearGradient3684" x1="5.882" x2="164.839" y1="7.951" y2="7.951" gradientTransform="scale(1.1824663,0.84569009)" gradientUnits="userSpaceOnUse" xlink:href="#gradient-0"/><linearGradient id="linearGradient3686" x1="5.882" x2="164.839" y1="7.951" y2="7.951" gradientTransform="scale(1.1824663,0.84569009)" gradientUnits="userSpaceOnUse" xlink:href="#gradient-0"/><linearGradient id="linearGradient3688" x1="5.882" x2="164.839" y1="7.951" y2="7.951" gradientTransform="scale(1.1824663,0.84569009)" gradientUnits="userSpaceOnUse" xlink:href="#gradient-0"/><linearGradient id="linearGradient3690" x1="0" x2="161.871" y1="8.097" y2="8.097" gradientTransform="scale(1.2041436,0.83046571)" gradientUnits="userSpaceOnUse" xlink:href="#gradient-0"/><linearGradient id="linearGradient3692" x1="0" x2="161.871" y1="8.097" y2="8.097" gradientTransform="scale(1.2041436,0.83046571)" gradientUnits="userSpaceOnUse" xlink:href="#gradient-0"/><linearGradient id="linearGradient3694" x1="0" x2="161.871" y1="8.097" y2="8.097" gradientTransform="scale(1.2041436,0.83046571)" gradientUnits="userSpaceOnUse" xlink:href="#gradient-0"/><linearGradient id="linearGradient3696" x1="0" x2="161.871" y1="8.097" y2="8.097" gradientTransform="scale(1.2041436,0.83046571)" gradientUnits="userSpaceOnUse" xlink:href="#gradient-0"/><linearGradient id="linearGradient3698" x1="0" x2="161.871" y1="8.097" y2="8.097" gradientTransform="scale(1.2041436,0.83046571)" gradientUnits="userSpaceOnUse" xlink:href="#gradient-0"/><linearGradient id="linearGradient3700" x1="0" x2="161.871" y1="8.097" y2="8.097" gradientTransform="scale(1.2041436,0.83046571)" gradientUnits="userSpaceOnUse" xlink:href="#gradient-0"/><linearGradient id="linearGradient3702" x1="0" x2="165.323" y1="7.928" y2="7.928" gradientTransform="scale(1.1790007,0.8481759)" gradientUnits="userSpaceOnUse" xlink:href="#gradient-0"/><linearGradient id="linearGradient3704" x1="0" x2="171.317" y1="0" y2="0" gradientTransform="scale(1.1658417,0.85774939)" gradientUnits="userSpaceOnUse" xlink:href="#gradient-0"/><linearGradient id="linearGradient3706" x1="0" x2="171.317" y1="0" y2="0" gradientTransform="scale(1.1658417,0.85774939)" gradientUnits="userSpaceOnUse" xlink:href="#gradient-0"/><linearGradient id="linearGradient3708" x1="0" x2="171.317" y1="0" y2="0" gradientTransform="scale(1.1658417,0.85774939)" gradientUnits="userSpaceOnUse" xlink:href="#gradient-0"/><linearGradient id="linearGradient3840" x1=".5" x2="9.5" y1=".5" y2=".5" gradientUnits="userSpaceOnUse" xlink:href="#gradient-0"/><linearGradient id="linearGradient3842" x1=".5" x2="9.5" y1=".5" y2=".5" gradientUnits="userSpaceOnUse" xlink:href="#gradient-0"/><linearGradient id="linearGradient3844" x1="0" x2="10" y1="0" y2="0" gradientUnits="userSpaceOnUse" xlink:href="#gradient-0"/><linearGradient id="linearGradient3846" x1=".5" x2="9.5" y1=".5" y2=".5" gradientUnits="userSpaceOnUse" xlink:href="#gradient-0"/><linearGradient id="linearGradient3848" x1=".5" x2="9.5" y1=".5" y2=".5" gradientUnits="userSpaceOnUse" xlink:href="#gradient-0"/><linearGradient id="linearGradient3850" x1="0" x2="10" y1="0" y2="0" gradientUnits="userSpaceOnUse" xlink:href="#gradient-0"/><linearGradient id="linearGradient3852" x1=".5" x2="9.5" y1=".5" y2=".5" gradientUnits="userSpaceOnUse" xlink:href="#gradient-0"/><linearGradient id="linearGradient3854" x1=".5" x2="9.5" y1=".5" y2=".5" gradientUnits="userSpaceOnUse" xlink:href="#gradient-0"/><linearGradient id="linearGradient3856" x1="0" x2="10" y1="0" y2="0" gradientUnits="userSpaceOnUse" xlink:href="#gradient-0"/><linearGradient id="linearGradient3858" x1=".5" x2="9.5" y1=".5" y2=".5" gradientUnits="userSpaceOnUse" xlink:href="#gradient-0"/><linearGradient id="linearGradient3860" x1=".5" x2="9.5" y1=".5" y2=".5" gradientUnits="userSpaceOnUse" xlink:href="#gradient-0"/><linearGradient id="linearGradient3862" x1="0" x2="10" y1="0" y2="0" gradientUnits="userSpaceOnUse" xlink:href="#gradient-0"/><linearGradient id="linearGradient3864" x1=".5" x2="9.5" y1=".5" y2=".5" gradientUnits="userSpaceOnUse" xlink:href="#gradient-0"/><linearGradient id="linearGradient3866" x1=".5" x2="9.5" y1=".5" y2=".5" gradientUnits="userSpaceOnUse" xlink:href="#gradient-0"/><linearGradient id="linearGradient3868" x1="0" x2="10" y1="0" y2="0" gradientUnits="userSpaceOnUse" xlink:href="#gradient-0"/><linearGradient id="linearGradient3870" x1=".5" x2="9.5" y1=".5" y2=".5" gradientUnits="userSpaceOnUse" xlink:href="#gradient-0"/><linearGradient id="linearGradient3872" x1=".5" x2="9.5" y1=".5" y2=".5" gradientUnits="userSpaceOnUse" xlink:href="#gradient-0"/><linearGradient id="linearGradient3874" x1="0" x2="10" y1="0" y2="0" gradientUnits="userSpaceOnUse" xlink:href="#gradient-0"/><linearGradient id="linearGradient3876" x1=".5" x2="9.5" y1=".5" y2=".5" gradientUnits="userSpaceOnUse" xlink:href="#gradient-0"/><linearGradient id="linearGradient3878" x1=".5" x2="9.5" y1=".5" y2=".5" gradientUnits="userSpaceOnUse" xlink:href="#gradient-0"/><linearGradient id="linearGradient3880" x1="0" x2="10" y1="0" y2="0" gradientUnits="userSpaceOnUse" xlink:href="#gradient-0"/><linearGradient id="linearGradient3882" x1=".5" x2="9.5" y1=".5" y2=".5" gradientUnits="userSpaceOnUse" xlink:href="#gradient-0"/><linearGradient id="linearGradient3884" x1=".5" x2="9.5" y1=".5" y2=".5" gradientUnits="userSpaceOnUse" xlink:href="#gradient-0"/><linearGradient id="linearGradient3886" x1="0" x2="10" y1="0" y2="0" gradientUnits="userSpaceOnUse" xlink:href="#gradient-0"/><linearGradient id="linearGradient3888" x1=".5" x2="9.5" y1=".5" y2=".5" gradientUnits="userSpaceOnUse" xlink:href="#gradient-0"/><linearGradient id="linearGradient3890" x1=".5" x2="9.5" y1=".5" y2=".5" gradientUnits="userSpaceOnUse" xlink:href="#gradient-0"/><linearGradient id="linearGradient3892" x1="0" x2="10" y1="0" y2="0" gradientUnits="userSpaceOnUse" xlink:href="#gradient-0"/><linearGradient id="linearGradient3894" x1=".5" x2="9.5" y1=".5" y2=".5" gradientUnits="userSpaceOnUse" xlink:href="#gradient-0"/><linearGradient id="linearGradient3896" x1=".5" x2="9.5" y1=".5" y2=".5" gradientUnits="userSpaceOnUse" xlink:href="#gradient-0"/><linearGradient id="linearGradient3898" x1="0" x2="10" y1="0" y2="0" gradientUnits="userSpaceOnUse" xlink:href="#gradient-0"/><linearGradient id="linearGradient3900" x1=".5" x2="9.5" y1=".5" y2=".5" gradientUnits="userSpaceOnUse" xlink:href="#gradient-0"/><linearGradient id="linearGradient3902" x1=".5" x2="9.5" y1=".5" y2=".5" gradientUnits="userSpaceOnUse" xlink:href="#gradient-0"/><linearGradient id="linearGradient3904" x1="0" x2="10" y1="0" y2="0" gradientUnits="userSpaceOnUse" xlink:href="#gradient-0"/><linearGradient id="linearGradient3906" x1=".5" x2="9.5" y1=".5" y2=".5" gradientUnits="userSpaceOnUse" xlink:href="#gradient-0"/><linearGradient id="linearGradient3908" x1=".5" x2="9.5" y1=".5" y2=".5" gradientUnits="userSpaceOnUse" xlink:href="#gradient-0"/><linearGradient id="linearGradient3910" x1="0" x2="10" y1="0" y2="0" gradientUnits="userSpaceOnUse" xlink:href="#gradient-0"/><linearGradient id="linearGradient3912" x1=".5" x2="9.5" y1=".5" y2=".5" gradientUnits="userSpaceOnUse" xlink:href="#gradient-0"/><linearGradient id="linearGradient3914" x1=".5" x2="9.5" y1=".5" y2=".5" gradientUnits="userSpaceOnUse" xlink:href="#gradient-0"/><linearGradient id="linearGradient3916" x1="0" x2="10" y1="0" y2="0" gradientUnits="userSpaceOnUse" xlink:href="#gradient-0"/><linearGradient id="linearGradient3918" x1="141.394" x2="162.78" y1="40.591" y2="40.591" gradientTransform="scale(1.2153752,0.8227912)" gradientUnits="userSpaceOnUse" xlink:href="#gradient-0"/><linearGradient id="linearGradient3920" x1="660.242" x2="669.677" y1="5.436" y2="5.436" gradientTransform="scale(0.30491352,3.2796184)" gradientUnits="userSpaceOnUse" xlink:href="#gradient-0"/><linearGradient id="linearGradient3922" x1="123.519" x2="143.513" y1="20.994" y2="20.994" gradientTransform="scale(1.3937944,0.71746594)" gradientUnits="userSpaceOnUse" xlink:href="#gradient-0"/><linearGradient id="linearGradient3924" x1="281.128" x2="298.682" y1="59.337" y2="59.337" gradientTransform="scale(0.52686685,1.8980128)" gradientUnits="userSpaceOnUse" xlink:href="#gradient-0"/><linearGradient id="linearGradient3926" x1="64.962" x2="82.809" y1="181.745" y2="181.745" gradientTransform="scale(1.8569581,0.53851512)" gradientUnits="userSpaceOnUse" xlink:href="#gradient-0"/><linearGradient id="linearGradient3928" x1="201.248" x2="218.834" y1="53.558" y2="53.558" gradientTransform="scale(0.52807172,1.8936822)" gradientUnits="userSpaceOnUse" xlink:href="#gradient-0"/><linearGradient id="linearGradient3930" x1="59.175" x2="77.053" y1="259.657" y2="259.657" gradientTransform="scale(1.8565311,0.53863898)" gradientUnits="userSpaceOnUse" xlink:href="#gradient-0"/><linearGradient id="linearGradient3932" x1="44.765" x2="62.329" y1="125.535" y2="125.535" gradientTransform="scale(1.7989389,0.55588326)" gradientUnits="userSpaceOnUse" xlink:href="#gradient-0"/><linearGradient id="linearGradient3934" x1="26.554" x2="47.911" y1="97.521" y2="97.521" gradientTransform="scale(1.5052622,0.66433608)" gradientUnits="userSpaceOnUse" xlink:href="#gradient-0"/><linearGradient id="linearGradient3936" x1="21.354" x2="44.614" y1="51.075" y2="51.075" gradientTransform="scale(0.7601291,1.315566)" gradientUnits="userSpaceOnUse" xlink:href="#gradient-0"/><linearGradient id="linearGradient3938" x1="12.311" x2="33.782" y1="153.877" y2="153.877" gradientTransform="scale(1.4920809,0.67020493)" gradientUnits="userSpaceOnUse" xlink:href="#gradient-0"/><linearGradient id="linearGradient3940" x1="74.293" x2="97.744" y1="64.038" y2="64.038" gradientTransform="scale(0.75982861,1.3160863)" gradientUnits="userSpaceOnUse" xlink:href="#gradient-0"/><linearGradient id="linearGradient3942" x1="54.788" x2="68.856" y1="137.09" y2="137.09" gradientTransform="scale(2.2058774,0.45333435)" gradientUnits="userSpaceOnUse" xlink:href="#gradient-0"/><linearGradient id="linearGradient3944" x1="5.882" x2="164.839" y1="7.951" y2="7.951" gradientTransform="scale(1.1824663,0.84569009)" gradientUnits="userSpaceOnUse" xlink:href="#gradient-0"/><linearGradient id="linearGradient3946" x1="5.882" x2="164.839" y1="7.951" y2="7.951" gradientTransform="scale(1.1824663,0.84569009)" gradientUnits="userSpaceOnUse" xlink:href="#gradient-0"/><linearGradient id="linearGradient3948" x1="5.882" x2="164.839" y1="7.951" y2="7.951" gradientTransform="scale(1.1824663,0.84569009)" gradientUnits="userSpaceOnUse" xlink:href="#gradient-0"/><linearGradient id="linearGradient3950" x1="0" x2="161.871" y1="8.097" y2="8.097" gradientTransform="scale(1.2041436,0.83046571)" gradientUnits="userSpaceOnUse" xlink:href="#gradient-0"/><linearGradient id="linearGradient3952" x1="0" x2="161.871" y1="8.097" y2="8.097" gradientTransform="scale(1.2041436,0.83046571)" gradientUnits="userSpaceOnUse" xlink:href="#gradient-0"/><linearGradient id="linearGradient3954" x1="0" x2="161.871" y1="8.097" y2="8.097" gradientTransform="scale(1.2041436,0.83046571)" gradientUnits="userSpaceOnUse" xlink:href="#gradient-0"/><linearGradient id="linearGradient3956" x1="0" x2="161.871" y1="8.097" y2="8.097" gradientTransform="scale(1.2041436,0.83046571)" gradientUnits="userSpaceOnUse" xlink:href="#gradient-0"/><linearGradient id="linearGradient3958" x1="0" x2="161.871" y1="8.097" y2="8.097" gradientTransform="scale(1.2041436,0.83046571)" gradientUnits="userSpaceOnUse" xlink:href="#gradient-0"/><linearGradient id="linearGradient3960" x1="0" x2="161.871" y1="8.097" y2="8.097" gradientTransform="scale(1.2041436,0.83046571)" gradientUnits="userSpaceOnUse" xlink:href="#gradient-0"/><linearGradient id="linearGradient3962" x1="0" x2="165.323" y1="7.928" y2="7.928" gradientTransform="scale(1.1790007,0.8481759)" gradientUnits="userSpaceOnUse" xlink:href="#gradient-0"/><linearGradient id="linearGradient3964" x1="0" x2="171.317" y1="0" y2="0" gradientTransform="scale(1.1658417,0.85774939)" gradientUnits="userSpaceOnUse" xlink:href="#gradient-0"/><linearGradient id="linearGradient3966" x1="0" x2="171.317" y1="0" y2="0" gradientTransform="scale(1.1658417,0.85774939)" gradientUnits="userSpaceOnUse" xlink:href="#gradient-0"/></defs><desc id="desc6">Creator: FreeHEP Graphics2D Driver Producer: de.cau.cs.kieler.klighd.piccolo.freehep.SemanticSVGGraphics2D Revision Source: Date: Saturday, September 9, 2017 8:53:20 PM CEST</desc><g id="g23" transform="translate(192.22677,44.921664)" style="stroke:url(#linearGradient3842);stroke-width:1;stroke-linecap:square;stroke-linejoin:miter;stroke-miterlimit:10;stroke-dasharray:none;stroke-dashoffset:0"><g id="g25" style="fill:url(#linearGradient3840);fill-opacity:1;fill-rule:nonzero;stroke:none"><path id="path27" d="m 0.5,5 0,0 c 0,2.4852814 2.0147186,4.5 4.5,4.5 l 0,0 C 7.4852814,9.5 9.5,7.4852814 9.5,5 l 0,0 C 9.5,2.5147186 7.4852814,0.5 5,0.5 l 0,0 C 2.5147186,0.5 0.5,2.5147186 0.5,5 z" style="fill:url(#linearGradient3554)"/></g></g><g id="g29" transform="translate(192.22677,44.921664)" style="stroke:url(#linearGradient3844);stroke-width:1;stroke-linecap:square;stroke-linejoin:miter;stroke-miterlimit:10;stroke-dasharray:none;stroke-dashoffset:0"><g id="g31" style="fill:none;stroke:#000;stroke-linecap:butt;stroke-opacity:1"><path id="path33" d="m 0.5,5 0,0 c 0,2.4852814 2.0147186,4.5 4.5,4.5 l 0,0 C 7.4852814,9.5 9.5,7.4852814 9.5,5 l 0,0 C 9.5,2.5147186 7.4852814,0.5 5,0.5 l 0,0 C 2.5147186,0.5 0.5,2.5147186 0.5,5 z"/></g></g><g id="g35" transform="translate(5,5)" style="stroke:url(#linearGradient3966);stroke-width:1;stroke-linecap:square;stroke-linejoin:miter;stroke-miterlimit:10;stroke-dasharray:none;stroke-dashoffset:0"><g id="g37" transform="translate(153.90472,17.793822)" style="stroke:url(#linearGradient3848)"><g id="g39" style="fill:url(#linearGradient3846);fill-opacity:1;fill-rule:nonzero;stroke:none"><path id="path41" d="m 0.5,5 0,0 c 0,2.4852814 2.0147186,4.5 4.5,4.5 l 0,0 C 7.4852814,9.5 9.5,7.4852814 9.5,5 l 0,0 C 9.5,2.5147186 7.4852814,0.5 5,0.5 l 0,0 C 2.5147186,0.5 0.5,2.5147186 0.5,5 z" style="fill:url(#linearGradient3562)"/></g></g><g id="g43" transform="translate(153.90472,17.793822)" style="stroke:url(#linearGradient3850)"><g id="g45" style="fill:none;stroke:#000;stroke-linecap:butt;stroke-opacity:1"><path id="path47" d="m 0.5,5 0,0 c 0,2.4852814 2.0147186,4.5 4.5,4.5 l 0,0 C 7.4852814,9.5 9.5,7.4852814 9.5,5 l 0,0 C 9.5,2.5147186 7.4852814,0.5 5,0.5 l 0,0 C 2.5147186,0.5 0.5,2.5147186 0.5,5 z"/></g></g><g id="g49" style="stroke:url(#linearGradient3964)"><g id="g51" transform="translate(189.72902,0)" style="stroke:url(#linearGradient3854)"><g id="g53" style="fill:url(#linearGradient3852);fill-opacity:1;fill-rule:nonzero;stroke:none"><path id="path55" d="m 0.5,5 0,0 c 0,2.4852814 2.0147186,4.5 4.5,4.5 l 0,0 C 7.4852814,9.5 9.5,7.4852814 9.5,5 l 0,0 C 9.5,2.5147186 7.4852814,0.5 5,0.5 l 0,0 C 2.5147186,0.5 0.5,2.5147186 0.5,5 z" style="fill:url(#linearGradient3570)"/></g></g><g id="g57" transform="translate(189.72902,0)" style="stroke:url(#linearGradient3856)"><g id="g59" style="fill:none;stroke:#000;stroke-linecap:butt;stroke-opacity:1"><path id="path61" d="m 0.5,5 0,0 c 0,2.4852814 2.0147186,4.5 4.5,4.5 l 0,0 C 7.4852814,9.5 9.5,7.4852814 9.5,5 l 0,0 C 9.5,2.5147186 7.4852814,0.5 5,0.5 l 0,0 C 2.5147186,0.5 0.5,2.5147186 0.5,5 z"/></g></g><g id="g63" style="stroke:url(#linearGradient3962)"><g id="g65" transform="translate(133.10307,136.94743)" style="stroke:url(#linearGradient3860)"><g id="g67" style="fill:url(#linearGradient3858);fill-opacity:1;fill-rule:nonzero;stroke:none"><path id="path69" d="m 0.5,5 0,0 c 0,2.4852814 2.0147186,4.5 4.5,4.5 l 0,0 C 7.4852814,9.5 9.5,7.4852814 9.5,5 l 0,0 C 9.5,2.5147186 7.4852814,0.5 5,0.5 l 0,0 C 2.5147186,0.5 0.5,2.5147186 0.5,5 z" style="fill:url(#linearGradient3578)"/></g></g><g id="g71" transform="translate(133.10307,136.94743)" style="stroke:url(#linearGradient3862)"><g id="g73" style="fill:none;stroke:#000;stroke-linecap:butt;stroke-opacity:1"><path id="path75" d="m 0.5,5 0,0 c 0,2.4852814 2.0147186,4.5 4.5,4.5 l 0,0 C 7.4852814,9.5 9.5,7.4852814 9.5,5 l 0,0 C 9.5,2.5147186 7.4852814,0.5 5,0.5 l 0,0 C 2.5147186,0.5 0.5,2.5147186 0.5,5 z"/></g></g><g id="g77" style="stroke:url(#linearGradient3960)"><g id="g79" transform="translate(143.82509,94.939116)" style="stroke:url(#linearGradient3866)"><g id="g81" style="fill:url(#linearGradient3864);fill-opacity:1;fill-rule:nonzero;stroke:none"><path id="path83" d="m 0.5,5 0,0 c 0,2.4852814 2.0147186,4.5 4.5,4.5 l 0,0 C 7.4852814,9.5 9.5,7.4852814 9.5,5 l 0,0 C 9.5,2.5147186 7.4852814,0.5 5,0.5 l 0,0 C 2.5147186,0.5 0.5,2.5147186 0.5,5 z" style="fill:url(#linearGradient3586)"/></g></g><g id="g85" transform="translate(143.82509,94.939116)" style="stroke:url(#linearGradient3868)"><g id="g87" style="fill:none;stroke:#000;stroke-linecap:butt;stroke-opacity:1"><path id="path89" d="m 0.5,5 0,0 c 0,2.4852814 2.0147186,4.5 4.5,4.5 l 0,0 C 7.4852814,9.5 9.5,7.4852814 9.5,5 l 0,0 C 9.5,2.5147186 7.4852814,0.5 5,0.5 l 0,0 C 2.5147186,0.5 0.5,2.5147186 0.5,5 z"/></g></g><g id="g91" style="stroke:url(#linearGradient3958)"><g id="g93" transform="translate(102.02508,83.740554)" style="stroke:url(#linearGradient3872)"><g id="g95" style="fill:url(#linearGradient3870);fill-opacity:1;fill-rule:nonzero;stroke:none"><path id="path97" d="m 0.5,5 0,0 c 0,2.4852814 2.0147186,4.5 4.5,4.5 l 0,0 C 7.4852814,9.5 9.5,7.4852814 9.5,5 l 0,0 C 9.5,2.5147186 7.4852814,0.5 5,0.5 l 0,0 C 2.5147186,0.5 0.5,2.5147186 0.5,5 z" style="fill:url(#linearGradient3594)"/></g></g><g id="g99" transform="translate(102.02508,83.740554)" style="stroke:url(#linearGradient3874)"><g id="g101" style="fill:none;stroke:#000;stroke-linecap:butt;stroke-opacity:1"><path id="path103" d="m 0.5,5 0,0 c 0,2.4852814 2.0147186,4.5 4.5,4.5 l 0,0 C 7.4852814,9.5 9.5,7.4852814 9.5,5 l 0,0 C 9.5,2.5147186 7.4852814,0.5 5,0.5 l 0,0 C 2.5147186,0.5 0.5,2.5147186 0.5,5 z"/></g></g><g id="g105" style="stroke:url(#linearGradient3956)"><g id="g107" transform="translate(91.253714,125.72848)" style="stroke:url(#linearGradient3878)"><g id="g109" style="fill:url(#linearGradient3876);fill-opacity:1;fill-rule:nonzero;stroke:none"><path id="path111" d="m 0.5,5 0,0 c 0,2.4852814 2.0147186,4.5 4.5,4.5 l 0,0 C 7.4852814,9.5 9.5,7.4852814 9.5,5 l 0,0 C 9.5,2.5147186 7.4852814,0.5 5,0.5 l 0,0 C 2.5147186,0.5 0.5,2.5147186 0.5,5 z" style="fill:url(#linearGradient3602)"/></g></g><g id="g113" transform="translate(91.253714,125.72848)" style="stroke:url(#linearGradient3880)"><g id="g115" style="fill:none;stroke:#000;stroke-linecap:butt;stroke-opacity:1"><path id="path117" d="m 0.5,5 0,0 c 0,2.4852814 2.0147186,4.5 4.5,4.5 l 0,0 C 7.4852814,9.5 9.5,7.4852814 9.5,5 l 0,0 C 9.5,2.5147186 7.4852814,0.5 5,0.5 l 0,0 C 2.5147186,0.5 0.5,2.5147186 0.5,5 z"/></g></g><g id="g119" style="stroke:url(#linearGradient3954)"><g id="g121" transform="translate(102.15628,55.567924)" style="stroke:url(#linearGradient3884)"><g id="g123" style="fill:url(#linearGradient3882);fill-opacity:1;fill-rule:nonzero;stroke:none"><path id="path125" d="m 0.5,5 0,0 c 0,2.4852814 2.0147186,4.5 4.5,4.5 l 0,0 C 7.4852814,9.5 9.5,7.4852814 9.5,5 l 0,0 C 9.5,2.5147186 7.4852814,0.5 5,0.5 l 0,0 C 2.5147186,0.5 0.5,2.5147186 0.5,5 z" style="fill:url(#linearGradient3610)"/></g></g><g id="g127" transform="translate(102.15628,55.567924)" style="stroke:url(#linearGradient3886)"><g id="g129" style="fill:none;stroke:#000;stroke-linecap:butt;stroke-opacity:1"><path id="path131" d="m 0.5,5 0,0 c 0,2.4852814 2.0147186,4.5 4.5,4.5 l 0,0 C 7.4852814,9.5 9.5,7.4852814 9.5,5 l 0,0 C 9.5,2.5147186 7.4852814,0.5 5,0.5 l 0,0 C 2.5147186,0.5 0.5,2.5147186 0.5,5 z"/></g></g><g id="g133" style="stroke:url(#linearGradient3952)"><g id="g135" transform="translate(61.945005,67.085357)" style="stroke:url(#linearGradient3890)"><g id="g137" style="fill:url(#linearGradient3888);fill-opacity:1;fill-rule:nonzero;stroke:none"><path id="path139" d="m 0.5,5 0,0 c 0,2.4852814 2.0147186,4.5 4.5,4.5 l 0,0 C 7.4852814,9.5 9.5,7.4852814 9.5,5 l 0,0 C 9.5,2.5147186 7.4852814,0.5 5,0.5 l 0,0 C 2.5147186,0.5 0.5,2.5147186 0.5,5 z" style="fill:url(#linearGradient3618)"/></g></g><g id="g141" transform="translate(61.945005,67.085357)" style="stroke:url(#linearGradient3892)"><g id="g143" style="fill:none;stroke:#000;stroke-linecap:butt;stroke-opacity:1"><path id="path145" d="m 0.5,5 0,0 c 0,2.4852814 2.0147186,4.5 4.5,4.5 l 0,0 C 7.4852814,9.5 9.5,7.4852814 9.5,5 l 0,0 C 9.5,2.5147186 7.4852814,0.5 5,0.5 l 0,0 C 2.5147186,0.5 0.5,2.5147186 0.5,5 z"/></g></g><g id="g147" style="stroke:url(#linearGradient3950)"><g id="g149" transform="translate(0,88.310264)" style="stroke:url(#linearGradient3896)"><g id="g151" style="fill:url(#linearGradient3894);fill-opacity:1;fill-rule:nonzero;stroke:none"><path id="path153" d="m 0.5,5 0,0 c 0,2.4852814 2.0147186,4.5 4.5,4.5 l 0,0 C 7.4852814,9.5 9.5,7.4852814 9.5,5 l 0,0 C 9.5,2.5147186 7.4852814,0.5 5,0.5 l 0,0 C 2.5147186,0.5 0.5,2.5147186 0.5,5 z" style="fill:url(#linearGradient3626)"/></g></g><g id="g155" transform="translate(0,88.310264)" style="stroke:url(#linearGradient3898)"><g id="g157" style="fill:none;stroke:#000;stroke-linecap:butt;stroke-opacity:1"><path id="path159" d="m 0.5,5 0,0 c 0,2.4852814 2.0147186,4.5 4.5,4.5 l 0,0 C 7.4852814,9.5 9.5,7.4852814 9.5,5 l 0,0 C 9.5,2.5147186 7.4852814,0.5 5,0.5 l 0,0 C 2.5147186,0.5 0.5,2.5147186 0.5,5 z"/></g></g><g id="g161" style="stroke:url(#linearGradient3948)"><g id="g163" transform="translate(21.589798,49.998717)" style="stroke:url(#linearGradient3902)"><g id="g165" style="fill:url(#linearGradient3900);fill-opacity:1;fill-rule:nonzero;stroke:none"><path id="path167" d="m 0.5,5 0,0 c 0,2.4852814 2.0147186,4.5 4.5,4.5 l 0,0 C 7.4852814,9.5 9.5,7.4852814 9.5,5 l 0,0 C 9.5,2.5147186 7.4852814,0.5 5,0.5 l 0,0 C 2.5147186,0.5 0.5,2.5147186 0.5,5 z" style="fill:url(#linearGradient3634)"/></g></g><g id="g169" transform="translate(21.589798,49.998717)" style="stroke:url(#linearGradient3904)"><g id="g171" style="fill:none;stroke:#000;stroke-linecap:butt;stroke-opacity:1"><path id="path173" d="m 0.5,5 0,0 c 0,2.4852814 2.0147186,4.5 4.5,4.5 l 0,0 C 7.4852814,9.5 9.5,7.4852814 9.5,5 l 0,0 C 9.5,2.5147186 7.4852814,0.5 5,0.5 l 0,0 C 2.5147186,0.5 0.5,2.5147186 0.5,5 z"/></g></g><g id="g175" style="stroke:url(#linearGradient3946)"><g id="g177" transform="translate(40.219221,105.66193)" style="stroke:url(#linearGradient3908)"><g id="g179" style="fill:url(#linearGradient3906);fill-opacity:1;fill-rule:nonzero;stroke:none"><path id="path181" d="m 0.5,5 0,0 c 0,2.4852814 2.0147186,4.5 4.5,4.5 l 0,0 C 7.4852814,9.5 9.5,7.4852814 9.5,5 l 0,0 C 9.5,2.5147186 7.4852814,0.5 5,0.5 l 0,0 C 2.5147186,0.5 0.5,2.5147186 0.5,5 z" style="fill:url(#linearGradient3642)"/></g></g><g id="g183" transform="translate(40.219221,105.66193)" style="stroke:url(#linearGradient3910)"><g id="g185" style="fill:none;stroke:#000;stroke-linecap:butt;stroke-opacity:1"><path id="path187" d="m 0.5,5 0,0 c 0,2.4852814 2.0147186,4.5 4.5,4.5 l 0,0 C 7.4852814,9.5 9.5,7.4852814 9.5,5 l 0,0 C 9.5,2.5147186 7.4852814,0.5 5,0.5 l 0,0 C 2.5147186,0.5 0.5,2.5147186 0.5,5 z"/></g></g><g id="g189" style="stroke:url(#linearGradient3944)"><g id="g191" transform="translate(142.03172,48.427932)" style="stroke:url(#linearGradient3914)"><g id="g193" style="fill:url(#linearGradient3912);fill-opacity:1;fill-rule:nonzero;stroke:none"><path id="path195" d="m 0.5,5 0,0 c 0,2.4852814 2.0147186,4.5 4.5,4.5 l 0,0 C 7.4852814,9.5 9.5,7.4852814 9.5,5 l 0,0 C 9.5,2.5147186 7.4852814,0.5 5,0.5 l 0,0 C 2.5147186,0.5 0.5,2.5147186 0.5,5 z" style="fill:url(#linearGradient3650)"/></g></g><g id="g197" transform="translate(142.03172,48.427932)" style="stroke:url(#linearGradient3916)"><g id="g199" style="fill:none;stroke:#000;stroke-linecap:butt;stroke-opacity:1"><path id="path201" d="m 0.5,5 0,0 c 0,2.4852814 2.0147186,4.5 4.5,4.5 l 0,0 C 7.4852814,9.5 9.5,7.4852814 9.5,5 l 0,0 C 9.5,2.5147186 7.4852814,0.5 5,0.5 l 0,0 C 2.5147186,0.5 0.5,2.5147186 0.5,5 z"/></g></g><g id="g203" transform="translate(-9.2772999,-8.3382273)" style="stroke:url(#linearGradient3918)"><g id="g205" style="fill:none;stroke:#000;stroke-linecap:butt;stroke-opacity:1"><path id="path207" d="M 197.33882,50.493916 172.34729,33.898029"/></g></g><g id="g209" transform="translate(-9.2772999,-8.3382273)" style="stroke:url(#linearGradient3920)"><g id="g211" style="fill:none;stroke:#000;stroke-linecap:butt;stroke-opacity:1"><path id="path213" d="M 201.81686,48.269688 203.69354,18.32843"/></g></g><g id="g215" transform="translate(-9.2772999,-8.3382273)" style="stroke:url(#linearGradient3922)"><g id="g217" style="fill:none;stroke:#000;stroke-linecap:butt;stroke-opacity:1"><path id="path219" d="M 172.66006,28.907822 199.52827,15.562455"/></g></g><g id="g221" transform="translate(-9.2772999,-8.3382273)" style="stroke:url(#linearGradient3924)"><g id="g223" style="fill:none;stroke:#000;stroke-linecap:butt;stroke-opacity:1"><path id="path225" d="m 148.61688,145.44098 8.24896,-32.31895"/></g></g><g id="g227" transform="translate(-9.2772999,-8.3382273)" style="stroke:url(#linearGradient3926)"><g id="g229" style="fill:none;stroke:#000;stroke-linecap:butt;stroke-opacity:1"><path id="path231" d="M 153.27271,106.98344 121.13203,98.372688"/></g></g><g id="g233" transform="translate(-9.2772999,-8.3382273)" style="stroke:url(#linearGradient3928)"><g id="g235" style="fill:none;stroke:#000;stroke-linecap:butt;stroke-opacity:1"><path id="path237" d="m 115.05991,101.92195 -8.28646,32.30158"/></g></g><g id="g239" transform="translate(-9.2772999,-8.3382273)" style="stroke:url(#linearGradient3930)"><g id="g241" style="fill:none;stroke:#000;stroke-linecap:butt;stroke-opacity:1"><path id="path243" d="m 110.36048,140.36139 32.19039,8.62959"/></g></g><g id="g245" transform="translate(-9.2772999,-8.3382273)" style="stroke:url(#linearGradient3932)"><g id="g247" style="fill:none;stroke:#000;stroke-linecap:butt;stroke-opacity:1"><path id="path249" d="M 111.62685,70.282906 81.029022,79.046829"/></g></g><g id="g251" transform="translate(-9.2772999,-8.3382273)" style="stroke:url(#linearGradient3934)"><g id="g253" style="fill:none;stroke:#000;stroke-linecap:butt;stroke-opacity:1"><path id="path255" d="M 71.618011,78.474098 40.47139,65.28643"/></g></g><g id="g257" transform="translate(-9.2772999,-8.3382273)" style="stroke:url(#linearGradient3936)"><g id="g259" style="fill:none;stroke:#000;stroke-linecap:butt;stroke-opacity:1"><path id="path261" d="M 33.412376,67.692894 16.732019,97.292534"/></g></g><g id="g263" transform="translate(-9.2772999,-8.3382273)" style="stroke:url(#linearGradient3938)"><g id="g265" style="fill:none;stroke:#000;stroke-linecap:butt;stroke-opacity:1"><path id="path267" d="m 18.868265,103.62916 31.037283,13.39033"/></g></g><g id="g269" transform="translate(-9.2772999,-8.3382273)" style="stroke:url(#linearGradient3940)"><g id="g271" style="fill:none;stroke:#000;stroke-linecap:butt;stroke-opacity:1"><path id="path273" d="M 56.950089,114.64356 73.768738,84.780182"/></g></g><g id="g275" transform="translate(-9.2772999,-8.3382273)" style="stroke:url(#linearGradient3942)"><g id="g277" style="fill:none;stroke:#000;stroke-linecap:butt;stroke-opacity:1"><path id="path279" d="m 121.3553,68.024879 30.032,-5.377449"/></g></g></g></g></g></g></g></g></g></g></g></g></g></g></svg>