<svg xmlns="http://www.w3.org/2000/svg" xmlns:svg="http://www.w3.org/2000/svg" id="svg2" width="366" height="346" x="0" y="0" version="1.1" viewBox="0 0 366 346" xml:space="preserve"><metadata id="metadata1361"/><desc id="desc6">Creator: FreeHEP Graphics2D Driver Producer: de.cau.cs.kieler.klighd.piccolo.freehep.SemanticSVGGraphics2D Revision Source: Date: Thursday, March 8, 2018 4:35:02 PM CET</desc><g id="g8" stroke-dasharray="none" stroke-dashoffset="0" stroke-linecap="square" stroke-linejoin="miter" stroke-miterlimit="10" stroke-width="1"><g id="g10" fill="#fff" fill-opacity="1" fill-rule="nonzero" stroke="none"><path id="path12" d="M 0 0 L 366 0 L 366 345.6666717529297 L 0 345.6666717529297 L 0 0 z"/></g><defs id="defs14"><linearGradient id="gradient-0" gradientTransform="rotate(90.0)" gradientUnits="objectBoundingBox"><stop id="stop17" offset="0" opacity-stop="1" stop-color="#ebf6fa"/><stop id="stop19" offset="1" opacity-stop="1" stop-color="#c4e3f3"/></linearGradient></defs><g id="g21" stroke="url(#gradient-0)"><g id="g23" fill="url(#gradient-0)" fill-opacity="1" fill-rule="nonzero" stroke="none"><path id="path25" d="M 0.5 5.5 L 0.5 152.1666717529297 C 0.5 154.92809550208366 2.7385762508460334 157.1666717529297 5.5 157.1666717529297 L 171.5 157.1666717529297 C 174.26142374915398 157.1666717529297 176.5 154.92809550208366 176.5 152.1666717529297 L 176.5 5.5 C 176.5 2.7385762508460334 174.26142374915398 0.5 171.5 0.5 L 5.5 0.5 C 2.7385762508460334 0.5 0.5 2.7385762508460334 0.5 5.5 z"/></g><g id="g27" fill="none" stroke="#000" stroke-linecap="butt" stroke-opacity="1"><path id="path29" d="M 0.5 5.5 L 0.5 152.1666717529297 C 0.5 154.92809550208366 2.7385762508460334 157.1666717529297 5.5 157.1666717529297 L 171.5 157.1666717529297 C 174.26142374915398 157.1666717529297 176.5 154.92809550208366 176.5 152.1666717529297 L 176.5 5.5 C 176.5 2.7385762508460334 174.26142374915398 0.5 171.5 0.5 L 5.5 0.5 C 2.7385762508460334 0.5 0.5 2.7385762508460334 0.5 5.5 z"/></g><g id="g31" stroke="url(#gradient-0)"><g id="g33" transform="matrix(1, 0, 0, 1, 12, 42.5)"><g id="g35" fill="url(#gradient-0)" fill-opacity="1" fill-rule="nonzero" stroke="none"><path id="path37" d="M 0.5 5.5 L 0.5 34.5 C 0.5 37.26142374915397 2.7385762508460334 39.5 5.5 39.5 L 34.5 39.5 C 37.26142374915397 39.5 39.5 37.26142374915397 39.5 34.5 L 39.5 5.5 C 39.5 2.7385762508460334 37.26142374915397 0.5 34.5 0.5 L 5.5 0.5 C 2.7385762508460334 0.5 0.5 2.7385762508460334 0.5 5.5 z"/></g></g><g id="g39" transform="matrix(1, 0, 0, 1, 12, 42.5)"><g id="g41" fill="none" stroke="#000" stroke-linecap="butt" stroke-opacity="1"><path id="path43" d="M 0.5 5.5 L 0.5 34.5 C 0.5 37.26142374915397 2.7385762508460334 39.5 5.5 39.5 L 34.5 39.5 C 37.26142374915397 39.5 39.5 37.26142374915397 39.5 34.5 L 39.5 5.5 C 39.5 2.7385762508460334 37.26142374915397 0.5 34.5 0.5 L 5.5 0.5 C 2.7385762508460334 0.5 0.5 2.7385762508460334 0.5 5.5 z"/></g></g><g id="g45" transform="matrix(1, 0, 0, 1, 28.5, 56)"><clipPath id="clip1"><path id="path48" d="M -28.5 -56 L -28.5 289.6666717529297 L 337.5 289.6666717529297 L 337.5 -56 z"/></clipPath><g id="g50" clip-path="url(#clip1)"><text id="text52" x="0" y="0" fill="#000" fill-opacity="1" stroke="none" font-family="Arial" font-size="10.667" font-style="normal" font-weight="normal"><tspan id="tspan54" x="0" dy="9.5">1</tspan></text></g></g><g id="g56" stroke="url(#gradient-0)"><g id="g58" transform="matrix(1, 0, 0, 1, 12, 105.66666412353516)"><g id="g60" fill="url(#gradient-0)" fill-opacity="1" fill-rule="nonzero" stroke="none"><path id="path62" d="M 0.5 5.5 L 0.5 34.5 C 0.5 37.26142374915397 2.7385762508460334 39.5 5.5 39.5 L 34.5 39.5 C 37.26142374915397 39.5 39.5 37.26142374915397 39.5 34.5 L 39.5 5.5 C 39.5 2.7385762508460334 37.26142374915397 0.5 34.5 0.5 L 5.5 0.5 C 2.7385762508460334 0.5 0.5 2.7385762508460334 0.5 5.5 z"/></g></g><g id="g64" transform="matrix(1, 0, 0, 1, 12, 105.66666412353516)"><g id="g66" fill="none" stroke="#000" stroke-linecap="butt" stroke-opacity="1"><path id="path68" d="M 0.5 5.5 L 0.5 34.5 C 0.5 37.26142374915397 2.7385762508460334 39.5 5.5 39.5 L 34.5 39.5 C 37.26142374915397 39.5 39.5 37.26142374915397 39.5 34.5 L 39.5 5.5 C 39.5 2.7385762508460334 37.26142374915397 0.5 34.5 0.5 L 5.5 0.5 C 2.7385762508460334 0.5 0.5 2.7385762508460334 0.5 5.5 z"/></g></g><g id="g70" transform="matrix(1, 0, 0, 1, 28.5, 119.16666412353516)"><clipPath id="clip2"><path id="path73" d="M -28.5 -119.16666412353516 L -28.5 226.50000762939453 L 337.5 226.50000762939453 L 337.5 -119.16666412353516 z"/></clipPath><g id="g75" clip-path="url(#clip2)"><text id="text77" x="0" y="0" fill="#000" fill-opacity="1" stroke="none" font-family="Arial" font-size="10.667" font-style="normal" font-weight="normal"><tspan id="tspan79" x="0" dy="9.5">2</tspan></text></g></g><g id="g81" stroke="url(#gradient-0)"><g id="g83" transform="matrix(1, 0, 0, 1, 125, 30)"><g id="g85" fill="url(#gradient-0)" fill-opacity="1" fill-rule="nonzero" stroke="none"><path id="path87" d="M 0.5 5.5 L 0.5 34.5 C 0.5 37.26142374915397 2.7385762508460334 39.5 5.5 39.5 L 34.5 39.5 C 37.26142374915397 39.5 39.5 37.26142374915397 39.5 34.5 L 39.5 5.5 C 39.5 2.7385762508460334 37.26142374915397 0.5 34.5 0.5 L 5.5 0.5 C 2.7385762508460334 0.5 0.5 2.7385762508460334 0.5 5.5 z"/></g></g><g id="g89" transform="matrix(1, 0, 0, 1, 125, 30)"><g id="g91" fill="none" stroke="#000" stroke-linecap="butt" stroke-opacity="1"><path id="path93" d="M 0.5 5.5 L 0.5 34.5 C 0.5 37.26142374915397 2.7385762508460334 39.5 5.5 39.5 L 34.5 39.5 C 37.26142374915397 39.5 39.5 37.26142374915397 39.5 34.5 L 39.5 5.5 C 39.5 2.7385762508460334 37.26142374915397 0.5 34.5 0.5 L 5.5 0.5 C 2.7385762508460334 0.5 0.5 2.7385762508460334 0.5 5.5 z"/></g></g><g id="g95" transform="matrix(1, 0, 0, 1, 141.5, 43.5)"><clipPath id="clip3"><path id="path98" d="M -141.5 -43.5 L -141.5 302.1666717529297 L 224.5 302.1666717529297 L 224.5 -43.5 z"/></clipPath><g id="g100" clip-path="url(#clip3)"><text id="text102" x="0" y="0" fill="#000" fill-opacity="1" stroke="none" font-family="Arial" font-size="10.667" font-style="normal" font-weight="normal"><tspan id="tspan104" x="0" dy="9.5">3</tspan></text></g></g><g id="g106" stroke="url(#gradient-0)"><g id="g108" transform="matrix(1, 0, 0, 1, 125, 92.66666412353516)"><g id="g110" fill="url(#gradient-0)" fill-opacity="1" fill-rule="nonzero" stroke="none"><path id="path112" d="M 0.5 5.5 L 0.5 34.5 C 0.5 37.26142374915397 2.7385762508460334 39.5 5.5 39.5 L 34.5 39.5 C 37.26142374915397 39.5 39.5 37.26142374915397 39.5 34.5 L 39.5 5.5 C 39.5 2.7385762508460334 37.26142374915397 0.5 34.5 0.5 L 5.5 0.5 C 2.7385762508460334 0.5 0.5 2.7385762508460334 0.5 5.5 z"/></g></g><g id="g114" transform="matrix(1, 0, 0, 1, 125, 92.66666412353516)"><g id="g116" fill="none" stroke="#000" stroke-linecap="butt" stroke-opacity="1"><path id="path118" d="M 0.5 5.5 L 0.5 34.5 C 0.5 37.26142374915397 2.7385762508460334 39.5 5.5 39.5 L 34.5 39.5 C 37.26142374915397 39.5 39.5 37.26142374915397 39.5 34.5 L 39.5 5.5 C 39.5 2.7385762508460334 37.26142374915397 0.5 34.5 0.5 L 5.5 0.5 C 2.7385762508460334 0.5 0.5 2.7385762508460334 0.5 5.5 z"/></g></g><g id="g120" transform="matrix(1, 0, 0, 1, 141.5, 106.16666412353516)"><clipPath id="clip4"><path id="path123" d="M -141.5 -106.16666412353516 L -141.5 239.50000762939453 L 224.5 239.50000762939453 L 224.5 -106.16666412353516 z"/></clipPath><g id="g125" clip-path="url(#clip4)"><text id="text127" x="0" y="0" fill="#000" fill-opacity="1" stroke="none" font-family="Arial" font-size="10.667" font-style="normal" font-weight="normal"><tspan id="tspan129" x="0" dy="9.5">4</tspan></text></g></g><g id="g131" fill="none" stroke="#000" stroke-linecap="butt" stroke-opacity="1"><path id="path133" d="M 52 55.83333206176758 C 62 50 67 50 73.08333587646484 50 C 79.16666412353516 50 86.33333587646484 50 95.29166412353516 50 C 104.25 50 115 50 125 50"/></g><g id="g135" transform="matrix(1, 0, 0, 1, 117, 47)"><g id="g137" fill="#000" fill-opacity="1" fill-rule="nonzero" stroke="none"><path id="path139" d="M 0 0 L 3.200000047683716 3 L 0 6 L 8 3 z"/></g></g><g id="g141" transform="matrix(1, 0, 0, 1, 117, 47)"><g id="g143" fill="none" stroke="#000" stroke-linecap="butt" stroke-linejoin="round" stroke-opacity="1"><path id="path145" d="M 0 0 L 3.200000047683716 3 L 0 6 L 8 3 z"/></g></g><g id="g147" transform="matrix(1, 0, 0, 1, 76, 43)"><g id="g149" fill="#fff" fill-opacity=".863" fill-rule="nonzero" stroke="none"><path id="path151" d="M 0.5 0.5 L 24.5 0.5 L 24.5 13.5 L 0.5 13.5 L 0.5 0.5 z"/></g></g><g id="g153" transform="matrix(1, 0, 0, 1, 76, 43)"><g id="g155" fill="none" stroke="#000" stroke-linecap="butt" stroke-opacity="0"><path id="path157" d="M 0.5 0.5 L 24.5 0.5 L 24.5 13.5 L 0.5 13.5 L 0.5 0.5 z"/></g></g><g id="g159" transform="matrix(1, 0, 0, 1, 76, 43)"><g id="g161" fill="none" stroke="#646464" stroke-linecap="butt" stroke-opacity="1"><path id="path163" d="M 3 0 L 0 0 L 0 14 L 3 14"/></g></g><g id="g165" transform="matrix(1, 0, 0, 1, 98, 43)"><g id="g167" fill="none" stroke="#646464" stroke-linecap="butt" stroke-opacity="1"><path id="path169" d="M 0 0 L 3 0 L 3 14 L 0 14"/></g></g><g id="g171" transform="matrix(1, 0, 0, 1, 78, 43)"><clipPath id="clip5"><path id="path174" d="M -78 -43 L -78 302.6666717529297 L 288 302.6666717529297 L 288 -43 z"/></clipPath><g id="g176" clip-path="url(#clip5)"><text id="text178" x="0" y="0" fill="#000" fill-opacity="1" stroke="none" font-family="Arial" font-size="10.667" font-style="normal" font-weight="normal"><tspan id="tspan180" x="0" dy="9.5">One</tspan></text></g></g><g id="g182" fill="none" stroke="#000" stroke-linecap="butt" stroke-opacity="1"><path id="path184" d="M 52 69.16666412353516 C 62 75 67 75 72.25 75 C 77.5 75 83 75 88.5 75 C 94 75 99.5 75 104.75 75 C 110 75 115 75 125 102.66666412353516"/></g><g id="g186" transform="matrix(0.38363303164963086, 0.9234856236170184, -0.9234856236170184, 0.38363303164963086, 124.70139265572475, 94.12788002383482)"><g id="g188" fill="#000" fill-opacity="1" fill-rule="nonzero" stroke="none"><path id="path190" d="M 0 0 L 3.200000047683716 3 L 0 6 L 8 3 z"/></g></g><g id="g192" transform="matrix(0.38363303164963086, 0.9234856236170184, -0.9234856236170184, 0.38363303164963086, 124.70139265572475, 94.12788002383482)"><g id="g194" fill="none" stroke="#000" stroke-linecap="butt" stroke-linejoin="round" stroke-opacity="1"><path id="path196" d="M 0 0 L 3.200000047683716 3 L 0 6 L 8 3 z"/></g></g><g id="g198" transform="matrix(1, 0, 0, 1, 75.5, 68)"><g id="g200" fill="#fff" fill-opacity=".863" fill-rule="nonzero" stroke="none"><path id="path202" d="M 0.5 0.5 L 25.5 0.5 L 25.5 13.5 L 0.5 13.5 L 0.5 0.5 z"/></g></g><g id="g204" transform="matrix(1, 0, 0, 1, 75.5, 68)"><g id="g206" fill="none" stroke="#000" stroke-linecap="butt" stroke-opacity="0"><path id="path208" d="M 0.5 0.5 L 25.5 0.5 L 25.5 13.5 L 0.5 13.5 L 0.5 0.5 z"/></g></g><g id="g210" transform="matrix(1, 0, 0, 1, 75.5, 68)"><g id="g212" fill="none" stroke="#646464" stroke-linecap="butt" stroke-opacity="1"><path id="path214" d="M 3 0 L 0 0 L 0 14 L 3 14"/></g></g><g id="g216" transform="matrix(1, 0, 0, 1, 98.5, 68)"><g id="g218" fill="none" stroke="#646464" stroke-linecap="butt" stroke-opacity="1"><path id="path220" d="M 0 0 L 3 0 L 3 14 L 0 14"/></g></g><g id="g222" transform="matrix(1, 0, 0, 1, 77.5, 68)"><clipPath id="clip6"><path id="path225" d="M -77.5 -68 L -77.5 277.6666717529297 L 288.5 277.6666717529297 L 288.5 -68 z"/></clipPath><g id="g227" clip-path="url(#clip6)"><text id="text229" x="0" y="0" fill="#000" fill-opacity="1" stroke="none" font-family="Arial" font-size="10.667" font-style="normal" font-weight="normal"><tspan id="tspan231" x="0" dy="9.5">Two</tspan></text></g></g><g id="g233" fill="none" stroke="#000" stroke-linecap="butt" stroke-opacity="1"><path id="path235" d="M 52 119 C 62 110 67 110 72.25 110 C 77.5 110 83 110 88.5 110 C 94 110 99.5 110 104.75 110 C 110 110 115 110 125 112.66666412353516"/></g><g id="g237" transform="matrix(0.9813328947983122, 0.19231679486400755, -0.19231679486400755, 0.9813328947983122, 117.72628722380765, 108.18413109246373)"><g id="g239" fill="#000" fill-opacity="1" fill-rule="nonzero" stroke="none"><path id="path241" d="M 0 0 L 3.200000047683716 3 L 0 6 L 8 3 z"/></g></g><g id="g243" transform="matrix(0.9813328947983122, 0.19231679486400755, -0.19231679486400755, 0.9813328947983122, 117.72628722380765, 108.18413109246373)"><g id="g245" fill="none" stroke="#000" stroke-linecap="butt" stroke-linejoin="round" stroke-opacity="1"><path id="path247" d="M 0 0 L 3.200000047683716 3 L 0 6 L 8 3 z"/></g></g><g id="g249" transform="matrix(1, 0, 0, 1, 72, 103)"><g id="g251" fill="#fff" fill-opacity=".863" fill-rule="nonzero" stroke="none"><path id="path253" d="M 0.5 0.5 L 32.5 0.5 L 32.5 13.5 L 0.5 13.5 L 0.5 0.5 z"/></g></g><g id="g255" transform="matrix(1, 0, 0, 1, 72, 103)"><g id="g257" fill="none" stroke="#000" stroke-linecap="butt" stroke-opacity="0"><path id="path259" d="M 0.5 0.5 L 32.5 0.5 L 32.5 13.5 L 0.5 13.5 L 0.5 0.5 z"/></g></g><g id="g261" transform="matrix(1, 0, 0, 1, 72, 103)"><g id="g263" fill="none" stroke="#646464" stroke-linecap="butt" stroke-opacity="1"><path id="path265" d="M 3 0 L 0 0 L 0 14 L 3 14"/></g></g><g id="g267" transform="matrix(1, 0, 0, 1, 102, 103)"><g id="g269" fill="none" stroke="#646464" stroke-linecap="butt" stroke-opacity="1"><path id="path271" d="M 0 0 L 3 0 L 3 14 L 0 14"/></g></g><g id="g273" transform="matrix(1, 0, 0, 1, 74, 103)"><clipPath id="clip7"><path id="path276" d="M -74 -103 L -74 242.6666717529297 L 292 242.6666717529297 L 292 -103 z"/></clipPath><g id="g278" clip-path="url(#clip7)"><text id="text280" x="0" y="0" fill="#000" fill-opacity="1" stroke="none" font-family="Arial" font-size="10.667" font-style="normal" font-weight="normal"><tspan id="tspan282" x="0" dy="9.5">Three</tspan></text></g></g><g id="g284" fill="none" stroke="#000" stroke-linecap="butt" stroke-opacity="1"><path id="path286" d="M 125 122.66666412353516 C 115 135 110 135 104.75 135 C 99.5 135 94 135 88.5 135 C 83 135 77.5 135 72.25 135 C 67 135 62 135 52 132.3333282470703"/></g><g id="g288" transform="matrix(-0.9813326393646772, -0.19231809825795493, 0.19231809825795493, -0.9813326393646772, 59.27370685870103, 136.81587075448252)"><g id="g290" fill="#000" fill-opacity="1" fill-rule="nonzero" stroke="none"><path id="path292" d="M 0 0 L 3.200000047683716 3 L 0 6 L 8 3 z"/></g></g><g id="g294" transform="matrix(-0.9813326393646772, -0.19231809825795493, 0.19231809825795493, -0.9813326393646772, 59.27370685870103, 136.81587075448252)"><g id="g296" fill="none" stroke="#000" stroke-linecap="butt" stroke-linejoin="round" stroke-opacity="1"><path id="path298" d="M 0 0 L 3.200000047683716 3 L 0 6 L 8 3 z"/></g></g><g id="g300" transform="matrix(1, 0, 0, 1, 75.5, 128)"><g id="g302" fill="#fff" fill-opacity=".863" fill-rule="nonzero" stroke="none"><path id="path304" d="M 0.5 0.5 L 25.5 0.5 L 25.5 13.5 L 0.5 13.5 L 0.5 0.5 z"/></g></g><g id="g306" transform="matrix(1, 0, 0, 1, 75.5, 128)"><g id="g308" fill="none" stroke="#000" stroke-linecap="butt" stroke-opacity="0"><path id="path310" d="M 0.5 0.5 L 25.5 0.5 L 25.5 13.5 L 0.5 13.5 L 0.5 0.5 z"/></g></g><g id="g312" transform="matrix(1, 0, 0, 1, 75.5, 128)"><g id="g314" fill="none" stroke="#646464" stroke-linecap="butt" stroke-opacity="1"><path id="path316" d="M 3 0 L 0 0 L 0 14 L 3 14"/></g></g><g id="g318" transform="matrix(1, 0, 0, 1, 98.5, 128)"><g id="g320" fill="none" stroke="#646464" stroke-linecap="butt" stroke-opacity="1"><path id="path322" d="M 0 0 L 3 0 L 3 14 L 0 14"/></g></g><g id="g324" transform="matrix(1, 0, 0, 1, 77.5, 128)"><clipPath id="clip8"><path id="path327" d="M -77.5 -128 L -77.5 217.6666717529297 L 288.5 217.6666717529297 L 288.5 -128 z"/></clipPath><g id="g329" clip-path="url(#clip8)"><text id="text331" x="0" y="0" fill="#000" fill-opacity="1" stroke="none" font-family="Arial" font-size="10.667" font-style="normal" font-weight="normal"><tspan id="tspan333" x="0" dy="9.5">Four</tspan></text></g></g><g id="g335" transform="matrix(1, 0, 0, 1, 61.5, 5)"><clipPath id="clip9"><path id="path338" d="M -61.5 -5 L -61.5 340.6666717529297 L 304.5 340.6666717529297 L 304.5 -5 z"/></clipPath><g id="g340" clip-path="url(#clip9)"><text id="text342" x="0" y="0" fill="#000" fill-opacity="1" stroke="none" font-family="Arial" font-size="10.667" font-style="normal" font-weight="normal"><tspan id="tspan344" x="0" dy="9.5">left-to-right</tspan></text></g></g><g id="g346" stroke="url(#gradient-0)"><g id="g348" transform="matrix(1, 0, 0, 1, 0, 169.6666717529297)"><g id="g350" fill="url(#gradient-0)" fill-opacity="1" fill-rule="nonzero" stroke="none"><path id="path352" d="M 0.5 5.5 L 0.5 170.5 C 0.5 173.26142374915398 2.7385762508460334 175.5 5.5 175.5 L 170 175.5 C 172.76142374915398 175.5 175 173.26142374915398 175 170.5 L 175 5.5 C 175 2.7385762508460334 172.76142374915398 0.5 170 0.5 L 5.5 0.5 C 2.7385762508460334 0.5 0.5 2.7385762508460334 0.5 5.5 z"/></g></g><g id="g354" transform="matrix(1, 0, 0, 1, 0, 169.6666717529297)"><g id="g356" fill="none" stroke="#000" stroke-linecap="butt" stroke-opacity="1"><path id="path358" d="M 0.5 5.5 L 0.5 170.5 C 0.5 173.26142374915398 2.7385762508460334 175.5 5.5 175.5 L 170 175.5 C 172.76142374915398 175.5 175 173.26142374915398 175 170.5 L 175 5.5 C 175 2.7385762508460334 172.76142374915398 0.5 170 0.5 L 5.5 0.5 C 2.7385762508460334 0.5 0.5 2.7385762508460334 0.5 5.5 z"/></g></g><g id="g360" stroke="url(#gradient-0)"><g id="g362" transform="matrix(1, 0, 0, 1, 105.25, 199.6666717529297)"><g id="g364" fill="url(#gradient-0)" fill-opacity="1" fill-rule="nonzero" stroke="none"><path id="path366" d="M 0.5 5.5 L 0.5 34.5 C 0.5 37.26142374915397 2.7385762508460334 39.5 5.5 39.5 L 34.5 39.5 C 37.26142374915397 39.5 39.5 37.26142374915397 39.5 34.5 L 39.5 5.5 C 39.5 2.7385762508460334 37.26142374915397 0.5 34.5 0.5 L 5.5 0.5 C 2.7385762508460334 0.5 0.5 2.7385762508460334 0.5 5.5 z"/></g></g><g id="g368" transform="matrix(1, 0, 0, 1, 105.25, 199.6666717529297)"><g id="g370" fill="none" stroke="#000" stroke-linecap="butt" stroke-opacity="1"><path id="path372" d="M 0.5 5.5 L 0.5 34.5 C 0.5 37.26142374915397 2.7385762508460334 39.5 5.5 39.5 L 34.5 39.5 C 37.26142374915397 39.5 39.5 37.26142374915397 39.5 34.5 L 39.5 5.5 C 39.5 2.7385762508460334 37.26142374915397 0.5 34.5 0.5 L 5.5 0.5 C 2.7385762508460334 0.5 0.5 2.7385762508460334 0.5 5.5 z"/></g></g><g id="g374" transform="matrix(1, 0, 0, 1, 121.75, 213.1666717529297)"><clipPath id="clip10"><path id="path377" d="M -121.75 -213.1666717529297 L -121.75 132.5 L 244.25 132.5 L 244.25 -213.1666717529297 z"/></clipPath><g id="g379" clip-path="url(#clip10)"><text id="text381" x="0" y="0" fill="#000" fill-opacity="1" stroke="none" font-family="Arial" font-size="10.667" font-style="normal" font-weight="normal"><tspan id="tspan383" x="0" dy="9.5">1</tspan></text></g></g><g id="g385" stroke="url(#gradient-0)"><g id="g387" transform="matrix(1, 0, 0, 1, 19.5, 199.6666717529297)"><g id="g389" fill="url(#gradient-0)" fill-opacity="1" fill-rule="nonzero" stroke="none"><path id="path391" d="M 0.5 5.5 L 0.5 34.5 C 0.5 37.26142374915397 2.7385762508460334 39.5 5.5 39.5 L 34.5 39.5 C 37.26142374915397 39.5 39.5 37.26142374915397 39.5 34.5 L 39.5 5.5 C 39.5 2.7385762508460334 37.26142374915397 0.5 34.5 0.5 L 5.5 0.5 C 2.7385762508460334 0.5 0.5 2.7385762508460334 0.5 5.5 z"/></g></g><g id="g393" transform="matrix(1, 0, 0, 1, 19.5, 199.6666717529297)"><g id="g395" fill="none" stroke="#000" stroke-linecap="butt" stroke-opacity="1"><path id="path397" d="M 0.5 5.5 L 0.5 34.5 C 0.5 37.26142374915397 2.7385762508460334 39.5 5.5 39.5 L 34.5 39.5 C 37.26142374915397 39.5 39.5 37.26142374915397 39.5 34.5 L 39.5 5.5 C 39.5 2.7385762508460334 37.26142374915397 0.5 34.5 0.5 L 5.5 0.5 C 2.7385762508460334 0.5 0.5 2.7385762508460334 0.5 5.5 z"/></g></g><g id="g399" transform="matrix(1, 0, 0, 1, 36, 213.1666717529297)"><clipPath id="clip11"><path id="path402" d="M -36 -213.1666717529297 L -36 132.5 L 330 132.5 L 330 -213.1666717529297 z"/></clipPath><g id="g404" clip-path="url(#clip11)"><text id="text406" x="0" y="0" fill="#000" fill-opacity="1" stroke="none" font-family="Arial" font-size="10.667" font-style="normal" font-weight="normal"><tspan id="tspan408" x="0" dy="9.5">2</tspan></text></g></g><g id="g410" stroke="url(#gradient-0)"><g id="g412" transform="matrix(1, 0, 0, 1, 123.5, 293.6666717529297)"><g id="g414" fill="url(#gradient-0)" fill-opacity="1" fill-rule="nonzero" stroke="none"><path id="path416" d="M 0.5 5.5 L 0.5 34.5 C 0.5 37.26142374915397 2.7385762508460334 39.5 5.5 39.5 L 34.5 39.5 C 37.26142374915397 39.5 39.5 37.26142374915397 39.5 34.5 L 39.5 5.5 C 39.5 2.7385762508460334 37.26142374915397 0.5 34.5 0.5 L 5.5 0.5 C 2.7385762508460334 0.5 0.5 2.7385762508460334 0.5 5.5 z"/></g></g><g id="g418" transform="matrix(1, 0, 0, 1, 123.5, 293.6666717529297)"><g id="g420" fill="none" stroke="#000" stroke-linecap="butt" stroke-opacity="1"><path id="path422" d="M 0.5 5.5 L 0.5 34.5 C 0.5 37.26142374915397 2.7385762508460334 39.5 5.5 39.5 L 34.5 39.5 C 37.26142374915397 39.5 39.5 37.26142374915397 39.5 34.5 L 39.5 5.5 C 39.5 2.7385762508460334 37.26142374915397 0.5 34.5 0.5 L 5.5 0.5 C 2.7385762508460334 0.5 0.5 2.7385762508460334 0.5 5.5 z"/></g></g><g id="g424" transform="matrix(1, 0, 0, 1, 140, 307.1666717529297)"><clipPath id="clip12"><path id="path427" d="M -140 -307.1666717529297 L -140 38.5 L 226 38.5 L 226 -307.1666717529297 z"/></clipPath><g id="g429" clip-path="url(#clip12)"><text id="text431" x="0" y="0" fill="#000" fill-opacity="1" stroke="none" font-family="Arial" font-size="10.667" font-style="normal" font-weight="normal"><tspan id="tspan433" x="0" dy="9.5">3</tspan></text></g></g><g id="g435" stroke="url(#gradient-0)"><g id="g437" transform="matrix(1, 0, 0, 1, 46.5, 293.6666717529297)"><g id="g439" fill="url(#gradient-0)" fill-opacity="1" fill-rule="nonzero" stroke="none"><path id="path441" d="M 0.5 5.5 L 0.5 34.5 C 0.5 37.26142374915397 2.7385762508460334 39.5 5.5 39.5 L 34.5 39.5 C 37.26142374915397 39.5 39.5 37.26142374915397 39.5 34.5 L 39.5 5.5 C 39.5 2.7385762508460334 37.26142374915397 0.5 34.5 0.5 L 5.5 0.5 C 2.7385762508460334 0.5 0.5 2.7385762508460334 0.5 5.5 z"/></g></g><g id="g443" transform="matrix(1, 0, 0, 1, 46.5, 293.6666717529297)"><g id="g445" fill="none" stroke="#000" stroke-linecap="butt" stroke-opacity="1"><path id="path447" d="M 0.5 5.5 L 0.5 34.5 C 0.5 37.26142374915397 2.7385762508460334 39.5 5.5 39.5 L 34.5 39.5 C 37.26142374915397 39.5 39.5 37.26142374915397 39.5 34.5 L 39.5 5.5 C 39.5 2.7385762508460334 37.26142374915397 0.5 34.5 0.5 L 5.5 0.5 C 2.7385762508460334 0.5 0.5 2.7385762508460334 0.5 5.5 z"/></g></g><g id="g449" transform="matrix(1, 0, 0, 1, 63, 307.1666717529297)"><clipPath id="clip13"><path id="path452" d="M -63 -307.1666717529297 L -63 38.5 L 303 38.5 L 303 -307.1666717529297 z"/></clipPath><g id="g454" clip-path="url(#clip13)"><text id="text456" x="0" y="0" fill="#000" fill-opacity="1" stroke="none" font-family="Arial" font-size="10.667" font-style="normal" font-weight="normal"><tspan id="tspan458" x="0" dy="9.5">4</tspan></text></g></g><g id="g460" transform="matrix(1, 0, 0, 1, 0, 169.6666717529297)"><g id="g462" fill="none" stroke="#000" stroke-linecap="butt" stroke-opacity="1"><path id="path464" d="M 131.9166717529297 70 C 143.5 80 143.5 85 143.5 89.5 C 143.5 94 143.5 98 143.5 103 C 143.5 108 143.5 114 143.5 124"/></g></g><g id="g466" transform="matrix(-0.00000004371139024679, 0.999999999999999, -0.999999999999999, -0.00000004371139024679, 146.50000026226834, 285.6666718840639)"><g id="g468" fill="#000" fill-opacity="1" fill-rule="nonzero" stroke="none"><path id="path470" d="M 0 0 L 3.200000047683716 3 L 0 6 L 8 3 z"/></g></g><g id="g472" transform="matrix(-0.00000004371139024679, 0.999999999999999, -0.999999999999999, -0.00000004371139024679, 146.50000026226834, 285.6666718840639)"><g id="g474" fill="none" stroke="#000" stroke-linecap="butt" stroke-linejoin="round" stroke-opacity="1"><path id="path476" d="M 0 0 L 3.200000047683716 3 L 0 6 L 8 3 z"/></g></g><g id="g478" transform="matrix(1, 0, 0, 1, 133, 259.6666717529297)"><g id="g480" fill="#fff" fill-opacity=".863" fill-rule="nonzero" stroke="none"><path id="path482" d="M 0.5 0.5 L 24.5 0.5 L 24.5 13.5 L 0.5 13.5 L 0.5 0.5 z"/></g></g><g id="g484" transform="matrix(1, 0, 0, 1, 133, 259.6666717529297)"><g id="g486" fill="none" stroke="#000" stroke-linecap="butt" stroke-opacity="0"><path id="path488" d="M 0.5 0.5 L 24.5 0.5 L 24.5 13.5 L 0.5 13.5 L 0.5 0.5 z"/></g></g><g id="g490" transform="matrix(1, 0, 0, 1, 133, 259.6666717529297)"><g id="g492" fill="none" stroke="#646464" stroke-linecap="butt" stroke-opacity="1"><path id="path494" d="M 3 0 L 0 0 L 0 14 L 3 14"/></g></g><g id="g496" transform="matrix(1, 0, 0, 1, 155, 259.6666717529297)"><g id="g498" fill="none" stroke="#646464" stroke-linecap="butt" stroke-opacity="1"><path id="path500" d="M 0 0 L 3 0 L 3 14 L 0 14"/></g></g><g id="g502" transform="matrix(1, 0, 0, 1, 135, 259.6666717529297)"><clipPath id="clip14"><path id="path505" d="M -135 -259.6666717529297 L -135 86 L 231 86 L 231 -259.6666717529297 z"/></clipPath><g id="g507" clip-path="url(#clip14)"><text id="text509" x="0" y="0" fill="#000" fill-opacity="1" stroke="none" font-family="Arial" font-size="10.667" font-style="normal" font-weight="normal"><tspan id="tspan511" x="0" dy="9.5">One</tspan></text></g></g><g id="g513" transform="matrix(1, 0, 0, 1, 0, 169.6666717529297)"><g id="g515" fill="none" stroke="#000" stroke-linecap="butt" stroke-opacity="1"><path id="path517" d="M 118.58333587646484 70 C 107 80 107 85 107 88.66666412353516 C 107 92.33333587646484 107 94.66666412353516 107 97 C 107 99.33333587646484 107 101.66666412353516 107 105.33333587646484 C 107 109 107 114 76.5 124"/></g></g><g id="g519" transform="matrix(-0.9361984869183106, 0.351471752907493, -0.351471752907493, -0.9361984869183106, 85.04400311513794, 293.66349308672596)"><g id="g521" fill="#000" fill-opacity="1" fill-rule="nonzero" stroke="none"><path id="path523" d="M 0 0 L 3.200000047683716 3 L 0 6 L 8 3 z"/></g></g><g id="g525" transform="matrix(-0.9361984869183106, 0.351471752907493, -0.351471752907493, -0.9361984869183106, 85.04400311513794, 293.66349308672596)"><g id="g527" fill="none" stroke="#000" stroke-linecap="butt" stroke-linejoin="round" stroke-opacity="1"><path id="path529" d="M 0 0 L 3.200000047683716 3 L 0 6 L 8 3 z"/></g></g><g id="g531" transform="matrix(1, 0, 0, 1, 96, 259.6666717529297)"><g id="g533" fill="#fff" fill-opacity=".863" fill-rule="nonzero" stroke="none"><path id="path535" d="M 0.5 0.5 L 25.5 0.5 L 25.5 13.5 L 0.5 13.5 L 0.5 0.5 z"/></g></g><g id="g537" transform="matrix(1, 0, 0, 1, 96, 259.6666717529297)"><g id="g539" fill="none" stroke="#000" stroke-linecap="butt" stroke-opacity="0"><path id="path541" d="M 0.5 0.5 L 25.5 0.5 L 25.5 13.5 L 0.5 13.5 L 0.5 0.5 z"/></g></g><g id="g543" transform="matrix(1, 0, 0, 1, 96, 259.6666717529297)"><g id="g545" fill="none" stroke="#646464" stroke-linecap="butt" stroke-opacity="1"><path id="path547" d="M 3 0 L 0 0 L 0 14 L 3 14"/></g></g><g id="g549" transform="matrix(1, 0, 0, 1, 119, 259.6666717529297)"><g id="g551" fill="none" stroke="#646464" stroke-linecap="butt" stroke-opacity="1"><path id="path553" d="M 0 0 L 3 0 L 3 14 L 0 14"/></g></g><g id="g555" transform="matrix(1, 0, 0, 1, 98, 259.6666717529297)"><clipPath id="clip15"><path id="path558" d="M -98 -259.6666717529297 L -98 86 L 268 86 L 268 -259.6666717529297 z"/></clipPath><g id="g560" clip-path="url(#clip15)"><text id="text562" x="0" y="0" fill="#000" fill-opacity="1" stroke="none" font-family="Arial" font-size="10.667" font-style="normal" font-weight="normal"><tspan id="tspan564" x="0" dy="9.5">Two</tspan></text></g></g><g id="g566" transform="matrix(1, 0, 0, 1, 0, 169.6666717529297)"><g id="g568" fill="none" stroke="#000" stroke-linecap="butt" stroke-opacity="1"><path id="path570" d="M 46.16666793823242 70 C 66.5 80 66.5 85 66.5 89.5 C 66.5 94 66.5 98 66.5 103 C 66.5 108 66.5 114 66.5 124"/></g></g><g id="g572" transform="matrix(-0.00000004371139024679, 0.999999999999999, -0.999999999999999, -0.00000004371139024679, 69.50000026226834, 285.6666718840639)"><g id="g574" fill="#000" fill-opacity="1" fill-rule="nonzero" stroke="none"><path id="path576" d="M 0 0 L 3.200000047683716 3 L 0 6 L 8 3 z"/></g></g><g id="g578" transform="matrix(-0.00000004371139024679, 0.999999999999999, -0.999999999999999, -0.00000004371139024679, 69.50000026226834, 285.6666718840639)"><g id="g580" fill="none" stroke="#000" stroke-linecap="butt" stroke-linejoin="round" stroke-opacity="1"><path id="path582" d="M 0 0 L 3.200000047683716 3 L 0 6 L 8 3 z"/></g></g><g id="g584" transform="matrix(1, 0, 0, 1, 52, 259.6666717529297)"><g id="g586" fill="#fff" fill-opacity=".863" fill-rule="nonzero" stroke="none"><path id="path588" d="M 0.5 0.5 L 32.5 0.5 L 32.5 13.5 L 0.5 13.5 L 0.5 0.5 z"/></g></g><g id="g590" transform="matrix(1, 0, 0, 1, 52, 259.6666717529297)"><g id="g592" fill="none" stroke="#000" stroke-linecap="butt" stroke-opacity="0"><path id="path594" d="M 0.5 0.5 L 32.5 0.5 L 32.5 13.5 L 0.5 13.5 L 0.5 0.5 z"/></g></g><g id="g596" transform="matrix(1, 0, 0, 1, 52, 259.6666717529297)"><g id="g598" fill="none" stroke="#646464" stroke-linecap="butt" stroke-opacity="1"><path id="path600" d="M 3 0 L 0 0 L 0 14 L 3 14"/></g></g><g id="g602" transform="matrix(1, 0, 0, 1, 82, 259.6666717529297)"><g id="g604" fill="none" stroke="#646464" stroke-linecap="butt" stroke-opacity="1"><path id="path606" d="M 0 0 L 3 0 L 3 14 L 0 14"/></g></g><g id="g608" transform="matrix(1, 0, 0, 1, 54, 259.6666717529297)"><clipPath id="clip16"><path id="path611" d="M -54 -259.6666717529297 L -54 86 L 312 86 L 312 -259.6666717529297 z"/></clipPath><g id="g613" clip-path="url(#clip16)"><text id="text615" x="0" y="0" fill="#000" fill-opacity="1" stroke="none" font-family="Arial" font-size="10.667" font-style="normal" font-weight="normal"><tspan id="tspan617" x="0" dy="9.5">Three</tspan></text></g></g><g id="g619" transform="matrix(1, 0, 0, 1, 0, 169.6666717529297)"><g id="g621" fill="none" stroke="#000" stroke-linecap="butt" stroke-opacity="1"><path id="path623" d="M 56.5 124 C 26 114 26 109 26 105.33333587646484 C 26 101.66666412353516 26 99.33333587646484 26 97 C 26 94.66666412353516 26 92.33333587646484 26 88.66666412353516 C 26 85 26 80 32.83333206176758 70"/></g></g><g id="g625" transform="matrix(0.5124575798257845, -0.8587125414707181, 0.8587125414707181, 0.5124575798257845, 26.15753389235991, 244.99899940108259)"><g id="g627" fill="#000" fill-opacity="1" fill-rule="nonzero" stroke="none"><path id="path629" d="M 0 0 L 3.200000047683716 3 L 0 6 L 8 3 z"/></g></g><g id="g631" transform="matrix(0.5124575798257845, -0.8587125414707181, 0.8587125414707181, 0.5124575798257845, 26.15753389235991, 244.99899940108259)"><g id="g633" fill="none" stroke="#000" stroke-linecap="butt" stroke-linejoin="round" stroke-opacity="1"><path id="path635" d="M 0 0 L 3.200000047683716 3 L 0 6 L 8 3 z"/></g></g><g id="g637" transform="matrix(1, 0, 0, 1, 15, 259.6666717529297)"><g id="g639" fill="#fff" fill-opacity=".863" fill-rule="nonzero" stroke="none"><path id="path641" d="M 0.5 0.5 L 25.5 0.5 L 25.5 13.5 L 0.5 13.5 L 0.5 0.5 z"/></g></g><g id="g643" transform="matrix(1, 0, 0, 1, 15, 259.6666717529297)"><g id="g645" fill="none" stroke="#000" stroke-linecap="butt" stroke-opacity="0"><path id="path647" d="M 0.5 0.5 L 25.5 0.5 L 25.5 13.5 L 0.5 13.5 L 0.5 0.5 z"/></g></g><g id="g649" transform="matrix(1, 0, 0, 1, 15, 259.6666717529297)"><g id="g651" fill="none" stroke="#646464" stroke-linecap="butt" stroke-opacity="1"><path id="path653" d="M 3 0 L 0 0 L 0 14 L 3 14"/></g></g><g id="g655" transform="matrix(1, 0, 0, 1, 38, 259.6666717529297)"><g id="g657" fill="none" stroke="#646464" stroke-linecap="butt" stroke-opacity="1"><path id="path659" d="M 0 0 L 3 0 L 3 14 L 0 14"/></g></g><g id="g661" transform="matrix(1, 0, 0, 1, 17, 259.6666717529297)"><clipPath id="clip17"><path id="path664" d="M -17 -259.6666717529297 L -17 86 L 349 86 L 349 -259.6666717529297 z"/></clipPath><g id="g666" clip-path="url(#clip17)"><text id="text668" x="0" y="0" fill="#000" fill-opacity="1" stroke="none" font-family="Arial" font-size="10.667" font-style="normal" font-weight="normal"><tspan id="tspan670" x="0" dy="9.5">Four</tspan></text></g></g><g id="g672" transform="matrix(1, 0, 0, 1, 54.75, 174.6666717529297)"><clipPath id="clip18"><path id="path675" d="M -54.75 -174.6666717529297 L -54.75 171 L 311.25 171 L 311.25 -174.6666717529297 z"/></clipPath><g id="g677" clip-path="url(#clip18)"><text id="text679" x="0" y="0" fill="#000" fill-opacity="1" stroke="none" font-family="Arial" font-size="10.667" font-style="normal" font-weight="normal"><tspan id="tspan681" x="0" dy="9.5">top-to-bottom</tspan></text></g></g><g id="g683" stroke="url(#gradient-0)"><g id="g685" transform="matrix(1, 0, 0, 1, 189, 0)"><g id="g687" fill="url(#gradient-0)" fill-opacity="1" fill-rule="nonzero" stroke="none"><path id="path689" d="M 0.5 5.5 L 0.5 152.1666717529297 C 0.5 154.92809550208366 2.7385762508460334 157.1666717529297 5.5 157.1666717529297 L 171.5 157.1666717529297 C 174.26142374915398 157.1666717529297 176.5 154.92809550208366 176.5 152.1666717529297 L 176.5 5.5 C 176.5 2.7385762508460334 174.26142374915398 0.5 171.5 0.5 L 5.5 0.5 C 2.7385762508460334 0.5 0.5 2.7385762508460334 0.5 5.5 z"/></g></g><g id="g691" transform="matrix(1, 0, 0, 1, 189, 0)"><g id="g693" fill="none" stroke="#000" stroke-linecap="butt" stroke-opacity="1"><path id="path695" d="M 0.5 5.5 L 0.5 152.1666717529297 C 0.5 154.92809550208366 2.7385762508460334 157.1666717529297 5.5 157.1666717529297 L 171.5 157.1666717529297 C 174.26142374915398 157.1666717529297 176.5 154.92809550208366 176.5 152.1666717529297 L 176.5 5.5 C 176.5 2.7385762508460334 174.26142374915398 0.5 171.5 0.5 L 5.5 0.5 C 2.7385762508460334 0.5 0.5 2.7385762508460334 0.5 5.5 z"/></g></g><g id="g697" stroke="url(#gradient-0)"><g id="g699" transform="matrix(1, 0, 0, 1, 314, 93.16666412353516)"><g id="g701" fill="url(#gradient-0)" fill-opacity="1" fill-rule="nonzero" stroke="none"><path id="path703" d="M 0.5 5.5 L 0.5 34.5 C 0.5 37.26142374915397 2.7385762508460334 39.5 5.5 39.5 L 34.5 39.5 C 37.26142374915397 39.5 39.5 37.26142374915397 39.5 34.5 L 39.5 5.5 C 39.5 2.7385762508460334 37.26142374915397 0.5 34.5 0.5 L 5.5 0.5 C 2.7385762508460334 0.5 0.5 2.7385762508460334 0.5 5.5 z"/></g></g><g id="g705" transform="matrix(1, 0, 0, 1, 314, 93.16666412353516)"><g id="g707" fill="none" stroke="#000" stroke-linecap="butt" stroke-opacity="1"><path id="path709" d="M 0.5 5.5 L 0.5 34.5 C 0.5 37.26142374915397 2.7385762508460334 39.5 5.5 39.5 L 34.5 39.5 C 37.26142374915397 39.5 39.5 37.26142374915397 39.5 34.5 L 39.5 5.5 C 39.5 2.7385762508460334 37.26142374915397 0.5 34.5 0.5 L 5.5 0.5 C 2.7385762508460334 0.5 0.5 2.7385762508460334 0.5 5.5 z"/></g></g><g id="g711" transform="matrix(1, 0, 0, 1, 330.5, 106.66666412353516)"><clipPath id="clip19"><path id="path714" d="M -330.5 -106.66666412353516 L -330.5 239.00000762939453 L 35.5 239.00000762939453 L 35.5 -106.66666412353516 z"/></clipPath><g id="g716" clip-path="url(#clip19)"><text id="text718" x="0" y="0" fill="#000" fill-opacity="1" stroke="none" font-family="Arial" font-size="10.667" font-style="normal" font-weight="normal"><tspan id="tspan720" x="0" dy="9.5">1</tspan></text></g></g><g id="g722" stroke="url(#gradient-0)"><g id="g724" transform="matrix(1, 0, 0, 1, 314, 30)"><g id="g726" fill="url(#gradient-0)" fill-opacity="1" fill-rule="nonzero" stroke="none"><path id="path728" d="M 0.5 5.5 L 0.5 34.5 C 0.5 37.26142374915397 2.7385762508460334 39.5 5.5 39.5 L 34.5 39.5 C 37.26142374915397 39.5 39.5 37.26142374915397 39.5 34.5 L 39.5 5.5 C 39.5 2.7385762508460334 37.26142374915397 0.5 34.5 0.5 L 5.5 0.5 C 2.7385762508460334 0.5 0.5 2.7385762508460334 0.5 5.5 z"/></g></g><g id="g730" transform="matrix(1, 0, 0, 1, 314, 30)"><g id="g732" fill="none" stroke="#000" stroke-linecap="butt" stroke-opacity="1"><path id="path734" d="M 0.5 5.5 L 0.5 34.5 C 0.5 37.26142374915397 2.7385762508460334 39.5 5.5 39.5 L 34.5 39.5 C 37.26142374915397 39.5 39.5 37.26142374915397 39.5 34.5 L 39.5 5.5 C 39.5 2.7385762508460334 37.26142374915397 0.5 34.5 0.5 L 5.5 0.5 C 2.7385762508460334 0.5 0.5 2.7385762508460334 0.5 5.5 z"/></g></g><g id="g736" transform="matrix(1, 0, 0, 1, 330.5, 43.5)"><clipPath id="clip20"><path id="path739" d="M -330.5 -43.5 L -330.5 302.1666717529297 L 35.5 302.1666717529297 L 35.5 -43.5 z"/></clipPath><g id="g741" clip-path="url(#clip20)"><text id="text743" x="0" y="0" fill="#000" fill-opacity="1" stroke="none" font-family="Arial" font-size="10.667" font-style="normal" font-weight="normal"><tspan id="tspan745" x="0" dy="9.5">2</tspan></text></g></g><g id="g747" stroke="url(#gradient-0)"><g id="g749" transform="matrix(1, 0, 0, 1, 201, 105.66666412353516)"><g id="g751" fill="url(#gradient-0)" fill-opacity="1" fill-rule="nonzero" stroke="none"><path id="path753" d="M 0.5 5.5 L 0.5 34.5 C 0.5 37.26142374915397 2.7385762508460334 39.5 5.5 39.5 L 34.5 39.5 C 37.26142374915397 39.5 39.5 37.26142374915397 39.5 34.5 L 39.5 5.5 C 39.5 2.7385762508460334 37.26142374915397 0.5 34.5 0.5 L 5.5 0.5 C 2.7385762508460334 0.5 0.5 2.7385762508460334 0.5 5.5 z"/></g></g><g id="g755" transform="matrix(1, 0, 0, 1, 201, 105.66666412353516)"><g id="g757" fill="none" stroke="#000" stroke-linecap="butt" stroke-opacity="1"><path id="path759" d="M 0.5 5.5 L 0.5 34.5 C 0.5 37.26142374915397 2.7385762508460334 39.5 5.5 39.5 L 34.5 39.5 C 37.26142374915397 39.5 39.5 37.26142374915397 39.5 34.5 L 39.5 5.5 C 39.5 2.7385762508460334 37.26142374915397 0.5 34.5 0.5 L 5.5 0.5 C 2.7385762508460334 0.5 0.5 2.7385762508460334 0.5 5.5 z"/></g></g><g id="g761" transform="matrix(1, 0, 0, 1, 217.5, 119.16666412353516)"><clipPath id="clip21"><path id="path764" d="M -217.5 -119.16666412353516 L -217.5 226.50000762939453 L 148.5 226.50000762939453 L 148.5 -119.16666412353516 z"/></clipPath><g id="g766" clip-path="url(#clip21)"><text id="text768" x="0" y="0" fill="#000" fill-opacity="1" stroke="none" font-family="Arial" font-size="10.667" font-style="normal" font-weight="normal"><tspan id="tspan770" x="0" dy="9.5">3</tspan></text></g></g><g id="g772" stroke="url(#gradient-0)"><g id="g774" transform="matrix(1, 0, 0, 1, 201, 43)"><g id="g776" fill="url(#gradient-0)" fill-opacity="1" fill-rule="nonzero" stroke="none"><path id="path778" d="M 0.5 5.5 L 0.5 34.5 C 0.5 37.26142374915397 2.7385762508460334 39.5 5.5 39.5 L 34.5 39.5 C 37.26142374915397 39.5 39.5 37.26142374915397 39.5 34.5 L 39.5 5.5 C 39.5 2.7385762508460334 37.26142374915397 0.5 34.5 0.5 L 5.5 0.5 C 2.7385762508460334 0.5 0.5 2.7385762508460334 0.5 5.5 z"/></g></g><g id="g780" transform="matrix(1, 0, 0, 1, 201, 43)"><g id="g782" fill="none" stroke="#000" stroke-linecap="butt" stroke-opacity="1"><path id="path784" d="M 0.5 5.5 L 0.5 34.5 C 0.5 37.26142374915397 2.7385762508460334 39.5 5.5 39.5 L 34.5 39.5 C 37.26142374915397 39.5 39.5 37.26142374915397 39.5 34.5 L 39.5 5.5 C 39.5 2.7385762508460334 37.26142374915397 0.5 34.5 0.5 L 5.5 0.5 C 2.7385762508460334 0.5 0.5 2.7385762508460334 0.5 5.5 z"/></g></g><g id="g786" transform="matrix(1, 0, 0, 1, 217.5, 56.5)"><clipPath id="clip22"><path id="path789" d="M -217.5 -56.5 L -217.5 289.1666717529297 L 148.5 289.1666717529297 L 148.5 -56.5 z"/></clipPath><g id="g791" clip-path="url(#clip22)"><text id="text793" x="0" y="0" fill="#000" fill-opacity="1" stroke="none" font-family="Arial" font-size="10.667" font-style="normal" font-weight="normal"><tspan id="tspan795" x="0" dy="9.5">4</tspan></text></g></g><g id="g797" transform="matrix(1, 0, 0, 1, 189, 0)"><g id="g799" fill="none" stroke="#000" stroke-linecap="butt" stroke-opacity="1"><path id="path801" d="M 125 119.83333587646484 C 115 125.66666412353516 110 125.66666412353516 103.91666412353516 125.66666412353516 C 97.83333587646484 125.66666412353516 90.66666412353516 125.66666412353516 81.70833587646484 125.66666412353516 C 72.75 125.66666412353516 62 125.66666412353516 52 125.66666412353516"/></g></g><g id="g803" transform="matrix(-0.9999999999999962, -0.00000008742278024865, 0.00000008742278024865, -0.9999999999999962, 248.99999973773163, 128.66666464807182)"><g id="g805" fill="#000" fill-opacity="1" fill-rule="nonzero" stroke="none"><path id="path807" d="M 0 0 L 3.200000047683716 3 L 0 6 L 8 3 z"/></g></g><g id="g809" transform="matrix(-0.9999999999999962, -0.00000008742278024865, 0.00000008742278024865, -0.9999999999999962, 248.99999973773163, 128.66666464807182)"><g id="g811" fill="none" stroke="#000" stroke-linecap="butt" stroke-linejoin="round" stroke-opacity="1"><path id="path813" d="M 0 0 L 3.200000047683716 3 L 0 6 L 8 3 z"/></g></g><g id="g815" transform="matrix(1, 0, 0, 1, 265, 118.66666412353516)"><g id="g817" fill="#fff" fill-opacity=".863" fill-rule="nonzero" stroke="none"><path id="path819" d="M 0.5 0.5 L 24.5 0.5 L 24.5 13.5 L 0.5 13.5 L 0.5 0.5 z"/></g></g><g id="g821" transform="matrix(1, 0, 0, 1, 265, 118.66666412353516)"><g id="g823" fill="none" stroke="#000" stroke-linecap="butt" stroke-opacity="0"><path id="path825" d="M 0.5 0.5 L 24.5 0.5 L 24.5 13.5 L 0.5 13.5 L 0.5 0.5 z"/></g></g><g id="g827" transform="matrix(1, 0, 0, 1, 265, 118.66666412353516)"><g id="g829" fill="none" stroke="#646464" stroke-linecap="butt" stroke-opacity="1"><path id="path831" d="M 3 0 L 0 0 L 0 14 L 3 14"/></g></g><g id="g833" transform="matrix(1, 0, 0, 1, 287, 118.66666412353516)"><g id="g835" fill="none" stroke="#646464" stroke-linecap="butt" stroke-opacity="1"><path id="path837" d="M 0 0 L 3 0 L 3 14 L 0 14"/></g></g><g id="g839" transform="matrix(1, 0, 0, 1, 267, 118.66666412353516)"><clipPath id="clip23"><path id="path842" d="M -267 -118.66666412353516 L -267 227.00000762939453 L 99 227.00000762939453 L 99 -118.66666412353516 z"/></clipPath><g id="g844" clip-path="url(#clip23)"><text id="text846" x="0" y="0" fill="#000" fill-opacity="1" stroke="none" font-family="Arial" font-size="10.667" font-style="normal" font-weight="normal"><tspan id="tspan848" x="0" dy="9.5">One</tspan></text></g></g><g id="g850" transform="matrix(1, 0, 0, 1, 189, 0)"><g id="g852" fill="none" stroke="#000" stroke-linecap="butt" stroke-opacity="1"><path id="path854" d="M 125 106.5 C 115 100.66666412353516 110 100.66666412353516 104.75 100.66666412353516 C 99.5 100.66666412353516 94 100.66666412353516 88.5 100.66666412353516 C 83 100.66666412353516 77.5 100.66666412353516 72.25 100.66666412353516 C 67 100.66666412353516 62 100.66666412353516 52 73"/></g></g><g id="g856" transform="matrix(-0.3836330022952461, -0.9234856358113729, 0.9234856358113729, -0.3836330022952461, 241.2986071315659, 81.5387840848033)"><g id="g858" fill="#000" fill-opacity="1" fill-rule="nonzero" stroke="none"><path id="path860" d="M 0 0 L 3.200000047683716 3 L 0 6 L 8 3 z"/></g></g><g id="g862" transform="matrix(-0.3836330022952461, -0.9234856358113729, 0.9234856358113729, -0.3836330022952461, 241.2986071315659, 81.5387840848033)"><g id="g864" fill="none" stroke="#000" stroke-linecap="butt" stroke-linejoin="round" stroke-opacity="1"><path id="path866" d="M 0 0 L 3.200000047683716 3 L 0 6 L 8 3 z"/></g></g><g id="g868" transform="matrix(1, 0, 0, 1, 264.5, 93.66666412353516)"><g id="g870" fill="#fff" fill-opacity=".863" fill-rule="nonzero" stroke="none"><path id="path872" d="M 0.5 0.5 L 25.5 0.5 L 25.5 13.5 L 0.5 13.5 L 0.5 0.5 z"/></g></g><g id="g874" transform="matrix(1, 0, 0, 1, 264.5, 93.66666412353516)"><g id="g876" fill="none" stroke="#000" stroke-linecap="butt" stroke-opacity="0"><path id="path878" d="M 0.5 0.5 L 25.5 0.5 L 25.5 13.5 L 0.5 13.5 L 0.5 0.5 z"/></g></g><g id="g880" transform="matrix(1, 0, 0, 1, 264.5, 93.66666412353516)"><g id="g882" fill="none" stroke="#646464" stroke-linecap="butt" stroke-opacity="1"><path id="path884" d="M 3 0 L 0 0 L 0 14 L 3 14"/></g></g><g id="g886" transform="matrix(1, 0, 0, 1, 287.5, 93.66666412353516)"><g id="g888" fill="none" stroke="#646464" stroke-linecap="butt" stroke-opacity="1"><path id="path890" d="M 0 0 L 3 0 L 3 14 L 0 14"/></g></g><g id="g892" transform="matrix(1, 0, 0, 1, 266.5, 93.66666412353516)"><clipPath id="clip24"><path id="path895" d="M -266.5 -93.66666412353516 L -266.5 252.00000762939453 L 99.5 252.00000762939453 L 99.5 -93.66666412353516 z"/></clipPath><g id="g897" clip-path="url(#clip24)"><text id="text899" x="0" y="0" fill="#000" fill-opacity="1" stroke="none" font-family="Arial" font-size="10.667" font-style="normal" font-weight="normal"><tspan id="tspan901" x="0" dy="9.5">Two</tspan></text></g></g><g id="g903" transform="matrix(1, 0, 0, 1, 189, 0)"><g id="g905" fill="none" stroke="#000" stroke-linecap="butt" stroke-opacity="1"><path id="path907" d="M 125 56.66666793823242 C 115 65.66666412353516 110 65.66666412353516 104.75 65.66666412353516 C 99.5 65.66666412353516 94 65.66666412353516 88.5 65.66666412353516 C 83 65.66666412353516 77.5 65.66666412353516 72.25 65.66666412353516 C 67 65.66666412353516 62 65.66666412353516 52 63"/></g></g><g id="g909" transform="matrix(-0.9813329144769194, -0.19231669445015712, 0.19231669445015712, -0.9813329144769194, 248.27371319550554, 67.48253248762414)"><g id="g911" fill="#000" fill-opacity="1" fill-rule="nonzero" stroke="none"><path id="path913" d="M 0 0 L 3.200000047683716 3 L 0 6 L 8 3 z"/></g></g><g id="g915" transform="matrix(-0.9813329144769194, -0.19231669445015712, 0.19231669445015712, -0.9813329144769194, 248.27371319550554, 67.48253248762414)"><g id="g917" fill="none" stroke="#000" stroke-linecap="butt" stroke-linejoin="round" stroke-opacity="1"><path id="path919" d="M 0 0 L 3.200000047683716 3 L 0 6 L 8 3 z"/></g></g><g id="g921" transform="matrix(1, 0, 0, 1, 261, 58.66666793823242)"><g id="g923" fill="#fff" fill-opacity=".863" fill-rule="nonzero" stroke="none"><path id="path925" d="M 0.5 0.5 L 32.5 0.5 L 32.5 13.5 L 0.5 13.5 L 0.5 0.5 z"/></g></g><g id="g927" transform="matrix(1, 0, 0, 1, 261, 58.66666793823242)"><g id="g929" fill="none" stroke="#000" stroke-linecap="butt" stroke-opacity="0"><path id="path931" d="M 0.5 0.5 L 32.5 0.5 L 32.5 13.5 L 0.5 13.5 L 0.5 0.5 z"/></g></g><g id="g933" transform="matrix(1, 0, 0, 1, 261, 58.66666793823242)"><g id="g935" fill="none" stroke="#646464" stroke-linecap="butt" stroke-opacity="1"><path id="path937" d="M 3 0 L 0 0 L 0 14 L 3 14"/></g></g><g id="g939" transform="matrix(1, 0, 0, 1, 291, 58.66666793823242)"><g id="g941" fill="none" stroke="#646464" stroke-linecap="butt" stroke-opacity="1"><path id="path943" d="M 0 0 L 3 0 L 3 14 L 0 14"/></g></g><g id="g945" transform="matrix(1, 0, 0, 1, 263, 58.66666793823242)"><clipPath id="clip25"><path id="path948" d="M -263 -58.66666793823242 L -263 287.00000381469727 L 103 287.00000381469727 L 103 -58.66666793823242 z"/></clipPath><g id="g950" clip-path="url(#clip25)"><text id="text952" x="0" y="0" fill="#000" fill-opacity="1" stroke="none" font-family="Arial" font-size="10.667" font-style="normal" font-weight="normal"><tspan id="tspan954" x="0" dy="9.5">Three</tspan></text></g></g><g id="g956" transform="matrix(1, 0, 0, 1, 189, 0)"><g id="g958" fill="none" stroke="#000" stroke-linecap="butt" stroke-opacity="1"><path id="path960" d="M 52 53 C 62 40.66666793823242 67 40.66666793823242 72.25 40.66666793823242 C 77.5 40.66666793823242 83 40.66666793823242 88.5 40.66666793823242 C 94 40.66666793823242 99.5 40.66666793823242 104.75 40.66666793823242 C 110 40.66666793823242 115 40.66666793823242 125 43.33333206176758"/></g></g><g id="g962" transform="matrix(0.9813328374833974, 0.19231708732399203, -0.19231708732399203, 0.9813328374833974, 306.72628856375377, 38.850796842311325)"><g id="g964" fill="#000" fill-opacity="1" fill-rule="nonzero" stroke="none"><path id="path966" d="M 0 0 L 3.200000047683716 3 L 0 6 L 8 3 z"/></g></g><g id="g968" transform="matrix(0.9813328374833974, 0.19231708732399203, -0.19231708732399203, 0.9813328374833974, 306.72628856375377, 38.850796842311325)"><g id="g970" fill="none" stroke="#000" stroke-linecap="butt" stroke-linejoin="round" stroke-opacity="1"><path id="path972" d="M 0 0 L 3.200000047683716 3 L 0 6 L 8 3 z"/></g></g><g id="g974" transform="matrix(1, 0, 0, 1, 264.5, 33.66666793823242)"><g id="g976" fill="#fff" fill-opacity=".863" fill-rule="nonzero" stroke="none"><path id="path978" d="M 0.5 0.5 L 25.5 0.5 L 25.5 13.5 L 0.5 13.5 L 0.5 0.5 z"/></g></g><g id="g980" transform="matrix(1, 0, 0, 1, 264.5, 33.66666793823242)"><g id="g982" fill="none" stroke="#000" stroke-linecap="butt" stroke-opacity="0"><path id="path984" d="M 0.5 0.5 L 25.5 0.5 L 25.5 13.5 L 0.5 13.5 L 0.5 0.5 z"/></g></g><g id="g986" transform="matrix(1, 0, 0, 1, 264.5, 33.66666793823242)"><g id="g988" fill="none" stroke="#646464" stroke-linecap="butt" stroke-opacity="1"><path id="path990" d="M 3 0 L 0 0 L 0 14 L 3 14"/></g></g><g id="g992" transform="matrix(1, 0, 0, 1, 287.5, 33.66666793823242)"><g id="g994" fill="none" stroke="#646464" stroke-linecap="butt" stroke-opacity="1"><path id="path996" d="M 0 0 L 3 0 L 3 14 L 0 14"/></g></g><g id="g998" transform="matrix(1, 0, 0, 1, 266.5, 33.66666793823242)"><clipPath id="clip26"><path id="path1001" d="M -266.5 -33.66666793823242 L -266.5 312.00000381469727 L 99.5 312.00000381469727 L 99.5 -33.66666793823242 z"/></clipPath><g id="g1003" clip-path="url(#clip26)"><text id="text1005" x="0" y="0" fill="#000" fill-opacity="1" stroke="none" font-family="Arial" font-size="10.667" font-style="normal" font-weight="normal"><tspan id="tspan1007" x="0" dy="9.5">Four</tspan></text></g></g><g id="g1009" transform="matrix(1, 0, 0, 1, 250.5, 5)"><clipPath id="clip27"><path id="path1012" d="M -250.5 -5 L -250.5 340.6666717529297 L 115.5 340.6666717529297 L 115.5 -5 z"/></clipPath><g id="g1014" clip-path="url(#clip27)"><text id="text1016" x="0" y="0" fill="#000" fill-opacity="1" stroke="none" font-family="Arial" font-size="10.667" font-style="normal" font-weight="normal"><tspan id="tspan1018" x="0" dy="9.5">right-to-left</tspan></text></g></g><g id="g1020" stroke="url(#gradient-0)"><g id="g1022" transform="matrix(1, 0, 0, 1, 187.5, 169.6666717529297)"><g id="g1024" fill="url(#gradient-0)" fill-opacity="1" fill-rule="nonzero" stroke="none"><path id="path1026" d="M 0.5 5.5 L 0.5 170.5 C 0.5 173.26142374915398 2.7385762508460334 175.5 5.5 175.5 L 170 175.5 C 172.76142374915398 175.5 175 173.26142374915398 175 170.5 L 175 5.5 C 175 2.7385762508460334 172.76142374915398 0.5 170 0.5 L 5.5 0.5 C 2.7385762508460334 0.5 0.5 2.7385762508460334 0.5 5.5 z"/></g></g><g id="g1028" transform="matrix(1, 0, 0, 1, 187.5, 169.6666717529297)"><g id="g1030" fill="none" stroke="#000" stroke-linecap="butt" stroke-opacity="1"><path id="path1032" d="M 0.5 5.5 L 0.5 170.5 C 0.5 173.26142374915398 2.7385762508460334 175.5 5.5 175.5 L 170 175.5 C 172.76142374915398 175.5 175 173.26142374915398 175 170.5 L 175 5.5 C 175 2.7385762508460334 172.76142374915398 0.5 170 0.5 L 5.5 0.5 C 2.7385762508460334 0.5 0.5 2.7385762508460334 0.5 5.5 z"/></g></g><g id="g1034" stroke="url(#gradient-0)"><g id="g1036" transform="matrix(1, 0, 0, 1, 217.75, 293.6666717529297)"><g id="g1038" fill="url(#gradient-0)" fill-opacity="1" fill-rule="nonzero" stroke="none"><path id="path1040" d="M 0.5 5.5 L 0.5 34.5 C 0.5 37.26142374915397 2.7385762508460334 39.5 5.5 39.5 L 34.5 39.5 C 37.26142374915397 39.5 39.5 37.26142374915397 39.5 34.5 L 39.5 5.5 C 39.5 2.7385762508460334 37.26142374915397 0.5 34.5 0.5 L 5.5 0.5 C 2.7385762508460334 0.5 0.5 2.7385762508460334 0.5 5.5 z"/></g></g><g id="g1042" transform="matrix(1, 0, 0, 1, 217.75, 293.6666717529297)"><g id="g1044" fill="none" stroke="#000" stroke-linecap="butt" stroke-opacity="1"><path id="path1046" d="M 0.5 5.5 L 0.5 34.5 C 0.5 37.26142374915397 2.7385762508460334 39.5 5.5 39.5 L 34.5 39.5 C 37.26142374915397 39.5 39.5 37.26142374915397 39.5 34.5 L 39.5 5.5 C 39.5 2.7385762508460334 37.26142374915397 0.5 34.5 0.5 L 5.5 0.5 C 2.7385762508460334 0.5 0.5 2.7385762508460334 0.5 5.5 z"/></g></g><g id="g1048" transform="matrix(1, 0, 0, 1, 234.25, 307.1666717529297)"><clipPath id="clip28"><path id="path1051" d="M -234.25 -307.1666717529297 L -234.25 38.5 L 131.75 38.5 L 131.75 -307.1666717529297 z"/></clipPath><g id="g1053" clip-path="url(#clip28)"><text id="text1055" x="0" y="0" fill="#000" fill-opacity="1" stroke="none" font-family="Arial" font-size="10.667" font-style="normal" font-weight="normal"><tspan id="tspan1057" x="0" dy="9.5">1</tspan></text></g></g><g id="g1059" stroke="url(#gradient-0)"><g id="g1061" transform="matrix(1, 0, 0, 1, 303.5, 293.6666717529297)"><g id="g1063" fill="url(#gradient-0)" fill-opacity="1" fill-rule="nonzero" stroke="none"><path id="path1065" d="M 0.5 5.5 L 0.5 34.5 C 0.5 37.26142374915397 2.7385762508460334 39.5 5.5 39.5 L 34.5 39.5 C 37.26142374915397 39.5 39.5 37.26142374915397 39.5 34.5 L 39.5 5.5 C 39.5 2.7385762508460334 37.26142374915397 0.5 34.5 0.5 L 5.5 0.5 C 2.7385762508460334 0.5 0.5 2.7385762508460334 0.5 5.5 z"/></g></g><g id="g1067" transform="matrix(1, 0, 0, 1, 303.5, 293.6666717529297)"><g id="g1069" fill="none" stroke="#000" stroke-linecap="butt" stroke-opacity="1"><path id="path1071" d="M 0.5 5.5 L 0.5 34.5 C 0.5 37.26142374915397 2.7385762508460334 39.5 5.5 39.5 L 34.5 39.5 C 37.26142374915397 39.5 39.5 37.26142374915397 39.5 34.5 L 39.5 5.5 C 39.5 2.7385762508460334 37.26142374915397 0.5 34.5 0.5 L 5.5 0.5 C 2.7385762508460334 0.5 0.5 2.7385762508460334 0.5 5.5 z"/></g></g><g id="g1073" transform="matrix(1, 0, 0, 1, 320, 307.1666717529297)"><clipPath id="clip29"><path id="path1076" d="M -320 -307.1666717529297 L -320 38.5 L 46 38.5 L 46 -307.1666717529297 z"/></clipPath><g id="g1078" clip-path="url(#clip29)"><text id="text1080" x="0" y="0" fill="#000" fill-opacity="1" stroke="none" font-family="Arial" font-size="10.667" font-style="normal" font-weight="normal"><tspan id="tspan1082" x="0" dy="9.5">2</tspan></text></g></g><g id="g1084" stroke="url(#gradient-0)"><g id="g1086" transform="matrix(1, 0, 0, 1, 199.5, 199.6666717529297)"><g id="g1088" fill="url(#gradient-0)" fill-opacity="1" fill-rule="nonzero" stroke="none"><path id="path1090" d="M 0.5 5.5 L 0.5 34.5 C 0.5 37.26142374915397 2.7385762508460334 39.5 5.5 39.5 L 34.5 39.5 C 37.26142374915397 39.5 39.5 37.26142374915397 39.5 34.5 L 39.5 5.5 C 39.5 2.7385762508460334 37.26142374915397 0.5 34.5 0.5 L 5.5 0.5 C 2.7385762508460334 0.5 0.5 2.7385762508460334 0.5 5.5 z"/></g></g><g id="g1092" transform="matrix(1, 0, 0, 1, 199.5, 199.6666717529297)"><g id="g1094" fill="none" stroke="#000" stroke-linecap="butt" stroke-opacity="1"><path id="path1096" d="M 0.5 5.5 L 0.5 34.5 C 0.5 37.26142374915397 2.7385762508460334 39.5 5.5 39.5 L 34.5 39.5 C 37.26142374915397 39.5 39.5 37.26142374915397 39.5 34.5 L 39.5 5.5 C 39.5 2.7385762508460334 37.26142374915397 0.5 34.5 0.5 L 5.5 0.5 C 2.7385762508460334 0.5 0.5 2.7385762508460334 0.5 5.5 z"/></g></g><g id="g1098" transform="matrix(1, 0, 0, 1, 216, 213.1666717529297)"><clipPath id="clip30"><path id="path1101" d="M -216 -213.1666717529297 L -216 132.5 L 150 132.5 L 150 -213.1666717529297 z"/></clipPath><g id="g1103" clip-path="url(#clip30)"><text id="text1105" x="0" y="0" fill="#000" fill-opacity="1" stroke="none" font-family="Arial" font-size="10.667" font-style="normal" font-weight="normal"><tspan id="tspan1107" x="0" dy="9.5">3</tspan></text></g></g><g id="g1109" stroke="url(#gradient-0)"><g id="g1111" transform="matrix(1, 0, 0, 1, 276.5, 199.6666717529297)"><g id="g1113" fill="url(#gradient-0)" fill-opacity="1" fill-rule="nonzero" stroke="none"><path id="path1115" d="M 0.5 5.5 L 0.5 34.5 C 0.5 37.26142374915397 2.7385762508460334 39.5 5.5 39.5 L 34.5 39.5 C 37.26142374915397 39.5 39.5 37.26142374915397 39.5 34.5 L 39.5 5.5 C 39.5 2.7385762508460334 37.26142374915397 0.5 34.5 0.5 L 5.5 0.5 C 2.7385762508460334 0.5 0.5 2.7385762508460334 0.5 5.5 z"/></g></g><g id="g1117" transform="matrix(1, 0, 0, 1, 276.5, 199.6666717529297)"><g id="g1119" fill="none" stroke="#000" stroke-linecap="butt" stroke-opacity="1"><path id="path1121" d="M 0.5 5.5 L 0.5 34.5 C 0.5 37.26142374915397 2.7385762508460334 39.5 5.5 39.5 L 34.5 39.5 C 37.26142374915397 39.5 39.5 37.26142374915397 39.5 34.5 L 39.5 5.5 C 39.5 2.7385762508460334 37.26142374915397 0.5 34.5 0.5 L 5.5 0.5 C 2.7385762508460334 0.5 0.5 2.7385762508460334 0.5 5.5 z"/></g></g><g id="g1123" transform="matrix(1, 0, 0, 1, 293, 213.1666717529297)"><clipPath id="clip31"><path id="path1126" d="M -293 -213.1666717529297 L -293 132.5 L 73 132.5 L 73 -213.1666717529297 z"/></clipPath><g id="g1128" clip-path="url(#clip31)"><text id="text1130" x="0" y="0" fill="#000" fill-opacity="1" stroke="none" font-family="Arial" font-size="10.667" font-style="normal" font-weight="normal"><tspan id="tspan1132" x="0" dy="9.5">4</tspan></text></g></g><g id="g1134" transform="matrix(1, 0, 0, 1, 187.5, 169.6666717529297)"><g id="g1136" fill="none" stroke="#000" stroke-linecap="butt" stroke-opacity="1"><path id="path1138" d="M 43.58333206176758 124 C 32 114 32 109 32 104.5 C 32 100 32 96 32 91 C 32 86 32 80 32 70"/></g></g><g id="g1140" transform="matrix(-0.00000004371138975693, -0.999999999999999, 0.999999999999999, -0.00000004371138975693, 216.50000026226834, 247.66667188406385)"><g id="g1142" fill="#000" fill-opacity="1" fill-rule="nonzero" stroke="none"><path id="path1144" d="M 0 0 L 3.200000047683716 3 L 0 6 L 8 3 z"/></g></g><g id="g1146" transform="matrix(-0.00000004371138975693, -0.999999999999999, 0.999999999999999, -0.00000004371138975693, 216.50000026226834, 247.66667188406385)"><g id="g1148" fill="none" stroke="#000" stroke-linecap="butt" stroke-linejoin="round" stroke-opacity="1"><path id="path1150" d="M 0 0 L 3.200000047683716 3 L 0 6 L 8 3 z"/></g></g><g id="g1152" transform="matrix(1, 0, 0, 1, 205, 259.6666717529297)"><g id="g1154" fill="#fff" fill-opacity=".863" fill-rule="nonzero" stroke="none"><path id="path1156" d="M 0.5 0.5 L 24.5 0.5 L 24.5 13.5 L 0.5 13.5 L 0.5 0.5 z"/></g></g><g id="g1158" transform="matrix(1, 0, 0, 1, 205, 259.6666717529297)"><g id="g1160" fill="none" stroke="#000" stroke-linecap="butt" stroke-opacity="0"><path id="path1162" d="M 0.5 0.5 L 24.5 0.5 L 24.5 13.5 L 0.5 13.5 L 0.5 0.5 z"/></g></g><g id="g1164" transform="matrix(1, 0, 0, 1, 205, 259.6666717529297)"><g id="g1166" fill="none" stroke="#646464" stroke-linecap="butt" stroke-opacity="1"><path id="path1168" d="M 3 0 L 0 0 L 0 14 L 3 14"/></g></g><g id="g1170" transform="matrix(1, 0, 0, 1, 227, 259.6666717529297)"><g id="g1172" fill="none" stroke="#646464" stroke-linecap="butt" stroke-opacity="1"><path id="path1174" d="M 0 0 L 3 0 L 3 14 L 0 14"/></g></g><g id="g1176" transform="matrix(1, 0, 0, 1, 207, 259.6666717529297)"><clipPath id="clip32"><path id="path1179" d="M -207 -259.6666717529297 L -207 86 L 159 86 L 159 -259.6666717529297 z"/></clipPath><g id="g1181" clip-path="url(#clip32)"><text id="text1183" x="0" y="0" fill="#000" fill-opacity="1" stroke="none" font-family="Arial" font-size="10.667" font-style="normal" font-weight="normal"><tspan id="tspan1185" x="0" dy="9.5">One</tspan></text></g></g><g id="g1187" transform="matrix(1, 0, 0, 1, 187.5, 169.6666717529297)"><g id="g1189" fill="none" stroke="#000" stroke-linecap="butt" stroke-opacity="1"><path id="path1191" d="M 56.91666793823242 124 C 68.5 114 68.5 109 68.5 105.33333587646484 C 68.5 101.66666412353516 68.5 99.33333587646484 68.5 97 C 68.5 94.66666412353516 68.5 92.33333587646484 68.5 88.66666412353516 C 68.5 85 68.5 80 99 70"/></g></g><g id="g1193" transform="matrix(0.9361984666663458, -0.35147180685167767, 0.35147180685167767, 0.9361984666663458, 277.9559968445413, 239.66985080355443)"><g id="g1195" fill="#000" fill-opacity="1" fill-rule="nonzero" stroke="none"><path id="path1197" d="M 0 0 L 3.200000047683716 3 L 0 6 L 8 3 z"/></g></g><g id="g1199" transform="matrix(0.9361984666663458, -0.35147180685167767, 0.35147180685167767, 0.9361984666663458, 277.9559968445413, 239.66985080355443)"><g id="g1201" fill="none" stroke="#000" stroke-linecap="butt" stroke-linejoin="round" stroke-opacity="1"><path id="path1203" d="M 0 0 L 3.200000047683716 3 L 0 6 L 8 3 z"/></g></g><g id="g1205" transform="matrix(1, 0, 0, 1, 241, 259.6666717529297)"><g id="g1207" fill="#fff" fill-opacity=".863" fill-rule="nonzero" stroke="none"><path id="path1209" d="M 0.5 0.5 L 25.5 0.5 L 25.5 13.5 L 0.5 13.5 L 0.5 0.5 z"/></g></g><g id="g1211" transform="matrix(1, 0, 0, 1, 241, 259.6666717529297)"><g id="g1213" fill="none" stroke="#000" stroke-linecap="butt" stroke-opacity="0"><path id="path1215" d="M 0.5 0.5 L 25.5 0.5 L 25.5 13.5 L 0.5 13.5 L 0.5 0.5 z"/></g></g><g id="g1217" transform="matrix(1, 0, 0, 1, 241, 259.6666717529297)"><g id="g1219" fill="none" stroke="#646464" stroke-linecap="butt" stroke-opacity="1"><path id="path1221" d="M 3 0 L 0 0 L 0 14 L 3 14"/></g></g><g id="g1223" transform="matrix(1, 0, 0, 1, 264, 259.6666717529297)"><g id="g1225" fill="none" stroke="#646464" stroke-linecap="butt" stroke-opacity="1"><path id="path1227" d="M 0 0 L 3 0 L 3 14 L 0 14"/></g></g><g id="g1229" transform="matrix(1, 0, 0, 1, 243, 259.6666717529297)"><clipPath id="clip33"><path id="path1232" d="M -243 -259.6666717529297 L -243 86 L 123 86 L 123 -259.6666717529297 z"/></clipPath><g id="g1234" clip-path="url(#clip33)"><text id="text1236" x="0" y="0" fill="#000" fill-opacity="1" stroke="none" font-family="Arial" font-size="10.667" font-style="normal" font-weight="normal"><tspan id="tspan1238" x="0" dy="9.5">Two</tspan></text></g></g><g id="g1240" transform="matrix(1, 0, 0, 1, 187.5, 169.6666717529297)"><g id="g1242" fill="none" stroke="#000" stroke-linecap="butt" stroke-opacity="1"><path id="path1244" d="M 129.3333282470703 124 C 109 114 109 109 109 104.5 C 109 100 109 96 109 91 C 109 86 109 80 109 70"/></g></g><g id="g1246" transform="matrix(-0.00000004371138975693, -0.999999999999999, 0.999999999999999, -0.00000004371138975693, 293.5000002622683, 247.66667188406385)"><g id="g1248" fill="#000" fill-opacity="1" fill-rule="nonzero" stroke="none"><path id="path1250" d="M 0 0 L 3.200000047683716 3 L 0 6 L 8 3 z"/></g></g><g id="g1252" transform="matrix(-0.00000004371138975693, -0.999999999999999, 0.999999999999999, -0.00000004371138975693, 293.5000002622683, 247.66667188406385)"><g id="g1254" fill="none" stroke="#000" stroke-linecap="butt" stroke-linejoin="round" stroke-opacity="1"><path id="path1256" d="M 0 0 L 3.200000047683716 3 L 0 6 L 8 3 z"/></g></g><g id="g1258" transform="matrix(1, 0, 0, 1, 278, 259.6666717529297)"><g id="g1260" fill="#fff" fill-opacity=".863" fill-rule="nonzero" stroke="none"><path id="path1262" d="M 0.5 0.5 L 32.5 0.5 L 32.5 13.5 L 0.5 13.5 L 0.5 0.5 z"/></g></g><g id="g1264" transform="matrix(1, 0, 0, 1, 278, 259.6666717529297)"><g id="g1266" fill="none" stroke="#000" stroke-linecap="butt" stroke-opacity="0"><path id="path1268" d="M 0.5 0.5 L 32.5 0.5 L 32.5 13.5 L 0.5 13.5 L 0.5 0.5 z"/></g></g><g id="g1270" transform="matrix(1, 0, 0, 1, 278, 259.6666717529297)"><g id="g1272" fill="none" stroke="#646464" stroke-linecap="butt" stroke-opacity="1"><path id="path1274" d="M 3 0 L 0 0 L 0 14 L 3 14"/></g></g><g id="g1276" transform="matrix(1, 0, 0, 1, 308, 259.6666717529297)"><g id="g1278" fill="none" stroke="#646464" stroke-linecap="butt" stroke-opacity="1"><path id="path1280" d="M 0 0 L 3 0 L 3 14 L 0 14"/></g></g><g id="g1282" transform="matrix(1, 0, 0, 1, 280, 259.6666717529297)"><clipPath id="clip34"><path id="path1285" d="M -280 -259.6666717529297 L -280 86 L 86 86 L 86 -259.6666717529297 z"/></clipPath><g id="g1287" clip-path="url(#clip34)"><text id="text1289" x="0" y="0" fill="#000" fill-opacity="1" stroke="none" font-family="Arial" font-size="10.667" font-style="normal" font-weight="normal"><tspan id="tspan1291" x="0" dy="9.5">Three</tspan></text></g></g><g id="g1293" transform="matrix(1, 0, 0, 1, 187.5, 169.6666717529297)"><g id="g1295" fill="none" stroke="#000" stroke-linecap="butt" stroke-opacity="1"><path id="path1297" d="M 119 70 C 149.5 80 149.5 85 149.5 88.66666412353516 C 149.5 92.33333587646484 149.5 94.66666412353516 149.5 97 C 149.5 99.33333587646484 149.5 101.66666412353516 149.5 105.33333587646484 C 149.5 109 149.5 114 142.6666717529297 124"/></g></g><g id="g1299" transform="matrix(-0.5124572454307353, 0.8587127410290027, -0.8587127410290027, -0.5124572454307353, 336.84246778486596, 288.3343414687307)"><g id="g1301" fill="#000" fill-opacity="1" fill-rule="nonzero" stroke="none"><path id="path1303" d="M 0 0 L 3.200000047683716 3 L 0 6 L 8 3 z"/></g></g><g id="g1305" transform="matrix(-0.5124572454307353, 0.8587127410290027, -0.8587127410290027, -0.5124572454307353, 336.84246778486596, 288.3343414687307)"><g id="g1307" fill="none" stroke="#000" stroke-linecap="butt" stroke-linejoin="round" stroke-opacity="1"><path id="path1309" d="M 0 0 L 3.200000047683716 3 L 0 6 L 8 3 z"/></g></g><g id="g1311" transform="matrix(1, 0, 0, 1, 322, 259.6666717529297)"><g id="g1313" fill="#fff" fill-opacity=".863" fill-rule="nonzero" stroke="none"><path id="path1315" d="M 0.5 0.5 L 25.5 0.5 L 25.5 13.5 L 0.5 13.5 L 0.5 0.5 z"/></g></g><g id="g1317" transform="matrix(1, 0, 0, 1, 322, 259.6666717529297)"><g id="g1319" fill="none" stroke="#000" stroke-linecap="butt" stroke-opacity="0"><path id="path1321" d="M 0.5 0.5 L 25.5 0.5 L 25.5 13.5 L 0.5 13.5 L 0.5 0.5 z"/></g></g><g id="g1323" transform="matrix(1, 0, 0, 1, 322, 259.6666717529297)"><g id="g1325" fill="none" stroke="#646464" stroke-linecap="butt" stroke-opacity="1"><path id="path1327" d="M 3 0 L 0 0 L 0 14 L 3 14"/></g></g><g id="g1329" transform="matrix(1, 0, 0, 1, 345, 259.6666717529297)"><g id="g1331" fill="none" stroke="#646464" stroke-linecap="butt" stroke-opacity="1"><path id="path1333" d="M 0 0 L 3 0 L 3 14 L 0 14"/></g></g><g id="g1335" transform="matrix(1, 0, 0, 1, 324, 259.6666717529297)"><clipPath id="clip35"><path id="path1338" d="M -324 -259.6666717529297 L -324 86 L 42 86 L 42 -259.6666717529297 z"/></clipPath><g id="g1340" clip-path="url(#clip35)"><text id="text1342" x="0" y="0" fill="#000" fill-opacity="1" stroke="none" font-family="Arial" font-size="10.667" font-style="normal" font-weight="normal"><tspan id="tspan1344" x="0" dy="9.5">Four</tspan></text></g></g><g id="g1346" transform="matrix(1, 0, 0, 1, 242.75, 174.6666717529297)"><clipPath id="clip36"><path id="path1349" d="M -242.75 -174.6666717529297 L -242.75 171 L 123.25 171 L 123.25 -174.6666717529297 z"/></clipPath><g id="g1351" clip-path="url(#clip36)"><text id="text1353" x="0" y="0" fill="#000" fill-opacity="1" stroke="none" font-family="Arial" font-size="10.667" font-style="normal" font-weight="normal"><tspan id="tspan1355" x="0" dy="9.5">bottom-to-top</tspan></text></g></g></g></g></g></g></g></g></g></g></g></g></g></g></g></g></g></g></g></g></g></g></g></svg>