<svg xmlns="http://www.w3.org/2000/svg" xmlns:svg="http://www.w3.org/2000/svg" xmlns:xlink="http://www.w3.org/1999/xlink" id="svg2" width="69" height="74" x="0" y="0" version="1.1" viewBox="0 0 69 74" xml:space="preserve"><metadata id="metadata161"/><defs id="defs159"><linearGradient id="linearGradient3140" x1=".5" x2="29.5" y1=".5" y2=".5" gradientUnits="userSpaceOnUse" xlink:href="#gradient-0"/><linearGradient id="linearGradient3142" x1=".5" x2="29.5" y1=".5" y2=".5" gradientUnits="userSpaceOnUse" xlink:href="#gradient-0"/><linearGradient id="linearGradient3144" x1="0" x2="30" y1="0" y2="0" gradientUnits="userSpaceOnUse" xlink:href="#gradient-0"/><linearGradient id="linearGradient3148" x1=".5" x2="19.5" y1=".5" y2=".5" gradientUnits="userSpaceOnUse" xlink:href="#gradient-0"/><linearGradient id="linearGradient3150" x1=".5" x2="19.5" y1=".5" y2=".5" gradientUnits="userSpaceOnUse" xlink:href="#gradient-0"/><linearGradient id="linearGradient3152" x1="0" x2="20" y1="0" y2="0" gradientUnits="userSpaceOnUse" xlink:href="#gradient-0"/><linearGradient id="linearGradient3156" x1=".5" x2="18.5" y1=".5" y2=".5" gradientUnits="userSpaceOnUse" xlink:href="#gradient-0"/><linearGradient id="linearGradient3158" x1=".5" x2="18.5" y1=".5" y2=".5" gradientUnits="userSpaceOnUse" xlink:href="#gradient-0"/><linearGradient id="linearGradient3160" x1="0" x2="19" y1="0" y2="0" gradientUnits="userSpaceOnUse" xlink:href="#gradient-0"/><linearGradient id="linearGradient3164" x1=".5" x2="10.5" y1=".5" y2=".5" gradientUnits="userSpaceOnUse" xlink:href="#gradient-0"/><linearGradient id="linearGradient3166" x1=".5" x2="10.5" y1=".5" y2=".5" gradientUnits="userSpaceOnUse" xlink:href="#gradient-0"/><linearGradient id="linearGradient3168" x1="0" x2="11" y1="0" y2="0" gradientUnits="userSpaceOnUse" xlink:href="#gradient-0"/><linearGradient id="linearGradient3172" x1=".5" x2="9.5" y1=".5" y2=".5" gradientUnits="userSpaceOnUse" xlink:href="#gradient-0"/><linearGradient id="linearGradient3176" x1=".5" x2="14.5" y1=".5" y2=".5" gradientUnits="userSpaceOnUse" xlink:href="#gradient-0"/><linearGradient id="linearGradient3178" x1=".5" x2="14.5" y1=".5" y2=".5" gradientUnits="userSpaceOnUse" xlink:href="#gradient-0"/><linearGradient id="linearGradient3180" x1="0" x2="15" y1="0" y2="0" gradientUnits="userSpaceOnUse" xlink:href="#gradient-0"/><linearGradient id="linearGradient3184" x1=".5" x2="9.5" y1=".5" y2=".5" gradientUnits="userSpaceOnUse" xlink:href="#gradient-0"/><linearGradient id="linearGradient3186" x1=".5" x2="9.5" y1=".5" y2=".5" gradientUnits="userSpaceOnUse" xlink:href="#gradient-0"/><linearGradient id="linearGradient3188" x1="0" x2="10" y1="0" y2="0" gradientUnits="userSpaceOnUse" xlink:href="#gradient-0"/><linearGradient id="linearGradient3192" x1=".5" x2="9.5" y1=".5" y2=".5" gradientUnits="userSpaceOnUse" xlink:href="#gradient-0"/><linearGradient id="linearGradient3194" x1=".5" x2="9.5" y1=".5" y2=".5" gradientUnits="userSpaceOnUse" xlink:href="#gradient-0"/><linearGradient id="linearGradient3196" x1="0" x2="10" y1="0" y2="0" gradientUnits="userSpaceOnUse" xlink:href="#gradient-0"/><linearGradient id="linearGradient3200" x1=".5" x2="17.5" y1=".5" y2=".5" gradientUnits="userSpaceOnUse" xlink:href="#gradient-0"/><linearGradient id="linearGradient3202" x1=".5" x2="17.5" y1=".5" y2=".5" gradientUnits="userSpaceOnUse" xlink:href="#gradient-0"/><linearGradient id="linearGradient3204" x1="0" x2="18" y1="0" y2="0" gradientUnits="userSpaceOnUse" xlink:href="#gradient-0"/><linearGradient id="linearGradient3208" x1=".5" x2="9.5" y1=".5" y2=".5" gradientUnits="userSpaceOnUse" xlink:href="#gradient-0"/><linearGradient id="linearGradient3210" x1=".5" x2="9.5" y1=".5" y2=".5" gradientUnits="userSpaceOnUse" xlink:href="#gradient-0"/><linearGradient id="linearGradient3212" x1="0" x2="10" y1="0" y2="0" gradientUnits="userSpaceOnUse" xlink:href="#gradient-0"/><linearGradient id="linearGradient3214" x1="36" x2="46" y1="0" y2="0" gradientUnits="userSpaceOnUse" xlink:href="#gradient-0"/><linearGradient id="linearGradient3216" x1="17.576" x2="47.56" y1="0" y2="0" gradientTransform="scale(0.96720415,1.0339079)" gradientUnits="userSpaceOnUse" xlink:href="#gradient-0"/><linearGradient id="linearGradient3218" x1="17.576" x2="47.56" y1="0" y2="0" gradientTransform="scale(0.96720415,1.0339079)" gradientUnits="userSpaceOnUse" xlink:href="#gradient-0"/><linearGradient id="linearGradient3220" x1="11.458" x2="43.924" y1="0" y2="0" gradientTransform="scale(1.0472699,0.95486371)" gradientUnits="userSpaceOnUse" xlink:href="#gradient-0"/><linearGradient id="linearGradient3222" x1="0" x2="37.762" y1="0" y2="0" gradientTransform="scale(1.2181424,0.82092207)" gradientUnits="userSpaceOnUse" xlink:href="#gradient-0"/><linearGradient id="linearGradient3224" x1="0" x2="37.762" y1="0" y2="0" gradientTransform="scale(1.2181424,0.82092207)" gradientUnits="userSpaceOnUse" xlink:href="#gradient-0"/><linearGradient id="linearGradient3226" x1="0" x2="42.767" y1="0" y2="0" gradientTransform="scale(1.3795745,0.72486118)" gradientUnits="userSpaceOnUse" xlink:href="#gradient-0"/><linearGradient id="linearGradient3228" x1="0" x2="43.451" y1="0" y2="0" gradientTransform="scale(1.3578476,0.73645969)" gradientUnits="userSpaceOnUse" xlink:href="#gradient-0"/><linearGradient id="linearGradient3230" x1="0" x2="56.445" y1="0" y2="0" gradientTransform="scale(1.0452715,0.95668921)" gradientUnits="userSpaceOnUse" xlink:href="#gradient-0"/><linearGradient id="linearGradient3232" x1="0" x2="61.449" y1="0" y2="0" gradientTransform="scale(0.96014322,1.0415113)" gradientUnits="userSpaceOnUse" xlink:href="#gradient-0"/><defs id="defs14"><linearGradient id="gradient-0" gradientTransform="matrix(0,1,-1,0,0,0)" gradientUnits="objectBoundingBox"><stop id="stop17" offset="0" opacity-stop="1" stop-color="#ebf6fa"/><stop id="stop19" offset="1" opacity-stop="1" stop-color="#c4e3f3"/></linearGradient></defs><linearGradient id="linearGradient3310" x1=".5" x2="29.5" y1=".5" y2=".5" gradientUnits="userSpaceOnUse" xlink:href="#gradient-0"/><linearGradient id="linearGradient3312" x1=".5" x2="29.5" y1=".5" y2=".5" gradientUnits="userSpaceOnUse" xlink:href="#gradient-0"/><linearGradient id="linearGradient3314" x1="0" x2="30" y1="0" y2="0" gradientUnits="userSpaceOnUse" xlink:href="#gradient-0"/><linearGradient id="linearGradient3318" x1=".5" x2="19.5" y1=".5" y2=".5" gradientUnits="userSpaceOnUse" xlink:href="#gradient-0"/><linearGradient id="linearGradient3320" x1=".5" x2="19.5" y1=".5" y2=".5" gradientUnits="userSpaceOnUse" xlink:href="#gradient-0"/><linearGradient id="linearGradient3322" x1="0" x2="20" y1="0" y2="0" gradientUnits="userSpaceOnUse" xlink:href="#gradient-0"/><linearGradient id="linearGradient3326" x1=".5" x2="18.5" y1=".5" y2=".5" gradientUnits="userSpaceOnUse" xlink:href="#gradient-0"/><linearGradient id="linearGradient3328" x1=".5" x2="18.5" y1=".5" y2=".5" gradientUnits="userSpaceOnUse" xlink:href="#gradient-0"/><linearGradient id="linearGradient3330" x1="0" x2="19" y1="0" y2="0" gradientUnits="userSpaceOnUse" xlink:href="#gradient-0"/><linearGradient id="linearGradient3334" x1=".5" x2="10.5" y1=".5" y2=".5" gradientUnits="userSpaceOnUse" xlink:href="#gradient-0"/><linearGradient id="linearGradient3336" x1=".5" x2="10.5" y1=".5" y2=".5" gradientUnits="userSpaceOnUse" xlink:href="#gradient-0"/><linearGradient id="linearGradient3338" x1="0" x2="11" y1="0" y2="0" gradientUnits="userSpaceOnUse" xlink:href="#gradient-0"/><linearGradient id="linearGradient3342" x1=".5" x2="9.5" y1=".5" y2=".5" gradientUnits="userSpaceOnUse" xlink:href="#gradient-0"/><linearGradient id="linearGradient3346" x1=".5" x2="14.5" y1=".5" y2=".5" gradientUnits="userSpaceOnUse" xlink:href="#gradient-0"/><linearGradient id="linearGradient3348" x1=".5" x2="14.5" y1=".5" y2=".5" gradientUnits="userSpaceOnUse" xlink:href="#gradient-0"/><linearGradient id="linearGradient3350" x1="0" x2="15" y1="0" y2="0" gradientUnits="userSpaceOnUse" xlink:href="#gradient-0"/><linearGradient id="linearGradient3354" x1=".5" x2="9.5" y1=".5" y2=".5" gradientUnits="userSpaceOnUse" xlink:href="#gradient-0"/><linearGradient id="linearGradient3356" x1=".5" x2="9.5" y1=".5" y2=".5" gradientUnits="userSpaceOnUse" xlink:href="#gradient-0"/><linearGradient id="linearGradient3358" x1="0" x2="10" y1="0" y2="0" gradientUnits="userSpaceOnUse" xlink:href="#gradient-0"/><linearGradient id="linearGradient3362" x1=".5" x2="9.5" y1=".5" y2=".5" gradientUnits="userSpaceOnUse" xlink:href="#gradient-0"/><linearGradient id="linearGradient3364" x1=".5" x2="9.5" y1=".5" y2=".5" gradientUnits="userSpaceOnUse" xlink:href="#gradient-0"/><linearGradient id="linearGradient3366" x1="0" x2="10" y1="0" y2="0" gradientUnits="userSpaceOnUse" xlink:href="#gradient-0"/><linearGradient id="linearGradient3370" x1=".5" x2="17.5" y1=".5" y2=".5" gradientUnits="userSpaceOnUse" xlink:href="#gradient-0"/><linearGradient id="linearGradient3372" x1=".5" x2="17.5" y1=".5" y2=".5" gradientUnits="userSpaceOnUse" xlink:href="#gradient-0"/><linearGradient id="linearGradient3374" x1="0" x2="18" y1="0" y2="0" gradientUnits="userSpaceOnUse" xlink:href="#gradient-0"/><linearGradient id="linearGradient3378" x1=".5" x2="9.5" y1=".5" y2=".5" gradientUnits="userSpaceOnUse" xlink:href="#gradient-0"/><linearGradient id="linearGradient3380" x1=".5" x2="9.5" y1=".5" y2=".5" gradientUnits="userSpaceOnUse" xlink:href="#gradient-0"/><linearGradient id="linearGradient3382" x1="0" x2="10" y1="0" y2="0" gradientUnits="userSpaceOnUse" xlink:href="#gradient-0"/><linearGradient id="linearGradient3384" x1="36" x2="46" y1="0" y2="0" gradientUnits="userSpaceOnUse" xlink:href="#gradient-0"/><linearGradient id="linearGradient3386" x1="17.576" x2="47.56" y1="0" y2="0" gradientTransform="scale(0.96720415,1.0339079)" gradientUnits="userSpaceOnUse" xlink:href="#gradient-0"/><linearGradient id="linearGradient3388" x1="17.576" x2="47.56" y1="0" y2="0" gradientTransform="scale(0.96720415,1.0339079)" gradientUnits="userSpaceOnUse" xlink:href="#gradient-0"/><linearGradient id="linearGradient3390" x1="11.458" x2="43.924" y1="0" y2="0" gradientTransform="scale(1.0472699,0.95486371)" gradientUnits="userSpaceOnUse" xlink:href="#gradient-0"/><linearGradient id="linearGradient3392" x1="0" x2="37.762" y1="0" y2="0" gradientTransform="scale(1.2181424,0.82092207)" gradientUnits="userSpaceOnUse" xlink:href="#gradient-0"/><linearGradient id="linearGradient3394" x1="0" x2="37.762" y1="0" y2="0" gradientTransform="scale(1.2181424,0.82092207)" gradientUnits="userSpaceOnUse" xlink:href="#gradient-0"/><linearGradient id="linearGradient3396" x1="0" x2="42.767" y1="0" y2="0" gradientTransform="scale(1.3795745,0.72486118)" gradientUnits="userSpaceOnUse" xlink:href="#gradient-0"/><linearGradient id="linearGradient3398" x1="0" x2="43.451" y1="0" y2="0" gradientTransform="scale(1.3578476,0.73645969)" gradientUnits="userSpaceOnUse" xlink:href="#gradient-0"/><linearGradient id="linearGradient3400" x1="0" x2="56.445" y1="0" y2="0" gradientTransform="scale(1.0452715,0.95668921)" gradientUnits="userSpaceOnUse" xlink:href="#gradient-0"/><linearGradient id="linearGradient3402" x1="0" x2="61.449" y1="0" y2="0" gradientTransform="scale(0.96014322,1.0415113)" gradientUnits="userSpaceOnUse" xlink:href="#gradient-0"/><linearGradient id="linearGradient3474" x1=".5" x2="19.5" y1=".5" y2=".5" gradientUnits="userSpaceOnUse" xlink:href="#gradient-0"/><linearGradient id="linearGradient3476" x1=".5" x2="19.5" y1=".5" y2=".5" gradientUnits="userSpaceOnUse" xlink:href="#gradient-0"/><linearGradient id="linearGradient3478" x1="0" x2="20" y1="0" y2="0" gradientUnits="userSpaceOnUse" xlink:href="#gradient-0"/><linearGradient id="linearGradient3482" x1=".5" x2="18.5" y1=".5" y2=".5" gradientUnits="userSpaceOnUse" xlink:href="#gradient-0"/><linearGradient id="linearGradient3484" x1=".5" x2="18.5" y1=".5" y2=".5" gradientUnits="userSpaceOnUse" xlink:href="#gradient-0"/><linearGradient id="linearGradient3486" x1="0" x2="19" y1="0" y2="0" gradientUnits="userSpaceOnUse" xlink:href="#gradient-0"/><linearGradient id="linearGradient3490" x1=".5" x2="10.5" y1=".5" y2=".5" gradientUnits="userSpaceOnUse" xlink:href="#gradient-0"/><linearGradient id="linearGradient3492" x1=".5" x2="10.5" y1=".5" y2=".5" gradientUnits="userSpaceOnUse" xlink:href="#gradient-0"/><linearGradient id="linearGradient3494" x1="0" x2="11" y1="0" y2="0" gradientUnits="userSpaceOnUse" xlink:href="#gradient-0"/><linearGradient id="linearGradient3498" x1=".5" x2="9.5" y1=".5" y2=".5" gradientUnits="userSpaceOnUse" xlink:href="#gradient-0"/><linearGradient id="linearGradient3502" x1=".5" x2="14.5" y1=".5" y2=".5" gradientUnits="userSpaceOnUse" xlink:href="#gradient-0"/><linearGradient id="linearGradient3504" x1=".5" x2="14.5" y1=".5" y2=".5" gradientUnits="userSpaceOnUse" xlink:href="#gradient-0"/><linearGradient id="linearGradient3506" x1="0" x2="15" y1="0" y2="0" gradientUnits="userSpaceOnUse" xlink:href="#gradient-0"/><linearGradient id="linearGradient3510" x1=".5" x2="9.5" y1=".5" y2=".5" gradientUnits="userSpaceOnUse" xlink:href="#gradient-0"/><linearGradient id="linearGradient3512" x1=".5" x2="9.5" y1=".5" y2=".5" gradientUnits="userSpaceOnUse" xlink:href="#gradient-0"/><linearGradient id="linearGradient3514" x1="0" x2="10" y1="0" y2="0" gradientUnits="userSpaceOnUse" xlink:href="#gradient-0"/><linearGradient id="linearGradient3518" x1=".5" x2="9.5" y1=".5" y2=".5" gradientUnits="userSpaceOnUse" xlink:href="#gradient-0"/><linearGradient id="linearGradient3520" x1=".5" x2="9.5" y1=".5" y2=".5" gradientUnits="userSpaceOnUse" xlink:href="#gradient-0"/><linearGradient id="linearGradient3522" x1="0" x2="10" y1="0" y2="0" gradientUnits="userSpaceOnUse" xlink:href="#gradient-0"/><linearGradient id="linearGradient3526" x1=".5" x2="17.5" y1=".5" y2=".5" gradientUnits="userSpaceOnUse" xlink:href="#gradient-0"/><linearGradient id="linearGradient3528" x1=".5" x2="17.5" y1=".5" y2=".5" gradientUnits="userSpaceOnUse" xlink:href="#gradient-0"/><linearGradient id="linearGradient3530" x1="0" x2="18" y1="0" y2="0" gradientUnits="userSpaceOnUse" xlink:href="#gradient-0"/><linearGradient id="linearGradient3534" x1=".5" x2="9.5" y1=".5" y2=".5" gradientUnits="userSpaceOnUse" xlink:href="#gradient-0"/><linearGradient id="linearGradient3536" x1=".5" x2="9.5" y1=".5" y2=".5" gradientUnits="userSpaceOnUse" xlink:href="#gradient-0"/><linearGradient id="linearGradient3538" x1="0" x2="10" y1="0" y2="0" gradientUnits="userSpaceOnUse" xlink:href="#gradient-0"/><linearGradient id="linearGradient3540" x1="36" x2="46" y1="0" y2="0" gradientUnits="userSpaceOnUse" xlink:href="#gradient-0"/><linearGradient id="linearGradient3542" x1="17.576" x2="47.56" y1="0" y2="0" gradientTransform="scale(0.96720415,1.0339079)" gradientUnits="userSpaceOnUse" xlink:href="#gradient-0"/><linearGradient id="linearGradient3544" x1="17.576" x2="47.56" y1="0" y2="0" gradientTransform="scale(0.96720415,1.0339079)" gradientUnits="userSpaceOnUse" xlink:href="#gradient-0"/><linearGradient id="linearGradient3546" x1="11.458" x2="43.924" y1="0" y2="0" gradientTransform="scale(1.0472699,0.95486371)" gradientUnits="userSpaceOnUse" xlink:href="#gradient-0"/><linearGradient id="linearGradient3548" x1="0" x2="37.762" y1="0" y2="0" gradientTransform="scale(1.2181424,0.82092207)" gradientUnits="userSpaceOnUse" xlink:href="#gradient-0"/><linearGradient id="linearGradient3550" x1="0" x2="37.762" y1="0" y2="0" gradientTransform="scale(1.2181424,0.82092207)" gradientUnits="userSpaceOnUse" xlink:href="#gradient-0"/><linearGradient id="linearGradient3552" x1="0" x2="42.767" y1="0" y2="0" gradientTransform="scale(1.3795745,0.72486118)" gradientUnits="userSpaceOnUse" xlink:href="#gradient-0"/><linearGradient id="linearGradient3554" x1="0" x2="43.451" y1="0" y2="0" gradientTransform="scale(1.3578476,0.73645969)" gradientUnits="userSpaceOnUse" xlink:href="#gradient-0"/><linearGradient id="linearGradient3556" x1="0" x2="56.445" y1="0" y2="0" gradientTransform="scale(1.0452715,0.95668921)" gradientUnits="userSpaceOnUse" xlink:href="#gradient-0"/><linearGradient id="linearGradient3618" x1="0" x2="30" y1="0" y2="0" gradientUnits="userSpaceOnUse" xlink:href="#gradient-0"/><linearGradient id="linearGradient3624" x1=".5" x2="29.5" y1=".5" y2=".5" gradientUnits="userSpaceOnUse" xlink:href="#gradient-0"/><linearGradient id="linearGradient3626" x1=".5" x2="29.5" y1=".5" y2=".5" gradientUnits="userSpaceOnUse" xlink:href="#gradient-0"/><linearGradient id="linearGradient3632" x1=".5" x2="29.5" y1=".5" y2=".5" gradientUnits="userSpaceOnUse" xlink:href="#gradient-0"/><linearGradient id="linearGradient3635" x1=".5" x2="29.5" y1=".5" y2=".5" gradientTransform="translate(27,39)" gradientUnits="userSpaceOnUse" xlink:href="#gradient-0"/><linearGradient id="linearGradient3640" x1=".5" x2="18.5" y1=".5" y2=".5" gradientUnits="userSpaceOnUse" xlink:href="#gradient-0"/><linearGradient id="linearGradient3642" x1=".5" x2="18.5" y1=".5" y2=".5" gradientUnits="userSpaceOnUse" xlink:href="#gradient-0"/><linearGradient id="linearGradient3644" x1="0" x2="19" y1="0" y2="0" gradientUnits="userSpaceOnUse" xlink:href="#gradient-0"/><linearGradient id="linearGradient3648" x1=".5" x2="10.5" y1=".5" y2=".5" gradientUnits="userSpaceOnUse" xlink:href="#gradient-0"/><linearGradient id="linearGradient3650" x1=".5" x2="10.5" y1=".5" y2=".5" gradientUnits="userSpaceOnUse" xlink:href="#gradient-0"/><linearGradient id="linearGradient3652" x1="0" x2="11" y1="0" y2="0" gradientUnits="userSpaceOnUse" xlink:href="#gradient-0"/><linearGradient id="linearGradient3656" x1=".5" x2="9.5" y1=".5" y2=".5" gradientUnits="userSpaceOnUse" xlink:href="#gradient-0"/><linearGradient id="linearGradient3660" x1=".5" x2="14.5" y1=".5" y2=".5" gradientUnits="userSpaceOnUse" xlink:href="#gradient-0"/><linearGradient id="linearGradient3662" x1=".5" x2="14.5" y1=".5" y2=".5" gradientUnits="userSpaceOnUse" xlink:href="#gradient-0"/><linearGradient id="linearGradient3664" x1="0" x2="15" y1="0" y2="0" gradientUnits="userSpaceOnUse" xlink:href="#gradient-0"/><linearGradient id="linearGradient3666" x1=".5" x2="9.5" y1=".5" y2=".5" gradientUnits="userSpaceOnUse" xlink:href="#gradient-0"/><linearGradient id="linearGradient3668" x1=".5" x2="9.5" y1=".5" y2=".5" gradientUnits="userSpaceOnUse" xlink:href="#gradient-0"/><linearGradient id="linearGradient3670" x1=".5" x2="9.5" y1=".5" y2=".5" gradientUnits="userSpaceOnUse" xlink:href="#gradient-0"/><linearGradient id="linearGradient3672" x1="0" x2="10" y1="0" y2="0" gradientUnits="userSpaceOnUse" xlink:href="#gradient-0"/><linearGradient id="linearGradient3674" x1=".5" x2="9.5" y1=".5" y2=".5" gradientUnits="userSpaceOnUse" xlink:href="#gradient-0"/><linearGradient id="linearGradient3676" x1=".5" x2="9.5" y1=".5" y2=".5" gradientUnits="userSpaceOnUse" xlink:href="#gradient-0"/><linearGradient id="linearGradient3678" x1=".5" x2="9.5" y1=".5" y2=".5" gradientUnits="userSpaceOnUse" xlink:href="#gradient-0"/><linearGradient id="linearGradient3680" x1="0" x2="10" y1="0" y2="0" gradientUnits="userSpaceOnUse" xlink:href="#gradient-0"/><linearGradient id="linearGradient3682" x1=".5" x2="17.5" y1=".5" y2=".5" gradientUnits="userSpaceOnUse" xlink:href="#gradient-0"/><linearGradient id="linearGradient3684" x1=".5" x2="17.5" y1=".5" y2=".5" gradientUnits="userSpaceOnUse" xlink:href="#gradient-0"/><linearGradient id="linearGradient3686" x1=".5" x2="17.5" y1=".5" y2=".5" gradientUnits="userSpaceOnUse" xlink:href="#gradient-0"/><linearGradient id="linearGradient3688" x1="0" x2="18" y1="0" y2="0" gradientUnits="userSpaceOnUse" xlink:href="#gradient-0"/><linearGradient id="linearGradient3690" x1=".5" x2="9.5" y1=".5" y2=".5" gradientUnits="userSpaceOnUse" xlink:href="#gradient-0"/><linearGradient id="linearGradient3692" x1=".5" x2="9.5" y1=".5" y2=".5" gradientUnits="userSpaceOnUse" xlink:href="#gradient-0"/><linearGradient id="linearGradient3694" x1=".5" x2="9.5" y1=".5" y2=".5" gradientUnits="userSpaceOnUse" xlink:href="#gradient-0"/><linearGradient id="linearGradient3696" x1="0" x2="10" y1="0" y2="0" gradientUnits="userSpaceOnUse" xlink:href="#gradient-0"/><linearGradient id="linearGradient3698" x1="36" x2="46" y1="0" y2="0" gradientUnits="userSpaceOnUse" xlink:href="#gradient-0"/><linearGradient id="linearGradient3700" x1="17.576" x2="47.56" y1="0" y2="0" gradientTransform="scale(0.96720415,1.0339079)" gradientUnits="userSpaceOnUse" xlink:href="#gradient-0"/><linearGradient id="linearGradient3702" x1="17.576" x2="47.56" y1="0" y2="0" gradientTransform="scale(0.96720415,1.0339079)" gradientUnits="userSpaceOnUse" xlink:href="#gradient-0"/><linearGradient id="linearGradient3704" x1="11.458" x2="43.924" y1="0" y2="0" gradientTransform="scale(1.0472699,0.95486371)" gradientUnits="userSpaceOnUse" xlink:href="#gradient-0"/><linearGradient id="linearGradient3706" x1="0" x2="37.762" y1="0" y2="0" gradientTransform="scale(1.2181424,0.82092207)" gradientUnits="userSpaceOnUse" xlink:href="#gradient-0"/><linearGradient id="linearGradient3708" x1="0" x2="37.762" y1="0" y2="0" gradientTransform="scale(1.2181424,0.82092207)" gradientUnits="userSpaceOnUse" xlink:href="#gradient-0"/><linearGradient id="linearGradient3710" x1="0" x2="42.767" y1="0" y2="0" gradientTransform="scale(1.3795745,0.72486118)" gradientUnits="userSpaceOnUse" xlink:href="#gradient-0"/><linearGradient id="linearGradient3712" x1="0" x2="43.451" y1="0" y2="0" gradientTransform="scale(1.3578476,0.73645969)" gradientUnits="userSpaceOnUse" xlink:href="#gradient-0"/><linearGradient id="linearGradient3767" x1="0" x2="20" y1="0" y2="0" gradientUnits="userSpaceOnUse" xlink:href="#gradient-0"/><linearGradient id="linearGradient3773" x1=".5" x2="19.5" y1=".5" y2=".5" gradientUnits="userSpaceOnUse" xlink:href="#gradient-0"/><linearGradient id="linearGradient3775" x1=".5" x2="19.5" y1=".5" y2=".5" gradientUnits="userSpaceOnUse" xlink:href="#gradient-0"/><linearGradient id="linearGradient3779" x1=".5" x2="19.5" y1=".5" y2=".5" gradientUnits="userSpaceOnUse" xlink:href="#gradient-0"/><linearGradient id="linearGradient3781" x1=".5" x2="19.5" y1=".5" y2=".5" gradientUnits="userSpaceOnUse" xlink:href="#gradient-0"/><linearGradient id="linearGradient3783" x1=".5" x2="18.5" y1=".5" y2=".5" gradientUnits="userSpaceOnUse" xlink:href="#gradient-0"/><linearGradient id="linearGradient3785" x1=".5" x2="18.5" y1=".5" y2=".5" gradientUnits="userSpaceOnUse" xlink:href="#gradient-0"/><linearGradient id="linearGradient3787" x1=".5" x2="18.5" y1=".5" y2=".5" gradientUnits="userSpaceOnUse" xlink:href="#gradient-0"/><linearGradient id="linearGradient3789" x1="0" x2="19" y1="0" y2="0" gradientUnits="userSpaceOnUse" xlink:href="#gradient-0"/><linearGradient id="linearGradient3791" x1=".5" x2="10.5" y1=".5" y2=".5" gradientUnits="userSpaceOnUse" xlink:href="#gradient-0"/><linearGradient id="linearGradient3793" x1=".5" x2="10.5" y1=".5" y2=".5" gradientUnits="userSpaceOnUse" xlink:href="#gradient-0"/><linearGradient id="linearGradient3795" x1=".5" x2="10.5" y1=".5" y2=".5" gradientUnits="userSpaceOnUse" xlink:href="#gradient-0"/><linearGradient id="linearGradient3797" x1="0" x2="11" y1="0" y2="0" gradientUnits="userSpaceOnUse" xlink:href="#gradient-0"/><linearGradient id="linearGradient3799" x1=".5" x2="9.5" y1=".5" y2=".5" gradientUnits="userSpaceOnUse" xlink:href="#gradient-0"/><linearGradient id="linearGradient3801" x1=".5" x2="9.5" y1=".5" y2=".5" gradientUnits="userSpaceOnUse" xlink:href="#gradient-0"/><linearGradient id="linearGradient3803" x1=".5" x2="14.5" y1=".5" y2=".5" gradientUnits="userSpaceOnUse" xlink:href="#gradient-0"/><linearGradient id="linearGradient3805" x1=".5" x2="14.5" y1=".5" y2=".5" gradientUnits="userSpaceOnUse" xlink:href="#gradient-0"/><linearGradient id="linearGradient3807" x1=".5" x2="14.5" y1=".5" y2=".5" gradientUnits="userSpaceOnUse" xlink:href="#gradient-0"/><linearGradient id="linearGradient3809" x1="0" x2="15" y1="0" y2="0" gradientUnits="userSpaceOnUse" xlink:href="#gradient-0"/><linearGradient id="linearGradient3811" x1=".5" x2="9.5" y1=".5" y2=".5" gradientUnits="userSpaceOnUse" xlink:href="#gradient-0"/><linearGradient id="linearGradient3813" x1=".5" x2="9.5" y1=".5" y2=".5" gradientUnits="userSpaceOnUse" xlink:href="#gradient-0"/><linearGradient id="linearGradient3815" x1="0" x2="10" y1="0" y2="0" gradientUnits="userSpaceOnUse" xlink:href="#gradient-0"/><linearGradient id="linearGradient3817" x1=".5" x2="9.5" y1=".5" y2=".5" gradientUnits="userSpaceOnUse" xlink:href="#gradient-0"/><linearGradient id="linearGradient3819" x1=".5" x2="9.5" y1=".5" y2=".5" gradientUnits="userSpaceOnUse" xlink:href="#gradient-0"/><linearGradient id="linearGradient3821" x1="0" x2="10" y1="0" y2="0" gradientUnits="userSpaceOnUse" xlink:href="#gradient-0"/><linearGradient id="linearGradient3823" x1=".5" x2="17.5" y1=".5" y2=".5" gradientUnits="userSpaceOnUse" xlink:href="#gradient-0"/><linearGradient id="linearGradient3825" x1=".5" x2="17.5" y1=".5" y2=".5" gradientUnits="userSpaceOnUse" xlink:href="#gradient-0"/><linearGradient id="linearGradient3827" x1="0" x2="18" y1="0" y2="0" gradientUnits="userSpaceOnUse" xlink:href="#gradient-0"/><linearGradient id="linearGradient3829" x1=".5" x2="9.5" y1=".5" y2=".5" gradientUnits="userSpaceOnUse" xlink:href="#gradient-0"/><linearGradient id="linearGradient3831" x1=".5" x2="9.5" y1=".5" y2=".5" gradientUnits="userSpaceOnUse" xlink:href="#gradient-0"/><linearGradient id="linearGradient3833" x1="0" x2="10" y1="0" y2="0" gradientUnits="userSpaceOnUse" xlink:href="#gradient-0"/><linearGradient id="linearGradient3835" x1="36" x2="46" y1="0" y2="0" gradientUnits="userSpaceOnUse" xlink:href="#gradient-0"/><linearGradient id="linearGradient3837" x1="17.576" x2="47.56" y1="0" y2="0" gradientTransform="scale(0.96720415,1.0339079)" gradientUnits="userSpaceOnUse" xlink:href="#gradient-0"/><linearGradient id="linearGradient3839" x1="17.576" x2="47.56" y1="0" y2="0" gradientTransform="scale(0.96720415,1.0339079)" gradientUnits="userSpaceOnUse" xlink:href="#gradient-0"/><linearGradient id="linearGradient3841" x1="11.458" x2="43.924" y1="0" y2="0" gradientTransform="scale(1.0472699,0.95486371)" gradientUnits="userSpaceOnUse" xlink:href="#gradient-0"/><linearGradient id="linearGradient3843" x1="0" x2="37.762" y1="0" y2="0" gradientTransform="scale(1.2181424,0.82092207)" gradientUnits="userSpaceOnUse" xlink:href="#gradient-0"/><linearGradient id="linearGradient3845" x1="0" x2="37.762" y1="0" y2="0" gradientTransform="scale(1.2181424,0.82092207)" gradientUnits="userSpaceOnUse" xlink:href="#gradient-0"/><linearGradient id="linearGradient3847" x1="0" x2="42.767" y1="0" y2="0" gradientTransform="scale(1.3795745,0.72486118)" gradientUnits="userSpaceOnUse" xlink:href="#gradient-0"/></defs><desc id="desc6">Creator: FreeHEP Graphics2D Driver Producer: de.cau.cs.kieler.klighd.piccolo.freehep.SemanticSVGGraphics2D Revision Source: Date: Friday, April 28, 2017 4:15:53 PM CEST</desc><path id="path27" d="m 27.5,44.5 0,19 c 0,2.761424 2.238576,5 5,5 l 19,0 c 2.761424,0 5,-2.238576 5,-5 l 0,-19 c 0,-2.761424 -2.238576,-5 -5,-5 l -19,0 c -2.761424,0 -5,2.238576 -5,5 z" style="fill:url(#linearGradient3635);fill-opacity:1;fill-rule:nonzero;stroke:none"/><path style="fill:none;stroke:#000;stroke-width:1;stroke-linecap:butt;stroke-linejoin:miter;stroke-miterlimit:10;stroke-opacity:1;stroke-dasharray:none;stroke-dashoffset:0" id="path33" d="m 27.5,44.5 0,19 c 0,2.761424 2.238576,5 5,5 l 19,0 c 2.761424,0 5,-2.238576 5,-5 l 0,-19 c 0,-2.761424 -2.238576,-5 -5,-5 l -19,0 c -2.761424,0 -5,2.238576 -5,5 z"/><g id="g39" transform="translate(5,39)" style="fill:url(#linearGradient3781);fill-opacity:1;fill-rule:nonzero;stroke:none"><path id="path41" d="m 0.5,5.5 0,9 c 0,2.761424 2.2385763,5 5,5 l 9,0 c 2.761424,0 5,-2.238576 5,-5 l 0,-9 c 0,-2.7614237 -2.238576,-5 -5,-5 l -9,0 c -2.7614237,0 -5,2.2385763 -5,5 z" style="fill:url(#linearGradient3779)"/></g><g id="g45" transform="translate(5,39)" style="fill:none;stroke:#000;stroke-width:1;stroke-linecap:butt;stroke-linejoin:miter;stroke-miterlimit:10;stroke-opacity:1;stroke-dasharray:none;stroke-dashoffset:0"><path id="path47" d="m 0.5,5.5 0,9 c 0,2.761424 2.2385763,5 5,5 l 9,0 c 2.761424,0 5,-2.238576 5,-5 l 0,-9 c 0,-2.7614237 -2.238576,-5 -5,-5 l -9,0 c -2.7614237,0 -5,2.2385763 -5,5 z"/></g><g id="g51" transform="translate(42,18)" style="stroke:url(#linearGradient3787);stroke-width:1;stroke-linecap:square;stroke-linejoin:miter;stroke-miterlimit:10;stroke-dasharray:none;stroke-dashoffset:0"><g id="g53" style="fill:url(#linearGradient3785);fill-opacity:1;fill-rule:nonzero;stroke:none"><path id="path55" d="m 0.5,5.5 0,8 c 0,2.761424 2.2385763,5 5,5 l 8,0 c 2.761424,0 5,-2.238576 5,-5 l 0,-8 c 0,-2.7614237 -2.238576,-5 -5,-5 l -8,0 c -2.7614237,0 -5,2.2385763 -5,5 z" style="fill:url(#linearGradient3783)"/></g></g><g id="g57" transform="translate(42,18)" style="stroke:url(#linearGradient3789);stroke-width:1;stroke-linecap:square;stroke-linejoin:miter;stroke-miterlimit:10;stroke-dasharray:none;stroke-dashoffset:0"><g id="g59" style="fill:none;stroke:#000;stroke-linecap:butt;stroke-opacity:1"><path id="path61" d="m 0.5,5.5 0,8 c 0,2.761424 2.2385763,5 5,5 l 8,0 c 2.761424,0 5,-2.238576 5,-5 l 0,-8 c 0,-2.7614237 -2.238576,-5 -5,-5 l -8,0 c -2.7614237,0 -5,2.2385763 -5,5 z"/></g></g><g id="g63" transform="translate(5,5)" style="stroke:url(#linearGradient3847);stroke-width:1;stroke-linecap:square;stroke-linejoin:miter;stroke-miterlimit:10;stroke-dasharray:none;stroke-dashoffset:0"><g id="g65" transform="translate(48,0)" style="stroke:url(#linearGradient3795)"><g id="g67" style="fill:url(#linearGradient3793);fill-opacity:1;fill-rule:nonzero;stroke:none"><path id="path69" d="m 0.5,5.5 0,0 c 0,2.7614237 2.2385763,5 5,5 l 0,0 c 2.7614237,0 5,-2.2385763 5,-5 l 0,0 c 0,-2.7614237 -2.2385763,-5 -5,-5 l 0,0 c -2.7614237,0 -5,2.2385763 -5,5 z" style="fill:url(#linearGradient3791)"/></g></g><g id="g71" transform="translate(48,0)" style="stroke:url(#linearGradient3797)"><g id="g73" style="fill:none;stroke:#000;stroke-linecap:butt;stroke-opacity:1"><path id="path75" d="m 0.5,5.5 0,0 c 0,2.7614237 2.2385763,5 5,5 l 0,0 c 2.7614237,0 5,-2.2385763 5,-5 l 0,0 c 0,-2.7614237 -2.2385763,-5 -5,-5 l 0,0 c -2.7614237,0 -5,2.2385763 -5,5 z"/></g></g><g id="g77" style="stroke:url(#linearGradient3845)"><g id="g79" style="fill:url(#linearGradient3801);fill-opacity:1;fill-rule:nonzero;stroke:none"><path id="path81" d="m 0.5,5 0,0 c 0,2.4852814 2.0147186,4.5 4.5,4.5 l 0,0 C 7.4852814,9.5 9.5,7.4852814 9.5,5 l 0,0 C 9.5,2.5147186 7.4852814,0.5 5,0.5 l 0,0 C 2.5147186,0.5 0.5,2.5147186 0.5,5 z" style="fill:url(#linearGradient3799)"/></g><g id="g83" style="fill:none;stroke:#000;stroke-linecap:butt;stroke-opacity:1"><path id="path85" d="m 0.5,5 0,0 c 0,2.4852814 2.0147186,4.5 4.5,4.5 l 0,0 C 7.4852814,9.5 9.5,7.4852814 9.5,5 l 0,0 C 9.5,2.5147186 7.4852814,0.5 5,0.5 l 0,0 C 2.5147186,0.5 0.5,2.5147186 0.5,5 z"/></g><g id="g87" style="stroke:url(#linearGradient3843)"><g id="g89" transform="translate(0,13)" style="stroke:url(#linearGradient3807)"><g id="g91" style="fill:url(#linearGradient3805);fill-opacity:1;fill-rule:nonzero;stroke:none"><path id="path93" d="m 0.5,5.5 0,4 c 0,2.761424 2.2385763,5 5,5 l 4,0 c 2.761424,0 5,-2.238576 5,-5 l 0,-4 c 0,-2.7614237 -2.238576,-5 -5,-5 l -4,0 c -2.7614237,0 -5,2.2385763 -5,5 z" style="fill:url(#linearGradient3803)"/></g></g><g id="g95" transform="translate(0,13)" style="stroke:url(#linearGradient3809)"><g id="g97" style="fill:none;stroke:#000;stroke-linecap:butt;stroke-opacity:1"><path id="path99" d="m 0.5,5.5 0,4 c 0,2.761424 2.2385763,5 5,5 l 4,0 c 2.761424,0 5,-2.238576 5,-5 l 0,-4 c 0,-2.7614237 -2.238576,-5 -5,-5 l -4,0 c -2.7614237,0 -5,2.2385763 -5,5 z"/></g></g><g id="g101" style="stroke:url(#linearGradient3841)"><g id="g103" transform="translate(12,0)" style="stroke:url(#linearGradient3813)"><g id="g105" style="fill:url(#linearGradient3811);fill-opacity:1;fill-rule:nonzero;stroke:none"><path id="path107" d="m 0.5,5 0,0 c 0,2.4852814 2.0147186,4.5 4.5,4.5 l 0,0 C 7.4852814,9.5 9.5,7.4852814 9.5,5 l 0,0 C 9.5,2.5147186 7.4852814,0.5 5,0.5 l 0,0 C 2.5147186,0.5 0.5,2.5147186 0.5,5 z" style="fill:url(#linearGradient3666)"/></g></g><g id="g109" transform="translate(12,0)" style="stroke:url(#linearGradient3815)"><g id="g111" style="fill:none;stroke:#000;stroke-linecap:butt;stroke-opacity:1"><path id="path113" d="m 0.5,5 0,0 c 0,2.4852814 2.0147186,4.5 4.5,4.5 l 0,0 C 7.4852814,9.5 9.5,7.4852814 9.5,5 l 0,0 C 9.5,2.5147186 7.4852814,0.5 5,0.5 l 0,0 C 2.5147186,0.5 0.5,2.5147186 0.5,5 z"/></g></g><g id="g115" style="stroke:url(#linearGradient3839)"><g id="g117" transform="translate(24,0)" style="stroke:url(#linearGradient3819)"><g id="g119" style="fill:url(#linearGradient3817);fill-opacity:1;fill-rule:nonzero;stroke:none"><path id="path121" d="m 0.5,5 0,0 c 0,2.4852814 2.0147186,4.5 4.5,4.5 l 0,0 C 7.4852814,9.5 9.5,7.4852814 9.5,5 l 0,0 C 9.5,2.5147186 7.4852814,0.5 5,0.5 l 0,0 C 2.5147186,0.5 0.5,2.5147186 0.5,5 z" style="fill:url(#linearGradient3674)"/></g></g><g id="g123" transform="translate(24,0)" style="stroke:url(#linearGradient3821)"><g id="g125" style="fill:none;stroke:#000;stroke-linecap:butt;stroke-opacity:1"><path id="path127" d="m 0.5,5 0,0 c 0,2.4852814 2.0147186,4.5 4.5,4.5 l 0,0 C 7.4852814,9.5 9.5,7.4852814 9.5,5 l 0,0 C 9.5,2.5147186 7.4852814,0.5 5,0.5 l 0,0 C 2.5147186,0.5 0.5,2.5147186 0.5,5 z"/></g></g><g id="g129" style="stroke:url(#linearGradient3837)"><g id="g131" transform="translate(17,13)" style="stroke:url(#linearGradient3825)"><g id="g133" style="fill:url(#linearGradient3823);fill-opacity:1;fill-rule:nonzero;stroke:none"><path id="path135" d="m 0.5,5.5 0,7 c 0,2.761424 2.2385763,5 5,5 l 7,0 c 2.761424,0 5,-2.238576 5,-5 l 0,-7 c 0,-2.7614237 -2.238576,-5 -5,-5 l -7,0 c -2.7614237,0 -5,2.2385763 -5,5 z" style="fill:url(#linearGradient3682)"/></g></g><g id="g137" transform="translate(17,13)" style="stroke:url(#linearGradient3827)"><g id="g139" style="fill:none;stroke:#000;stroke-linecap:butt;stroke-opacity:1"><path id="path141" d="m 0.5,5.5 0,7 c 0,2.761424 2.2385763,5 5,5 l 7,0 c 2.761424,0 5,-2.238576 5,-5 l 0,-7 c 0,-2.7614237 -2.238576,-5 -5,-5 l -7,0 c -2.7614237,0 -5,2.2385763 -5,5 z"/></g></g><g id="g143" style="stroke:url(#linearGradient3835)"><g id="g145" transform="translate(36,0)" style="stroke:url(#linearGradient3831)"><g id="g147" style="fill:url(#linearGradient3829);fill-opacity:1;fill-rule:nonzero;stroke:none"><path id="path149" d="m 0.5,5 0,0 c 0,2.4852814 2.0147186,4.5 4.5,4.5 l 0,0 C 7.4852814,9.5 9.5,7.4852814 9.5,5 l 0,0 C 9.5,2.5147186 7.4852814,0.5 5,0.5 l 0,0 C 2.5147186,0.5 0.5,2.5147186 0.5,5 z" style="fill:url(#linearGradient3690)"/></g></g><g id="g151" transform="translate(36,0)" style="stroke:url(#linearGradient3833)"><g id="g153" style="fill:none;stroke:#000;stroke-linecap:butt;stroke-opacity:1"><path id="path155" d="m 0.5,5 0,0 c 0,2.4852814 2.0147186,4.5 4.5,4.5 l 0,0 C 7.4852814,9.5 9.5,7.4852814 9.5,5 l 0,0 C 9.5,2.5147186 7.4852814,0.5 5,0.5 l 0,0 C 2.5147186,0.5 0.5,2.5147186 0.5,5 z"/></g></g></g></g></g></g></g></g></g></svg>