<svg xmlns="http://www.w3.org/2000/svg" xmlns:svg="http://www.w3.org/2000/svg" id="sprotty_G1" width="100%" height="100%" class="sprotty-graph" version="1.1" viewBox="0 0 991.979 514.167" style="font-size:14px;line-height:20px;color:#333"><metadata id="metadata395"/><rect style="fill:#ddf;stroke:#448;stroke-width:1" id="rect6" width="324" height="96" x="490.5" y="104.667" class="elknode"/><rect id="rect10" width="8" height="8" x="482.5" y="156" class="elkport" style="fill:#66c;stroke:#448;stroke-width:1"/><rect id="rect13" width="61" height="41" x="530.5" y="147.667" class="elknode" style="fill:#ddf;stroke:#448;stroke-width:1"/><rect style="fill:#66c;stroke:#448;stroke-width:1" id="rect17" width="8" height="8" x="522.5" y="156" class="elkport"/><rect style="fill:#66c;stroke:#448;stroke-width:1" id="rect20" width="8" height="8" x="522.5" y="172.333" class="elkport"/><rect style="fill:#66c;stroke:#448;stroke-width:1" id="rect23" width="8" height="8" x="591.5" y="164.167" class="elkport"/><rect id="rect26" width="10" height="41" x="627.5" y="139.5" class="elknode" style="fill:#ddf;stroke:#448;stroke-width:1"/><rect style="fill:#66c;stroke:#448;stroke-width:1" id="rect30" width="8" height="8" x="637.5" y="156" class="elkport"/><rect style="fill:#66c;stroke:#448;stroke-width:1" id="rect33" width="8" height="8" x="619.5" y="147.833" class="elkport"/><rect style="fill:#66c;stroke:#448;stroke-width:1" id="rect36" width="8" height="8" x="619.5" y="164.167" class="elkport"/><rect id="rect39" width="41" height="31" x="759.5" y="144.5" class="elknode" style="fill:#ddf;stroke:#448;stroke-width:1"/><rect style="fill:#66c;stroke:#448;stroke-width:1" id="rect43" width="8" height="8" x="751.5" y="156" class="elkport"/><path id="path46" d="m 490.5,160 32,0" class="elkedge" style="fill:none;stroke:#224;stroke-width:1"/><path id="path48" d="m 522.5,160 -8,3 0,-6 z" class="edge arrow"/><path id="path51" d="m 490.5,160 22,0 0,-43.33333 97,0 0,35.16667 10,0" class="elkedge" style="fill:none;stroke:#224;stroke-width:1"/><path id="path53" d="m 619.5,151.83334 -8,3 0,-6 z" class="edge arrow"/><circle style="fill:#224" id="circle56" cx="0" cy="0" r="2" d="M 2,0 C 2,1.1045695 1.1045695,2 0,2 -1.1045695,2 -2,1.1045695 -2,0 c 0,-1.1045695 0.8954305,-2 2,-2 1.1045695,0 2,0.8954305 2,2 z" class="elkjunction" transform="translate(512.5,160)"/><path id="path59" d="m 599.5,168.16667 20,0" class="elkedge" style="fill:none;stroke:#224;stroke-width:1"/><path id="path61" d="m 619.5,168.16667 -8,3 0,-6 z" class="edge arrow"/><path id="path64" d="m 645.5,160 106,0" class="elkedge" style="fill:none;stroke:#224;stroke-width:1"/><path id="path66" d="m 751.5,160 -8,3 0,-6 z" class="edge arrow"/><rect style="fill:#ddf;stroke:#448;stroke-width:1" id="rect69" width="61" height="41" x="554.25" y="240.667" class="elknode"/><rect id="rect73" width="8" height="8" x="546.25" y="249" class="elkport" style="fill:#66c;stroke:#448;stroke-width:1"/><rect id="rect76" width="8" height="8" x="546.25" y="265.333" class="elkport" style="fill:#66c;stroke:#448;stroke-width:1"/><rect id="rect79" width="8" height="8" x="615.25" y="257.167" class="elkport" style="fill:#66c;stroke:#448;stroke-width:1"/><rect style="fill:#ddf;stroke:#448;stroke-width:1" id="rect82" width="324" height="96" x="490.5" y="402.667" class="elknode"/><rect id="rect86" width="8" height="8" x="482.5" y="454" class="elkport" style="fill:#66c;stroke:#448;stroke-width:1"/><rect id="rect89" width="61" height="41" x="530.5" y="445.667" class="elknode" style="fill:#ddf;stroke:#448;stroke-width:1"/><rect style="fill:#66c;stroke:#448;stroke-width:1" id="rect93" width="8" height="8" x="522.5" y="454" class="elkport"/><rect style="fill:#66c;stroke:#448;stroke-width:1" id="rect96" width="8" height="8" x="522.5" y="470.333" class="elkport"/><rect style="fill:#66c;stroke:#448;stroke-width:1" id="rect99" width="8" height="8" x="591.5" y="462.167" class="elkport"/><rect id="rect102" width="10" height="41" x="627.5" y="437.5" class="elknode" style="fill:#ddf;stroke:#448;stroke-width:1"/><rect style="fill:#66c;stroke:#448;stroke-width:1" id="rect106" width="8" height="8" x="637.5" y="454" class="elkport"/><rect style="fill:#66c;stroke:#448;stroke-width:1" id="rect109" width="8" height="8" x="619.5" y="445.833" class="elkport"/><rect style="fill:#66c;stroke:#448;stroke-width:1" id="rect112" width="8" height="8" x="619.5" y="462.167" class="elkport"/><rect id="rect115" width="41" height="31" x="759.5" y="442.5" class="elknode" style="fill:#ddf;stroke:#448;stroke-width:1"/><rect style="fill:#66c;stroke:#448;stroke-width:1" id="rect119" width="8" height="8" x="751.5" y="454" class="elkport"/><path id="path122" d="m 490.5,458 32,0" class="elkedge" style="fill:none;stroke:#224;stroke-width:1"/><path id="path124" d="m 522.5,458 -8,3 0,-6 z" class="edge arrow"/><path id="path127" d="m 490.5,458 22,0 0,-43.33333 97,0 0,35.16667 10,0" class="elkedge" style="fill:none;stroke:#224;stroke-width:1"/><path id="path129" d="m 619.5,449.83334 -8,3 0,-6 z" class="edge arrow"/><circle style="fill:#224" id="circle132" cx="0" cy="0" r="2" d="M 2,0 C 2,1.1045695 1.1045695,2 0,2 -1.1045695,2 -2,1.1045695 -2,0 c 0,-1.1045695 0.8954305,-2 2,-2 1.1045695,0 2,0.8954305 2,2 z" class="elkjunction" transform="translate(512.5,458)"/><path id="path135" d="m 599.5,466.16667 20,0" class="elkedge" style="fill:none;stroke:#224;stroke-width:1"/><path id="path137" d="m 619.5,466.16667 -8,3 0,-6 z" class="edge arrow"/><path id="path140" d="m 645.5,458 106,0" class="elkedge" style="fill:none;stroke:#224;stroke-width:1"/><path id="path142" d="m 751.5,458 -8,3 0,-6 z" class="edge arrow"/><rect style="fill:#ddf;stroke:#448;stroke-width:1" id="rect145" width="61" height="41" x="554.25" y="321.667" class="elknode"/><rect id="rect149" width="8" height="8" x="546.25" y="330" class="elkport" style="fill:#66c;stroke:#448;stroke-width:1"/><rect id="rect152" width="8" height="8" x="546.25" y="346.333" class="elkport" style="fill:#66c;stroke:#448;stroke-width:1"/><rect id="rect155" width="8" height="8" x="615.25" y="338.167" class="elkport" style="fill:#66c;stroke:#448;stroke-width:1"/><rect style="fill:#ddf;stroke:#448;stroke-width:1" id="rect158" width="61" height="41" x="139.5" y="237.4" class="elknode"/><rect id="rect162" width="8" height="8" x="200.5" y="253.9" class="elkport" style="fill:#66c;stroke:#448;stroke-width:1"/><rect id="rect165" width="8" height="8" x="131.5" y="245.733" class="elkport" style="fill:#66c;stroke:#448;stroke-width:1"/><rect id="rect168" width="8" height="8" x="131.5" y="262.067" class="elkport" style="fill:#66c;stroke:#448;stroke-width:1"/><rect style="fill:#ddf;stroke:#448;stroke-width:1" id="rect171" width="61" height="41" x="842.5" y="240.667" class="elknode"/><rect id="rect175" width="8" height="8" x="834.5" y="257.167" class="elkport" style="fill:#66c;stroke:#448;stroke-width:1"/><rect style="fill:#ddf;stroke:#448;stroke-width:1" id="rect178" width="61" height="41" x="842.5" y="321.667" class="elknode"/><rect id="rect182" width="8" height="8" x="834.5" y="338.167" class="elkport" style="fill:#66c;stroke:#448;stroke-width:1"/><rect style="fill:#ddf;stroke:#448;stroke-width:1" id="rect185" width="61" height="41" x="13.5" y="216.983" class="elknode"/><rect id="rect189" width="8" height="8" x="74.5" y="221.233" class="elkport" style="fill:#66c;stroke:#448;stroke-width:1"/><rect id="rect192" width="8" height="8" x="74.5" y="233.483" class="elkport" style="fill:#66c;stroke:#448;stroke-width:1"/><rect id="rect195" width="8" height="8" x="74.5" y="245.733" class="elkport" style="fill:#66c;stroke:#448;stroke-width:1"/><rect id="rect198" width="8" height="8" x="5.5" y="233.483" class="elkport" style="fill:#66c;stroke:#448;stroke-width:1"/><rect style="fill:#ddf;stroke:#448;stroke-width:1" id="rect201" width="41" height="31" x="353.5" y="36.5" class="elknode"/><rect id="rect205" width="8" height="8" x="345.5" y="48" class="elkport" style="fill:#66c;stroke:#448;stroke-width:1"/><rect style="fill:#ddf;stroke:#448;stroke-width:1" id="rect208" width="61" height="41" x="236.5" y="232.5" class="elknode"/><rect id="rect212" width="8" height="8" x="228.5" y="234.3" class="elkport" style="fill:#66c;stroke:#448;stroke-width:1"/><rect id="rect215" width="8" height="8" x="297.5" y="236.75" class="elkport" style="fill:#66c;stroke:#448;stroke-width:1"/><rect id="rect218" width="8" height="8" x="228.5" y="244.1" class="elkport" style="fill:#66c;stroke:#448;stroke-width:1"/><rect id="rect221" width="8" height="8" x="228.5" y="253.9" class="elkport" style="fill:#66c;stroke:#448;stroke-width:1"/><rect id="rect224" width="8" height="8" x="228.5" y="263.7" class="elkport" style="fill:#66c;stroke:#448;stroke-width:1"/><rect id="rect227" width="8" height="8" x="297.5" y="249" class="elkport" style="fill:#66c;stroke:#448;stroke-width:1"/><rect id="rect230" width="8" height="8" x="297.5" y="261.25" class="elkport" style="fill:#66c;stroke:#448;stroke-width:1"/><rect style="fill:#ddf;stroke:#448;stroke-width:1" id="rect233" width="101" height="93" x="353.5" y="107.5" class="elknode"/><rect id="rect237" width="8" height="8" x="345.5" y="156" class="elkport" style="fill:#66c;stroke:#448;stroke-width:1"/><rect id="rect240" width="8" height="8" x="454.5" y="156" class="elkport" style="fill:#66c;stroke:#448;stroke-width:1"/><rect id="rect243" width="61" height="41" x="373.5" y="139.5" class="elknode" style="fill:#ddf;stroke:#448;stroke-width:1"/><rect style="fill:#66c;stroke:#448;stroke-width:1" id="rect247" width="8" height="8" x="365.5" y="156" class="elkport"/><rect style="fill:#66c;stroke:#448;stroke-width:1" id="rect250" width="8" height="8" x="434.5" y="156" class="elkport"/><rect style="fill:#66c;stroke:#448;stroke-width:1" id="rect253" width="8" height="8" x="400" y="180.5" class="elkport"/><path id="path256" d="m 353.5,160 12,0" class="elkedge" style="fill:none;stroke:#224;stroke-width:1"/><path id="path258" d="m 365.5,160 -8,3 0,-6 z" class="edge arrow"/><path id="path261" d="m 442.5,160 12,0" class="elkedge" style="fill:none;stroke:#224;stroke-width:1"/><path id="path263" d="m 454.5,160 -8,3 0,-6 z" class="edge arrow"/><rect style="fill:#ddf;stroke:#448;stroke-width:1" id="rect266" width="101" height="93" x="353.5" y="405.5" class="elknode"/><rect id="rect270" width="8" height="8" x="345.5" y="454" class="elkport" style="fill:#66c;stroke:#448;stroke-width:1"/><rect id="rect273" width="8" height="8" x="454.5" y="454" class="elkport" style="fill:#66c;stroke:#448;stroke-width:1"/><rect id="rect276" width="61" height="41" x="373.5" y="437.5" class="elknode" style="fill:#ddf;stroke:#448;stroke-width:1"/><g id="g3996" transform="translate(-6.4999997,-6.5000033)"><text style="font-size:13.33329964px;line-height:19.04759979px;stroke:#000;stroke-width:0;font-family:sans-serif" id="sprotty_G1.N1.L1" x="497" y="103.167" class="elklabel">channel1</text><text id="sprotty_G1.N1.N2.L2" x="537" y="146.167" class="elklabel" style="font-size:13.33329964px;line-height:19.04759979px;stroke:#000;stroke-width:0;font-family:sans-serif">Counter</text><text id="sprotty_G1.N1.N3.L3" x="634" y="138" class="elklabel" style="font-size:13.33329964px;line-height:19.04759979px;stroke:#000;stroke-width:0;font-family:sans-serif">RecordAssembler</text><text id="sprotty_G1.N1.N4.L4" x="766" y="143" class="elklabel" style="font-size:13.33329964px;line-height:19.04759979px;stroke:#000;stroke-width:0;font-family:sans-serif">Display</text><text style="font-size:13.33329964px;line-height:19.04759979px;stroke:#000;stroke-width:0;font-family:sans-serif" id="sprotty_G1.N5.L5" x="560.75" y="239.167" class="elklabel">Counter - q1</text><text style="font-size:13.33329964px;line-height:19.04759979px;stroke:#000;stroke-width:0;font-family:sans-serif" id="sprotty_G1.N6.L6" x="497" y="401.167" class="elklabel">channel2</text><text id="sprotty_G1.N6.N7.L7" x="537" y="444.167" class="elklabel" style="font-size:13.33329964px;line-height:19.04759979px;stroke:#000;stroke-width:0;font-family:sans-serif">Counter</text><text id="sprotty_G1.N6.N8.L8" x="634" y="436" class="elklabel" style="font-size:13.33329964px;line-height:19.04759979px;stroke:#000;stroke-width:0;font-family:sans-serif">RecordAssembler</text><text id="sprotty_G1.N6.N9.L9" x="766" y="441" class="elklabel" style="font-size:13.33329964px;line-height:19.04759979px;stroke:#000;stroke-width:0;font-family:sans-serif">Display</text><text style="font-size:13.33329964px;line-height:19.04759979px;stroke:#000;stroke-width:0;font-family:sans-serif" id="sprotty_G1.N10.L10" x="560.75" y="320.167" class="elklabel">Counter - q2</text><text style="font-size:13.33329964px;line-height:19.04759979px;stroke:#000;stroke-width:0;font-family:sans-serif" id="sprotty_G1.N11.L11" x="146" y="235.9" class="elklabel">Ramp</text><text style="font-size:13.33329964px;line-height:19.04759979px;stroke:#000;stroke-width:0;font-family:sans-serif" id="sprotty_G1.N12.L12" x="849" y="239.167" class="elklabel">MonitorValue - q1 length</text><text style="font-size:13.33329964px;line-height:19.04759979px;stroke:#000;stroke-width:0;font-family:sans-serif" id="sprotty_G1.N13.L13" x="849" y="320.167" class="elklabel">MonitorValue - q2 length</text><text style="font-size:13.33329964px;line-height:19.04759979px;stroke:#000;stroke-width:0;font-family:sans-serif" id="sprotty_G1.N14.L14" x="20" y="215.483" class="elklabel">DatagramReader</text><text style="font-size:13.33329964px;line-height:19.04759979px;stroke:#000;stroke-width:0;font-family:sans-serif" id="sprotty_G1.N15.L15" x="360" y="35" class="elklabel">Display</text><text style="font-size:13.33329964px;line-height:19.04759979px;stroke:#000;stroke-width:0;font-family:sans-serif" id="sprotty_G1.N16.L16" x="243" y="231" class="elklabel">QueueControl</text><text style="font-size:13.33329964px;line-height:19.04759979px;stroke:#000;stroke-width:0;font-family:sans-serif" id="sprotty_G1.N17.L17" x="360" y="106" class="elklabel">Interface - fast</text><text id="sprotty_G1.N17.N18.L18" x="380" y="138" class="elklabel" style="font-size:13.33329964px;line-height:19.04759979px;stroke:#000;stroke-width:0;font-family:sans-serif">Sleep</text><text style="font-size:13.33329964px;line-height:19.04759979px;stroke:#000;stroke-width:0;font-family:sans-serif" id="sprotty_G1.N19.L19" x="360" y="404" class="elklabel">Interface - slow</text><text id="sprotty_G1.N19.N20.L20" x="380" y="436" class="elklabel" style="font-size:13.33329964px;line-height:19.04759979px;stroke:#000;stroke-width:0;font-family:sans-serif">Sleep</text></g><rect style="fill:#66c;stroke:#448;stroke-width:1" id="rect280" width="8" height="8" x="365.5" y="454" class="elkport"/><rect style="fill:#66c;stroke:#448;stroke-width:1" id="rect283" width="8" height="8" x="434.5" y="454" class="elkport"/><rect style="fill:#66c;stroke:#448;stroke-width:1" id="rect286" width="8" height="8" x="400" y="478.5" class="elkport"/><path id="path289" d="m 353.5,458 12,0" class="elkedge" style="fill:none;stroke:#224;stroke-width:1"/><path id="path291" d="m 365.5,458 -8,3 0,-6 z" class="edge arrow"/><path id="path294" d="m 442.5,458 12,0" class="elkedge" style="fill:none;stroke:#224;stroke-width:1"/><path id="path296" d="m 454.5,458 -8,3 0,-6 z" class="edge arrow"/><path style="fill:none;stroke:#224;stroke-width:1" id="path299" d="m 623.25,261.16667 211.25,0" class="elkedge"/><path id="path301" d="m 834.5,261.16667 -8,3 0,-6 z" class="edge arrow"/><path style="fill:none;stroke:#224;stroke-width:1" id="path304" d="m 623.25,261.16667 201.25,0 0,-255.6666733 -606,0 0,242.6000033 10,0" class="elkedge"/><path id="path306" d="m 228.5,248.1 -8,3 0,-6 z" class="edge arrow"/><circle id="circle309" cx="0" cy="0" r="2" d="M 2,0 C 2,1.1045695 1.1045695,2 0,2 -1.1045695,2 -2,1.1045695 -2,0 c 0,-1.1045695 0.8954305,-2 2,-2 1.1045695,0 2,0.8954305 2,2 z" class="elkjunction" transform="translate(824.5,261.16667)" style="fill:#224"/><path style="fill:none;stroke:#224;stroke-width:1" id="path312" d="m 623.25,342.16667 211.25,0" class="elkedge"/><path id="path314" d="m 834.5,342.16667 -8,3 0,-6 z" class="edge arrow"/><path style="fill:none;stroke:#224;stroke-width:1" id="path317" d="m 623.25,342.16667 201.25,0 0,166.5 -606,0 0,-240.96667 10,0" class="elkedge"/><path id="path319" d="m 228.5,267.7 -8,3 0,-6 z" class="edge arrow"/><circle id="circle322" cx="0" cy="0" r="2" d="M 2,0 C 2,1.1045695 1.1045695,2 0,2 -1.1045695,2 -2,1.1045695 -2,0 c 0,-1.1045695 0.8954305,-2 2,-2 1.1045695,0 2,0.8954305 2,2 z" class="elkjunction" transform="translate(824.5,342.16667)" style="fill:#224"/><path style="fill:none;stroke:#224;stroke-width:1" id="path325" d="m 208.5,257.9 20,0" class="elkedge"/><path id="path327" d="m 228.5,257.9 -8,3 0,-6 z" class="edge arrow"/><path style="fill:none;stroke:#224;stroke-width:1" id="path330" d="m 82.5,249.73333 49,0" class="elkedge"/><path id="path332" d="m 131.5,249.73333 -8,3 0,-6 z" class="edge arrow"/><path style="fill:none;stroke:#224;stroke-width:1" id="path335" d="m 305.5,253 240.75,0" class="elkedge"/><path id="path337" d="m 546.25,253 -8,3 0,-6 z" class="edge arrow"/><path style="fill:none;stroke:#224;stroke-width:1" id="path340" d="m 305.5,253 30,0 0,-93 10,0" class="elkedge"/><path id="path342" d="m 345.5,160 -8,3 0,-6 z" class="edge arrow"/><circle id="circle345" cx="0" cy="0" r="2" d="M 2,0 C 2,1.1045695 1.1045695,2 0,2 -1.1045695,2 -2,1.1045695 -2,0 c 0,-1.1045695 0.8954305,-2 2,-2 1.1045695,0 2,0.8954305 2,2 z" class="elkjunction" transform="translate(335.5,253)" style="fill:#224"/><path style="fill:none;stroke:#224;stroke-width:1" id="path348" d="m 305.5,265.25 20,0 0,68.75 220.75,0" class="elkedge"/><path id="path350" d="m 546.25,334 -8,3 0,-6 z" class="edge arrow"/><circle id="circle353" cx="0" cy="0" r="2" d="M 2,0 C 2,1.1045695 1.1045695,2 0,2 -1.1045695,2 -2,1.1045695 -2,0 c 0,-1.1045695 0.8954305,-2 2,-2 1.1045695,0 2,0.8954305 2,2 z" class="elkjunction" transform="translate(325.5,334)" style="fill:#224"/><path style="fill:none;stroke:#224;stroke-width:1" id="path356" d="m 305.5,265.25 20,0 0,192.75 20,0" class="elkedge"/><path id="path358" d="m 345.5,458 -8,3 0,-6 z" class="edge arrow"/><path style="fill:none;stroke:#224;stroke-width:1" id="path361" d="m 305.5,240.75 20,0 0,-188.750003 20,0" class="elkedge"/><path id="path363" d="m 345.5,51.999997 -8,3 0,-6 z" class="edge arrow"/><path style="fill:none;stroke:#224;stroke-width:1" id="path366" d="m 462.5,160 20,0" class="elkedge"/><path id="path368" d="m 482.5,160 -8,3 0,-6 z" class="edge arrow"/><path style="fill:none;stroke:#224;stroke-width:1" id="path371" d="m 462.5,160 10,0 0,109.33333 73.75,0" class="elkedge"/><path id="path373" d="m 546.25,269.33333 -8,3 0,-6 z" class="edge arrow"/><circle id="circle376" cx="0" cy="0" r="2" d="M 2,0 C 2,1.1045695 1.1045695,2 0,2 -1.1045695,2 -2,1.1045695 -2,0 c 0,-1.1045695 0.8954305,-2 2,-2 1.1045695,0 2,0.8954305 2,2 z" class="elkjunction" transform="translate(472.5,160)" style="fill:#224"/><path style="fill:none;stroke:#224;stroke-width:1" id="path379" d="m 462.5,458 20,0" class="elkedge"/><path id="path381" d="m 482.5,458 -8,3 0,-6 z" class="edge arrow"/><path style="fill:none;stroke:#224;stroke-width:1" id="path384" d="m 462.5,458 10,0 0,-107.66667 73.75,0" class="elkedge"/><path id="path386" d="m 546.25,350.33333 -8,3 0,-6 z" class="edge arrow"/><circle id="circle389" cx="0" cy="0" r="2" d="M 2,0 C 2,1.1045695 1.1045695,2 0,2 -1.1045695,2 -2,1.1045695 -2,0 c 0,-1.1045695 0.8954305,-2 2,-2 1.1045695,0 2,0.8954305 2,2 z" class="elkjunction" transform="translate(472.5,458)" style="fill:#224"/></svg>