<svg xmlns="http://www.w3.org/2000/svg" xmlns:svg="http://www.w3.org/2000/svg" xmlns:xlink="http://www.w3.org/1999/xlink" id="svg2" width="275.079" height="157.649" x="0" y="0" version="1.1" viewBox="0 0 275.079 157.649" xml:space="preserve"><metadata id="metadata289"/><defs id="defs287"><linearGradient id="linearGradient3266" x1=".5" x2="9.5" y1=".5" y2=".5" gradientUnits="userSpaceOnUse" xlink:href="#gradient-0"/><linearGradient id="linearGradient3268" x1=".5" x2="9.5" y1=".5" y2=".5" gradientUnits="userSpaceOnUse" xlink:href="#gradient-0"/><linearGradient id="linearGradient3270" x1=".5" x2="9.5" y1=".5" y2=".5" gradientUnits="userSpaceOnUse" xlink:href="#gradient-0"/><linearGradient id="linearGradient3272" x1="0" x2="10" y1="0" y2="0" gradientUnits="userSpaceOnUse" xlink:href="#gradient-0"/><linearGradient id="linearGradient3274" x1=".5" x2="9.5" y1=".5" y2=".5" gradientUnits="userSpaceOnUse" xlink:href="#gradient-0"/><linearGradient id="linearGradient3276" x1=".5" x2="9.5" y1=".5" y2=".5" gradientUnits="userSpaceOnUse" xlink:href="#gradient-0"/><linearGradient id="linearGradient3278" x1=".5" x2="9.5" y1=".5" y2=".5" gradientUnits="userSpaceOnUse" xlink:href="#gradient-0"/><linearGradient id="linearGradient3280" x1="0" x2="10" y1="0" y2="0" gradientUnits="userSpaceOnUse" xlink:href="#gradient-0"/><linearGradient id="linearGradient3282" x1=".5" x2="9.5" y1=".5" y2=".5" gradientUnits="userSpaceOnUse" xlink:href="#gradient-0"/><linearGradient id="linearGradient3284" x1=".5" x2="9.5" y1=".5" y2=".5" gradientUnits="userSpaceOnUse" xlink:href="#gradient-0"/><linearGradient id="linearGradient3286" x1=".5" x2="9.5" y1=".5" y2=".5" gradientUnits="userSpaceOnUse" xlink:href="#gradient-0"/><linearGradient id="linearGradient3288" x1="0" x2="10" y1="0" y2="0" gradientUnits="userSpaceOnUse" xlink:href="#gradient-0"/><linearGradient id="linearGradient3290" x1=".5" x2="9.5" y1=".5" y2=".5" gradientUnits="userSpaceOnUse" xlink:href="#gradient-0"/><linearGradient id="linearGradient3292" x1=".5" x2="9.5" y1=".5" y2=".5" gradientUnits="userSpaceOnUse" xlink:href="#gradient-0"/><linearGradient id="linearGradient3294" x1=".5" x2="9.5" y1=".5" y2=".5" gradientUnits="userSpaceOnUse" xlink:href="#gradient-0"/><linearGradient id="linearGradient3296" x1="0" x2="10" y1="0" y2="0" gradientUnits="userSpaceOnUse" xlink:href="#gradient-0"/><linearGradient id="linearGradient3298" x1=".5" x2="9.5" y1=".5" y2=".5" gradientUnits="userSpaceOnUse" xlink:href="#gradient-0"/><linearGradient id="linearGradient3300" x1=".5" x2="9.5" y1=".5" y2=".5" gradientUnits="userSpaceOnUse" xlink:href="#gradient-0"/><linearGradient id="linearGradient3302" x1=".5" x2="9.5" y1=".5" y2=".5" gradientUnits="userSpaceOnUse" xlink:href="#gradient-0"/><linearGradient id="linearGradient3304" x1="0" x2="10" y1="0" y2="0" gradientUnits="userSpaceOnUse" xlink:href="#gradient-0"/><linearGradient id="linearGradient3306" x1=".5" x2="9.5" y1=".5" y2=".5" gradientUnits="userSpaceOnUse" xlink:href="#gradient-0"/><linearGradient id="linearGradient3308" x1=".5" x2="9.5" y1=".5" y2=".5" gradientUnits="userSpaceOnUse" xlink:href="#gradient-0"/><linearGradient id="linearGradient3310" x1=".5" x2="9.5" y1=".5" y2=".5" gradientUnits="userSpaceOnUse" xlink:href="#gradient-0"/><linearGradient id="linearGradient3312" x1="0" x2="10" y1="0" y2="0" gradientUnits="userSpaceOnUse" xlink:href="#gradient-0"/><linearGradient id="linearGradient3314" x1=".5" x2="9.5" y1=".5" y2=".5" gradientUnits="userSpaceOnUse" xlink:href="#gradient-0"/><linearGradient id="linearGradient3316" x1=".5" x2="9.5" y1=".5" y2=".5" gradientUnits="userSpaceOnUse" xlink:href="#gradient-0"/><linearGradient id="linearGradient3318" x1=".5" x2="9.5" y1=".5" y2=".5" gradientUnits="userSpaceOnUse" xlink:href="#gradient-0"/><linearGradient id="linearGradient3320" x1="0" x2="10" y1="0" y2="0" gradientUnits="userSpaceOnUse" xlink:href="#gradient-0"/><linearGradient id="linearGradient3322" x1=".5" x2="9.5" y1=".5" y2=".5" gradientUnits="userSpaceOnUse" xlink:href="#gradient-0"/><linearGradient id="linearGradient3324" x1=".5" x2="9.5" y1=".5" y2=".5" gradientUnits="userSpaceOnUse" xlink:href="#gradient-0"/><linearGradient id="linearGradient3326" x1=".5" x2="9.5" y1=".5" y2=".5" gradientUnits="userSpaceOnUse" xlink:href="#gradient-0"/><linearGradient id="linearGradient3328" x1="0" x2="10" y1="0" y2="0" gradientUnits="userSpaceOnUse" xlink:href="#gradient-0"/><linearGradient id="linearGradient3330" x1=".5" x2="9.5" y1=".5" y2=".5" gradientUnits="userSpaceOnUse" xlink:href="#gradient-0"/><linearGradient id="linearGradient3332" x1=".5" x2="9.5" y1=".5" y2=".5" gradientUnits="userSpaceOnUse" xlink:href="#gradient-0"/><linearGradient id="linearGradient3334" x1=".5" x2="9.5" y1=".5" y2=".5" gradientUnits="userSpaceOnUse" xlink:href="#gradient-0"/><linearGradient id="linearGradient3336" x1="0" x2="10" y1="0" y2="0" gradientUnits="userSpaceOnUse" xlink:href="#gradient-0"/><linearGradient id="linearGradient3338" x1=".5" x2="9.5" y1=".5" y2=".5" gradientUnits="userSpaceOnUse" xlink:href="#gradient-0"/><linearGradient id="linearGradient3340" x1=".5" x2="9.5" y1=".5" y2=".5" gradientUnits="userSpaceOnUse" xlink:href="#gradient-0"/><linearGradient id="linearGradient3342" x1=".5" x2="9.5" y1=".5" y2=".5" gradientUnits="userSpaceOnUse" xlink:href="#gradient-0"/><linearGradient id="linearGradient3344" x1="0" x2="10" y1="0" y2="0" gradientUnits="userSpaceOnUse" xlink:href="#gradient-0"/><linearGradient id="linearGradient3346" x1=".5" x2="9.5" y1=".5" y2=".5" gradientUnits="userSpaceOnUse" xlink:href="#gradient-0"/><linearGradient id="linearGradient3348" x1=".5" x2="9.5" y1=".5" y2=".5" gradientUnits="userSpaceOnUse" xlink:href="#gradient-0"/><linearGradient id="linearGradient3350" x1=".5" x2="9.5" y1=".5" y2=".5" gradientUnits="userSpaceOnUse" xlink:href="#gradient-0"/><linearGradient id="linearGradient3352" x1="0" x2="10" y1="0" y2="0" gradientUnits="userSpaceOnUse" xlink:href="#gradient-0"/><linearGradient id="linearGradient3354" x1=".5" x2="9.5" y1=".5" y2=".5" gradientUnits="userSpaceOnUse" xlink:href="#gradient-0"/><linearGradient id="linearGradient3356" x1=".5" x2="9.5" y1=".5" y2=".5" gradientUnits="userSpaceOnUse" xlink:href="#gradient-0"/><linearGradient id="linearGradient3358" x1=".5" x2="9.5" y1=".5" y2=".5" gradientUnits="userSpaceOnUse" xlink:href="#gradient-0"/><linearGradient id="linearGradient3360" x1="0" x2="10" y1="0" y2="0" gradientUnits="userSpaceOnUse" xlink:href="#gradient-0"/><linearGradient id="linearGradient3362" x1="207.383" x2="237.437" y1="45.721" y2="45.721" gradientTransform="scale(0.77758333,1.2860358)" gradientUnits="userSpaceOnUse" xlink:href="#gradient-0"/><linearGradient id="linearGradient3364" x1="199.839" x2="236.409" y1="84.769" y2="84.769" gradientTransform="scale(0.80771144,1.2380659)" gradientUnits="userSpaceOnUse" xlink:href="#gradient-0"/><linearGradient id="linearGradient3366" x1="437.933" x2="459.352" y1="66.494" y2="66.494" gradientTransform="scale(0.41987452,2.381664)" gradientUnits="userSpaceOnUse" xlink:href="#gradient-0"/><linearGradient id="linearGradient3368" x1="123.742" x2="161.415" y1="241.598" y2="241.598" gradientTransform="scale(1.1162498,0.89585679)" gradientUnits="userSpaceOnUse" xlink:href="#gradient-0"/><linearGradient id="linearGradient3370" x1="128.654" x2="153.403" y1="192.832" y2="192.832" gradientTransform="scale(1.2350191,0.80970405)" gradientUnits="userSpaceOnUse" xlink:href="#gradient-0"/><linearGradient id="linearGradient3372" x1="175.523" x2="201.267" y1="163.443" y2="163.443" gradientTransform="scale(0.89910516,1.112217)" gradientUnits="userSpaceOnUse" xlink:href="#gradient-0"/><linearGradient id="linearGradient3374" x1="39.138" x2="60.479" y1="259.523" y2="259.523" gradientTransform="scale(2.5587505,0.39081576)" gradientUnits="userSpaceOnUse" xlink:href="#gradient-0"/><linearGradient id="linearGradient3376" x1="424.337" x2="438.462" y1="81.623" y2="81.623" gradientTransform="scale(0.317242,3.1521677)" gradientUnits="userSpaceOnUse" xlink:href="#gradient-0"/><linearGradient id="linearGradient3378" x1="57.839" x2="93.316" y1="316.297" y2="316.297" gradientTransform="scale(1.401098,0.71372595)" gradientUnits="userSpaceOnUse" xlink:href="#gradient-0"/><linearGradient id="linearGradient3380" x1="100.841" x2="130.541" y1="174.68" y2="174.68" gradientTransform="scale(1.1617388,0.86077872)" gradientUnits="userSpaceOnUse" xlink:href="#gradient-0"/><linearGradient id="linearGradient3382" x1="139.041" x2="159.983" y1="79.773" y2="79.773" gradientTransform="scale(0.69997346,1.4286256)" gradientUnits="userSpaceOnUse" xlink:href="#gradient-0"/><linearGradient id="linearGradient3384" x1="64.863" x2="104.876" y1="100.656" y2="100.656" gradientTransform="scale(0.88777229,1.126415)" gradientUnits="userSpaceOnUse" xlink:href="#gradient-0"/><linearGradient id="linearGradient3386" x1="92.704" x2="125.245" y1="100.647" y2="100.647" gradientTransform="scale(0.60594345,1.650319)" gradientUnits="userSpaceOnUse" xlink:href="#gradient-0"/><linearGradient id="linearGradient3388" x1="64.874" x2="88.288" y1="306.744" y2="306.744" gradientTransform="scale(1.7095525,0.58494839)" gradientUnits="userSpaceOnUse" xlink:href="#gradient-0"/><linearGradient id="linearGradient3390" x1="256.747" x2="272.31" y1="63.43" y2="63.43" gradientTransform="scale(0.4163439,2.4018606)" gradientUnits="userSpaceOnUse" xlink:href="#gradient-0"/><linearGradient id="linearGradient3392" x1="80.419" x2="104.062" y1="196.405" y2="196.405" gradientTransform="scale(0.99585227,1.004165)" gradientUnits="userSpaceOnUse" xlink:href="#gradient-0"/><linearGradient id="linearGradient3394" x1="8.231" x2="190.493" y1="6.599" y2="6.599" gradientTransform="scale(0.75000271,1.3333285)" gradientUnits="userSpaceOnUse" xlink:href="#gradient-0"/><linearGradient id="linearGradient3396" x1="0" x2="186.332" y1="6.746" y2="6.746" gradientTransform="scale(0.7667512,1.304204)" gradientUnits="userSpaceOnUse" xlink:href="#gradient-0"/><linearGradient id="linearGradient3398" x1="0" x2="186.332" y1="6.746" y2="6.746" gradientTransform="scale(0.7667512,1.304204)" gradientUnits="userSpaceOnUse" xlink:href="#gradient-0"/><linearGradient id="linearGradient3400" x1="0" x2="186.332" y1="6.746" y2="6.746" gradientTransform="scale(0.7667512,1.304204)" gradientUnits="userSpaceOnUse" xlink:href="#gradient-0"/><linearGradient id="linearGradient3402" x1="0" x2="189.933" y1="6.618" y2="6.618" gradientTransform="scale(0.75221344,1.3294099)" gradientUnits="userSpaceOnUse" xlink:href="#gradient-0"/><linearGradient id="linearGradient3404" x1="0" x2="189.933" y1="6.618" y2="6.618" gradientTransform="scale(0.75221344,1.3294099)" gradientUnits="userSpaceOnUse" xlink:href="#gradient-0"/><linearGradient id="linearGradient3406" x1="0" x2="189.933" y1="6.618" y2="6.618" gradientTransform="scale(0.75221344,1.3294099)" gradientUnits="userSpaceOnUse" xlink:href="#gradient-0"/><linearGradient id="linearGradient3408" x1="0" x2="189.933" y1="6.618" y2="6.618" gradientTransform="scale(0.75221344,1.3294099)" gradientUnits="userSpaceOnUse" xlink:href="#gradient-0"/><linearGradient id="linearGradient3410" x1="0" x2="193.417" y1="6.74" y2="6.74" gradientTransform="scale(0.76601051,1.3054651)" gradientUnits="userSpaceOnUse" xlink:href="#gradient-0"/><linearGradient id="linearGradient3412" x1="0" x2="193.417" y1="6.74" y2="6.74" gradientTransform="scale(0.76601051,1.3054651)" gradientUnits="userSpaceOnUse" xlink:href="#gradient-0"/><linearGradient id="linearGradient3414" x1="0" x2="193.417" y1="6.74" y2="6.74" gradientTransform="scale(0.76601051,1.3054651)" gradientUnits="userSpaceOnUse" xlink:href="#gradient-0"/><linearGradient id="linearGradient3416" x1="0" x2="196.758" y1="0" y2="0" gradientTransform="scale(0.75300333,1.3280154)" gradientUnits="userSpaceOnUse" xlink:href="#gradient-0"/><defs id="defs14"><linearGradient id="gradient-0" gradientTransform="matrix(0,1,-1,0,0,0)" gradientUnits="objectBoundingBox"><stop id="stop17" offset="0" opacity-stop="1" stop-color="#ebf6fa"/><stop id="stop19" offset="1" opacity-stop="1" stop-color="#c4e3f3"/></linearGradient></defs><linearGradient id="linearGradient3556" x1=".5" x2="9.5" y1=".5" y2=".5" gradientUnits="userSpaceOnUse" xlink:href="#gradient-0"/><linearGradient id="linearGradient3558" x1=".5" x2="9.5" y1=".5" y2=".5" gradientUnits="userSpaceOnUse" xlink:href="#gradient-0"/><linearGradient id="linearGradient3560" x1="0" x2="10" y1="0" y2="0" gradientUnits="userSpaceOnUse" xlink:href="#gradient-0"/><linearGradient id="linearGradient3562" x1=".5" x2="9.5" y1=".5" y2=".5" gradientUnits="userSpaceOnUse" xlink:href="#gradient-0"/><linearGradient id="linearGradient3564" x1=".5" x2="9.5" y1=".5" y2=".5" gradientUnits="userSpaceOnUse" xlink:href="#gradient-0"/><linearGradient id="linearGradient3566" x1="0" x2="10" y1="0" y2="0" gradientUnits="userSpaceOnUse" xlink:href="#gradient-0"/><linearGradient id="linearGradient3568" x1=".5" x2="9.5" y1=".5" y2=".5" gradientUnits="userSpaceOnUse" xlink:href="#gradient-0"/><linearGradient id="linearGradient3570" x1=".5" x2="9.5" y1=".5" y2=".5" gradientUnits="userSpaceOnUse" xlink:href="#gradient-0"/><linearGradient id="linearGradient3572" x1="0" x2="10" y1="0" y2="0" gradientUnits="userSpaceOnUse" xlink:href="#gradient-0"/><linearGradient id="linearGradient3574" x1=".5" x2="9.5" y1=".5" y2=".5" gradientUnits="userSpaceOnUse" xlink:href="#gradient-0"/><linearGradient id="linearGradient3576" x1=".5" x2="9.5" y1=".5" y2=".5" gradientUnits="userSpaceOnUse" xlink:href="#gradient-0"/><linearGradient id="linearGradient3578" x1="0" x2="10" y1="0" y2="0" gradientUnits="userSpaceOnUse" xlink:href="#gradient-0"/><linearGradient id="linearGradient3580" x1=".5" x2="9.5" y1=".5" y2=".5" gradientUnits="userSpaceOnUse" xlink:href="#gradient-0"/><linearGradient id="linearGradient3582" x1=".5" x2="9.5" y1=".5" y2=".5" gradientUnits="userSpaceOnUse" xlink:href="#gradient-0"/><linearGradient id="linearGradient3584" x1="0" x2="10" y1="0" y2="0" gradientUnits="userSpaceOnUse" xlink:href="#gradient-0"/><linearGradient id="linearGradient3586" x1=".5" x2="9.5" y1=".5" y2=".5" gradientUnits="userSpaceOnUse" xlink:href="#gradient-0"/><linearGradient id="linearGradient3588" x1=".5" x2="9.5" y1=".5" y2=".5" gradientUnits="userSpaceOnUse" xlink:href="#gradient-0"/><linearGradient id="linearGradient3590" x1="0" x2="10" y1="0" y2="0" gradientUnits="userSpaceOnUse" xlink:href="#gradient-0"/><linearGradient id="linearGradient3592" x1=".5" x2="9.5" y1=".5" y2=".5" gradientUnits="userSpaceOnUse" xlink:href="#gradient-0"/><linearGradient id="linearGradient3594" x1=".5" x2="9.5" y1=".5" y2=".5" gradientUnits="userSpaceOnUse" xlink:href="#gradient-0"/><linearGradient id="linearGradient3596" x1="0" x2="10" y1="0" y2="0" gradientUnits="userSpaceOnUse" xlink:href="#gradient-0"/><linearGradient id="linearGradient3598" x1=".5" x2="9.5" y1=".5" y2=".5" gradientUnits="userSpaceOnUse" xlink:href="#gradient-0"/><linearGradient id="linearGradient3600" x1=".5" x2="9.5" y1=".5" y2=".5" gradientUnits="userSpaceOnUse" xlink:href="#gradient-0"/><linearGradient id="linearGradient3602" x1="0" x2="10" y1="0" y2="0" gradientUnits="userSpaceOnUse" xlink:href="#gradient-0"/><linearGradient id="linearGradient3604" x1=".5" x2="9.5" y1=".5" y2=".5" gradientUnits="userSpaceOnUse" xlink:href="#gradient-0"/><linearGradient id="linearGradient3606" x1=".5" x2="9.5" y1=".5" y2=".5" gradientUnits="userSpaceOnUse" xlink:href="#gradient-0"/><linearGradient id="linearGradient3608" x1="0" x2="10" y1="0" y2="0" gradientUnits="userSpaceOnUse" xlink:href="#gradient-0"/><linearGradient id="linearGradient3610" x1=".5" x2="9.5" y1=".5" y2=".5" gradientUnits="userSpaceOnUse" xlink:href="#gradient-0"/><linearGradient id="linearGradient3612" x1=".5" x2="9.5" y1=".5" y2=".5" gradientUnits="userSpaceOnUse" xlink:href="#gradient-0"/><linearGradient id="linearGradient3614" x1="0" x2="10" y1="0" y2="0" gradientUnits="userSpaceOnUse" xlink:href="#gradient-0"/><linearGradient id="linearGradient3616" x1=".5" x2="9.5" y1=".5" y2=".5" gradientUnits="userSpaceOnUse" xlink:href="#gradient-0"/><linearGradient id="linearGradient3618" x1=".5" x2="9.5" y1=".5" y2=".5" gradientUnits="userSpaceOnUse" xlink:href="#gradient-0"/><linearGradient id="linearGradient3620" x1="0" x2="10" y1="0" y2="0" gradientUnits="userSpaceOnUse" xlink:href="#gradient-0"/><linearGradient id="linearGradient3622" x1=".5" x2="9.5" y1=".5" y2=".5" gradientUnits="userSpaceOnUse" xlink:href="#gradient-0"/><linearGradient id="linearGradient3624" x1=".5" x2="9.5" y1=".5" y2=".5" gradientUnits="userSpaceOnUse" xlink:href="#gradient-0"/><linearGradient id="linearGradient3626" x1="0" x2="10" y1="0" y2="0" gradientUnits="userSpaceOnUse" xlink:href="#gradient-0"/><linearGradient id="linearGradient3628" x1="207.383" x2="237.437" y1="45.721" y2="45.721" gradientTransform="scale(0.77758333,1.2860358)" gradientUnits="userSpaceOnUse" xlink:href="#gradient-0"/><linearGradient id="linearGradient3630" x1="199.839" x2="236.409" y1="84.769" y2="84.769" gradientTransform="scale(0.80771144,1.2380659)" gradientUnits="userSpaceOnUse" xlink:href="#gradient-0"/><linearGradient id="linearGradient3632" x1="437.933" x2="459.352" y1="66.494" y2="66.494" gradientTransform="scale(0.41987452,2.381664)" gradientUnits="userSpaceOnUse" xlink:href="#gradient-0"/><linearGradient id="linearGradient3634" x1="123.742" x2="161.415" y1="241.598" y2="241.598" gradientTransform="scale(1.1162498,0.89585679)" gradientUnits="userSpaceOnUse" xlink:href="#gradient-0"/><linearGradient id="linearGradient3636" x1="128.654" x2="153.403" y1="192.832" y2="192.832" gradientTransform="scale(1.2350191,0.80970405)" gradientUnits="userSpaceOnUse" xlink:href="#gradient-0"/><linearGradient id="linearGradient3638" x1="175.523" x2="201.267" y1="163.443" y2="163.443" gradientTransform="scale(0.89910516,1.112217)" gradientUnits="userSpaceOnUse" xlink:href="#gradient-0"/><linearGradient id="linearGradient3640" x1="39.138" x2="60.479" y1="259.523" y2="259.523" gradientTransform="scale(2.5587505,0.39081576)" gradientUnits="userSpaceOnUse" xlink:href="#gradient-0"/><linearGradient id="linearGradient3642" x1="424.337" x2="438.462" y1="81.623" y2="81.623" gradientTransform="scale(0.317242,3.1521677)" gradientUnits="userSpaceOnUse" xlink:href="#gradient-0"/><linearGradient id="linearGradient3644" x1="57.839" x2="93.316" y1="316.297" y2="316.297" gradientTransform="scale(1.401098,0.71372595)" gradientUnits="userSpaceOnUse" xlink:href="#gradient-0"/><linearGradient id="linearGradient3646" x1="100.841" x2="130.541" y1="174.68" y2="174.68" gradientTransform="scale(1.1617388,0.86077872)" gradientUnits="userSpaceOnUse" xlink:href="#gradient-0"/><linearGradient id="linearGradient3648" x1="139.041" x2="159.983" y1="79.773" y2="79.773" gradientTransform="scale(0.69997346,1.4286256)" gradientUnits="userSpaceOnUse" xlink:href="#gradient-0"/><linearGradient id="linearGradient3650" x1="64.863" x2="104.876" y1="100.656" y2="100.656" gradientTransform="scale(0.88777229,1.126415)" gradientUnits="userSpaceOnUse" xlink:href="#gradient-0"/><linearGradient id="linearGradient3652" x1="92.704" x2="125.245" y1="100.647" y2="100.647" gradientTransform="scale(0.60594345,1.650319)" gradientUnits="userSpaceOnUse" xlink:href="#gradient-0"/><linearGradient id="linearGradient3654" x1="64.874" x2="88.288" y1="306.744" y2="306.744" gradientTransform="scale(1.7095525,0.58494839)" gradientUnits="userSpaceOnUse" xlink:href="#gradient-0"/><linearGradient id="linearGradient3656" x1="256.747" x2="272.31" y1="63.43" y2="63.43" gradientTransform="scale(0.4163439,2.4018606)" gradientUnits="userSpaceOnUse" xlink:href="#gradient-0"/><linearGradient id="linearGradient3658" x1="80.419" x2="104.062" y1="196.405" y2="196.405" gradientTransform="scale(0.99585227,1.004165)" gradientUnits="userSpaceOnUse" xlink:href="#gradient-0"/><linearGradient id="linearGradient3660" x1="8.231" x2="190.493" y1="6.599" y2="6.599" gradientTransform="scale(0.75000271,1.3333285)" gradientUnits="userSpaceOnUse" xlink:href="#gradient-0"/><linearGradient id="linearGradient3662" x1="0" x2="186.332" y1="6.746" y2="6.746" gradientTransform="scale(0.7667512,1.304204)" gradientUnits="userSpaceOnUse" xlink:href="#gradient-0"/><linearGradient id="linearGradient3664" x1="0" x2="186.332" y1="6.746" y2="6.746" gradientTransform="scale(0.7667512,1.304204)" gradientUnits="userSpaceOnUse" xlink:href="#gradient-0"/><linearGradient id="linearGradient3666" x1="0" x2="186.332" y1="6.746" y2="6.746" gradientTransform="scale(0.7667512,1.304204)" gradientUnits="userSpaceOnUse" xlink:href="#gradient-0"/><linearGradient id="linearGradient3668" x1="0" x2="189.933" y1="6.618" y2="6.618" gradientTransform="scale(0.75221344,1.3294099)" gradientUnits="userSpaceOnUse" xlink:href="#gradient-0"/><linearGradient id="linearGradient3670" x1="0" x2="189.933" y1="6.618" y2="6.618" gradientTransform="scale(0.75221344,1.3294099)" gradientUnits="userSpaceOnUse" xlink:href="#gradient-0"/><linearGradient id="linearGradient3672" x1="0" x2="189.933" y1="6.618" y2="6.618" gradientTransform="scale(0.75221344,1.3294099)" gradientUnits="userSpaceOnUse" xlink:href="#gradient-0"/><linearGradient id="linearGradient3674" x1="0" x2="189.933" y1="6.618" y2="6.618" gradientTransform="scale(0.75221344,1.3294099)" gradientUnits="userSpaceOnUse" xlink:href="#gradient-0"/><linearGradient id="linearGradient3676" x1="0" x2="193.417" y1="6.74" y2="6.74" gradientTransform="scale(0.76601051,1.3054651)" gradientUnits="userSpaceOnUse" xlink:href="#gradient-0"/><linearGradient id="linearGradient3678" x1="0" x2="193.417" y1="6.74" y2="6.74" gradientTransform="scale(0.76601051,1.3054651)" gradientUnits="userSpaceOnUse" xlink:href="#gradient-0"/><linearGradient id="linearGradient3680" x1="0" x2="193.417" y1="6.74" y2="6.74" gradientTransform="scale(0.76601051,1.3054651)" gradientUnits="userSpaceOnUse" xlink:href="#gradient-0"/><linearGradient id="linearGradient3682" x1="0" x2="196.758" y1="0" y2="0" gradientTransform="scale(0.75300333,1.3280154)" gradientUnits="userSpaceOnUse" xlink:href="#gradient-0"/></defs><desc id="desc6">Creator: FreeHEP Graphics2D Driver Producer: de.cau.cs.kieler.klighd.piccolo.freehep.SemanticSVGGraphics2D Revision Source: Date: Thursday, September 7, 2017 2:16:27 PM CEST</desc><g style="stroke:url(#linearGradient3682);stroke-width:1;stroke-linecap:square;stroke-linejoin:miter;stroke-miterlimit:10;stroke-dasharray:none;stroke-dashoffset:0" id="g21" transform="matrix(0.25881905,0.96592583,-0.96592583,0.25881905,234.53148,-23.787437)"><g style="stroke:url(#linearGradient3558);stroke-width:1" id="g23" transform="translate(131.68069,0)"><g style="fill:url(#linearGradient3556);fill-opacity:1;fill-rule:nonzero;stroke:none" id="g25"><path style="fill:url(#linearGradient3266)" id="path27" d="m 0.5,5 0,0 c 0,2.4852814 2.0147186,4.5 4.5,4.5 l 0,0 C 7.4852814,9.5 9.5,7.4852814 9.5,5 l 0,0 C 9.5,2.5147186 7.4852814,0.5 5,0.5 l 0,0 C 2.5147186,0.5 0.5,2.5147186 0.5,5 z"/></g></g><g style="stroke:url(#linearGradient3560);stroke-width:1" id="g29" transform="translate(131.68069,0)"><g style="fill:none;stroke:#000;stroke-width:1;stroke-linecap:butt;stroke-opacity:1" id="g31"><path id="path33" d="m 0.5,5 0,0 c 0,2.4852814 2.0147186,4.5 4.5,4.5 l 0,0 C 7.4852814,9.5 9.5,7.4852814 9.5,5 l 0,0 C 9.5,2.5147186 7.4852814,0.5 5,0.5 l 0,0 C 2.5147186,0.5 0.5,2.5147186 0.5,5 z" style="stroke-width:1"/></g></g><g style="stroke:url(#linearGradient3680);stroke-width:1" id="g35"><g style="stroke:url(#linearGradient3564);stroke-width:1" id="g37" transform="translate(104.20348,46.247421)"><g style="fill:url(#linearGradient3562);fill-opacity:1;fill-rule:nonzero;stroke:none" id="g39"><path style="fill:url(#linearGradient3274)" id="path41" d="m 0.5,5 0,0 c 0,2.4852814 2.0147186,4.5 4.5,4.5 l 0,0 C 7.4852814,9.5 9.5,7.4852814 9.5,5 l 0,0 C 9.5,2.5147186 7.4852814,0.5 5,0.5 l 0,0 C 2.5147186,0.5 0.5,2.5147186 0.5,5 z"/></g></g><g style="stroke:url(#linearGradient3566);stroke-width:1" id="g43" transform="translate(104.20348,46.247421)"><g style="fill:none;stroke:#000;stroke-width:1;stroke-linecap:butt;stroke-opacity:1" id="g45"><path id="path47" d="m 0.5,5 0,0 c 0,2.4852814 2.0147186,4.5 4.5,4.5 l 0,0 C 7.4852814,9.5 9.5,7.4852814 9.5,5 l 0,0 C 9.5,2.5147186 7.4852814,0.5 5,0.5 l 0,0 C 2.5147186,0.5 0.5,2.5147186 0.5,5 z" style="stroke-width:1"/></g></g><g style="stroke:url(#linearGradient3678);stroke-width:1" id="g49"><g style="stroke:url(#linearGradient3570);stroke-width:1" id="g51" transform="translate(128.58757,158.81882)"><g style="fill:url(#linearGradient3568);fill-opacity:1;fill-rule:nonzero;stroke:none" id="g53"><path style="fill:url(#linearGradient3282)" id="path55" d="m 0.5,5 0,0 c 0,2.4852814 2.0147186,4.5 4.5,4.5 l 0,0 C 7.4852814,9.5 9.5,7.4852814 9.5,5 l 0,0 C 9.5,2.5147186 7.4852814,0.5 5,0.5 l 0,0 C 2.5147186,0.5 0.5,2.5147186 0.5,5 z"/></g></g><g style="stroke:url(#linearGradient3572);stroke-width:1" id="g57" transform="translate(128.58757,158.81882)"><g style="fill:none;stroke:#000;stroke-width:1;stroke-linecap:butt;stroke-opacity:1" id="g59"><path id="path61" d="m 0.5,5 0,0 c 0,2.4852814 2.0147186,4.5 4.5,4.5 l 0,0 C 7.4852814,9.5 9.5,7.4852814 9.5,5 l 0,0 C 9.5,2.5147186 7.4852814,0.5 5,0.5 l 0,0 C 2.5147186,0.5 0.5,2.5147186 0.5,5 z" style="stroke-width:1"/></g></g><g style="stroke:url(#linearGradient3676);stroke-width:1" id="g63"><g style="stroke:url(#linearGradient3576);stroke-width:1" id="g65" transform="translate(138.15944,98.929337)"><g style="fill:url(#linearGradient3574);fill-opacity:1;fill-rule:nonzero;stroke:none" id="g67"><path style="fill:url(#linearGradient3290)" id="path69" d="m 0.5,5 0,0 c 0,2.4852814 2.0147186,4.5 4.5,4.5 l 0,0 C 7.4852814,9.5 9.5,7.4852814 9.5,5 l 0,0 C 9.5,2.5147186 7.4852814,0.5 5,0.5 l 0,0 C 2.5147186,0.5 0.5,2.5147186 0.5,5 z"/></g></g><g style="stroke:url(#linearGradient3578);stroke-width:1" id="g71" transform="translate(138.15944,98.929337)"><g style="fill:none;stroke:#000;stroke-width:1;stroke-linecap:butt;stroke-opacity:1" id="g73"><path id="path75" d="m 0.5,5 0,0 c 0,2.4852814 2.0147186,4.5 4.5,4.5 l 0,0 C 7.4852814,9.5 9.5,7.4852814 9.5,5 l 0,0 C 9.5,2.5147186 7.4852814,0.5 5,0.5 l 0,0 C 2.5147186,0.5 0.5,2.5147186 0.5,5 z" style="stroke-width:1"/></g></g><g style="stroke:url(#linearGradient3674);stroke-width:1" id="g77"><g style="stroke:url(#linearGradient3582);stroke-width:1" id="g79" transform="translate(79.718811,197.80385)"><g style="fill:url(#linearGradient3580);fill-opacity:1;fill-rule:nonzero;stroke:none" id="g81"><path style="fill:url(#linearGradient3298)" id="path83" d="m 0.5,5 0,0 c 0,2.4852814 2.0147186,4.5 4.5,4.5 l 0,0 C 7.4852814,9.5 9.5,7.4852814 9.5,5 l 0,0 C 9.5,2.5147186 7.4852814,0.5 5,0.5 l 0,0 C 2.5147186,0.5 0.5,2.5147186 0.5,5 z"/></g></g><g style="stroke:url(#linearGradient3584);stroke-width:1" id="g85" transform="translate(79.718811,197.80385)"><g style="fill:none;stroke:#000;stroke-width:1;stroke-linecap:butt;stroke-opacity:1" id="g87"><path id="path89" d="m 0.5,5 0,0 c 0,2.4852814 2.0147186,4.5 4.5,4.5 l 0,0 C 7.4852814,9.5 9.5,7.4852814 9.5,5 l 0,0 C 9.5,2.5147186 7.4852814,0.5 5,0.5 l 0,0 C 2.5147186,0.5 0.5,2.5147186 0.5,5 z" style="stroke-width:1"/></g></g><g style="stroke:url(#linearGradient3672);stroke-width:1" id="g91"><g style="stroke:url(#linearGradient3588);stroke-width:1" id="g93" transform="translate(100.18697,123.38255)"><g style="fill:url(#linearGradient3586);fill-opacity:1;fill-rule:nonzero;stroke:none" id="g95"><path style="fill:url(#linearGradient3306)" id="path97" d="m 0.5,5 0,0 c 0,2.4852814 2.0147186,4.5 4.5,4.5 l 0,0 C 7.4852814,9.5 9.5,7.4852814 9.5,5 l 0,0 C 9.5,2.5147186 7.4852814,0.5 5,0.5 l 0,0 C 2.5147186,0.5 0.5,2.5147186 0.5,5 z"/></g></g><g style="stroke:url(#linearGradient3590);stroke-width:1" id="g99" transform="translate(100.18697,123.38255)"><g style="fill:none;stroke:#000;stroke-width:1;stroke-linecap:butt;stroke-opacity:1" id="g101"><path id="path103" d="m 0.5,5 0,0 c 0,2.4852814 2.0147186,4.5 4.5,4.5 l 0,0 C 7.4852814,9.5 9.5,7.4852814 9.5,5 l 0,0 C 9.5,2.5147186 7.4852814,0.5 5,0.5 l 0,0 C 2.5147186,0.5 0.5,2.5147186 0.5,5 z" style="stroke-width:1"/></g></g><g style="stroke:url(#linearGradient3670);stroke-width:1" id="g105"><g style="stroke:url(#linearGradient3594);stroke-width:1" id="g107" transform="translate(40.689583,54.944481)"><g style="fill:url(#linearGradient3592);fill-opacity:1;fill-rule:nonzero;stroke:none" id="g109"><path style="fill:url(#linearGradient3314)" id="path111" d="m 0.5,5 0,0 c 0,2.4852814 2.0147186,4.5 4.5,4.5 l 0,0 C 7.4852814,9.5 9.5,7.4852814 9.5,5 l 0,0 C 9.5,2.5147186 7.4852814,0.5 5,0.5 l 0,0 C 2.5147186,0.5 0.5,2.5147186 0.5,5 z"/></g></g><g style="stroke:url(#linearGradient3596);stroke-width:1" id="g113" transform="translate(40.689583,54.944481)"><g style="fill:none;stroke:#000;stroke-width:1;stroke-linecap:butt;stroke-opacity:1" id="g115"><path id="path117" d="m 0.5,5 0,0 c 0,2.4852814 2.0147186,4.5 4.5,4.5 l 0,0 C 7.4852814,9.5 9.5,7.4852814 9.5,5 l 0,0 C 9.5,2.5147186 7.4852814,0.5 5,0.5 l 0,0 C 2.5147186,0.5 0.5,2.5147186 0.5,5 z" style="stroke-width:1"/></g></g><g style="stroke:url(#linearGradient3668);stroke-width:1" id="g119"><g style="stroke:url(#linearGradient3600);stroke-width:1" id="g121" transform="translate(83.997238,251.29767)"><g style="fill:url(#linearGradient3598);fill-opacity:1;fill-rule:nonzero;stroke:none" id="g123"><path style="fill:url(#linearGradient3322)" id="path125" d="m 0.5,5 0,0 c 0,2.4852814 2.0147186,4.5 4.5,4.5 l 0,0 C 7.4852814,9.5 9.5,7.4852814 9.5,5 l 0,0 C 9.5,2.5147186 7.4852814,0.5 5,0.5 l 0,0 C 2.5147186,0.5 0.5,2.5147186 0.5,5 z"/></g></g><g style="stroke:url(#linearGradient3602);stroke-width:1" id="g127" transform="translate(83.997238,251.29767)"><g style="fill:none;stroke:#000;stroke-width:1;stroke-linecap:butt;stroke-opacity:1" id="g129"><path id="path131" d="m 0.5,5 0,0 c 0,2.4852814 2.0147186,4.5 4.5,4.5 l 0,0 C 7.4852814,9.5 9.5,7.4852814 9.5,5 l 0,0 C 9.5,2.5147186 7.4852814,0.5 5,0.5 l 0,0 C 2.5147186,0.5 0.5,2.5147186 0.5,5 z" style="stroke-width:1"/></g></g><g style="stroke:url(#linearGradient3666);stroke-width:1" id="g133"><g style="stroke:url(#linearGradient3606);stroke-width:1" id="g135" transform="translate(22.064911,169.01538)"><g style="fill:url(#linearGradient3604);fill-opacity:1;fill-rule:nonzero;stroke:none" id="g137"><path style="fill:url(#linearGradient3330)" id="path139" d="m 0.5,5 0,0 c 0,2.4852814 2.0147186,4.5 4.5,4.5 l 0,0 C 7.4852814,9.5 9.5,7.4852814 9.5,5 l 0,0 C 9.5,2.5147186 7.4852814,0.5 5,0.5 l 0,0 C 2.5147186,0.5 0.5,2.5147186 0.5,5 z"/></g></g><g style="stroke:url(#linearGradient3608);stroke-width:1" id="g141" transform="translate(22.064911,169.01538)"><g style="fill:none;stroke:#000;stroke-width:1;stroke-linecap:butt;stroke-opacity:1" id="g143"><path id="path145" d="m 0.5,5 0,0 c 0,2.4852814 2.0147186,4.5 4.5,4.5 l 0,0 C 7.4852814,9.5 9.5,7.4852814 9.5,5 l 0,0 C 9.5,2.5147186 7.4852814,0.5 5,0.5 l 0,0 C 2.5147186,0.5 0.5,2.5147186 0.5,5 z" style="stroke-width:1"/></g></g><g style="stroke:url(#linearGradient3664);stroke-width:1" id="g147"><g style="stroke:url(#linearGradient3612);stroke-width:1" id="g149" transform="translate(58.619179,92.904724)"><g style="fill:url(#linearGradient3610);fill-opacity:1;fill-rule:nonzero;stroke:none" id="g151"><path style="fill:url(#linearGradient3338)" id="path153" d="m 0.5,5 0,0 c 0,2.4852814 2.0147186,4.5 4.5,4.5 l 0,0 C 7.4852814,9.5 9.5,7.4852814 9.5,5 l 0,0 C 9.5,2.5147186 7.4852814,0.5 5,0.5 l 0,0 C 2.5147186,0.5 0.5,2.5147186 0.5,5 z"/></g></g><g style="stroke:url(#linearGradient3614);stroke-width:1" id="g155" transform="translate(58.619179,92.904724)"><g style="fill:none;stroke:#000;stroke-width:1;stroke-linecap:butt;stroke-opacity:1" id="g157"><path id="path159" d="m 0.5,5 0,0 c 0,2.4852814 2.0147186,4.5 4.5,4.5 l 0,0 C 7.4852814,9.5 9.5,7.4852814 9.5,5 l 0,0 C 9.5,2.5147186 7.4852814,0.5 5,0.5 l 0,0 C 2.5147186,0.5 0.5,2.5147186 0.5,5 z" style="stroke-width:1"/></g></g><g style="stroke:url(#linearGradient3662);stroke-width:1" id="g161"><g style="stroke:url(#linearGradient3618);stroke-width:1" id="g163" transform="translate(0,106.88869)"><g style="fill:url(#linearGradient3616);fill-opacity:1;fill-rule:nonzero;stroke:none" id="g165"><path style="fill:url(#linearGradient3346)" id="path167" d="m 0.5,5 0,0 c 0,2.4852814 2.0147186,4.5 4.5,4.5 l 0,0 C 7.4852814,9.5 9.5,7.4852814 9.5,5 l 0,0 C 9.5,2.5147186 7.4852814,0.5 5,0.5 l 0,0 C 2.5147186,0.5 0.5,2.5147186 0.5,5 z"/></g></g><g style="stroke:url(#linearGradient3620);stroke-width:1" id="g169" transform="translate(0,106.88869)"><g style="fill:none;stroke:#000;stroke-width:1;stroke-linecap:butt;stroke-opacity:1" id="g171"><path id="path173" d="m 0.5,5 0,0 c 0,2.4852814 2.0147186,4.5 4.5,4.5 l 0,0 C 7.4852814,9.5 9.5,7.4852814 9.5,5 l 0,0 C 9.5,2.5147186 7.4852814,0.5 5,0.5 l 0,0 C 2.5147186,0.5 0.5,2.5147186 0.5,5 z" style="stroke-width:1"/></g></g><g style="stroke:url(#linearGradient3660);stroke-width:1" id="g175"><g style="stroke:url(#linearGradient3624);stroke-width:1" id="g177" transform="translate(51.650475,139.17191)"><g style="fill:url(#linearGradient3622);fill-opacity:1;fill-rule:nonzero;stroke:none" id="g179"><path style="fill:url(#linearGradient3354)" id="path181" d="m 0.5,5 0,0 c 0,2.4852814 2.0147186,4.5 4.5,4.5 l 0,0 C 7.4852814,9.5 9.5,7.4852814 9.5,5 l 0,0 C 9.5,2.5147186 7.4852814,0.5 5,0.5 l 0,0 C 2.5147186,0.5 0.5,2.5147186 0.5,5 z"/></g></g><g style="stroke:url(#linearGradient3626);stroke-width:1" id="g183" transform="translate(51.650475,139.17191)"><g style="fill:none;stroke:#000;stroke-width:1;stroke-linecap:butt;stroke-opacity:1" id="g185"><path id="path187" d="m 0.5,5 0,0 c 0,2.4852814 2.0147186,4.5 4.5,4.5 l 0,0 C 7.4852814,9.5 9.5,7.4852814 9.5,5 l 0,0 C 9.5,2.5147186 7.4852814,0.5 5,0.5 l 0,0 C 2.5147186,0.5 0.5,2.5147186 0.5,5 z" style="stroke-width:1"/></g></g><g style="stroke:url(#linearGradient3628);stroke-width:1" id="g189" transform="translate(-50,-50)"><g style="fill:none;stroke:#000;stroke-width:1;stroke-linecap:butt;stroke-opacity:1" id="g191"><path id="path193" d="M 184.12677,59.298546 161.7574,96.948868" style="stroke-width:1"/></g></g><g style="stroke:url(#linearGradient3630);stroke-width:1" id="g195" transform="translate(-50,-50)"><g style="fill:none;stroke:#000;stroke-width:1;stroke-linecap:butt;stroke-opacity:1" id="g197"><path id="path199" d="m 161.91229,105.45008 28.53835,44.27659" style="stroke-width:1"/></g></g><g style="stroke:url(#linearGradient3632);stroke-width:1" id="g201" transform="translate(-50,-50)"><g style="fill:none;stroke:#000;stroke-width:1;stroke-linecap:butt;stroke-opacity:1" id="g203"><path id="path205" d="m 184.37669,208.88148 7.99364,-50.01481" style="stroke-width:1"/></g></g><g style="stroke:url(#linearGradient3634);stroke-width:1" id="g207" transform="translate(-50,-50)"><g style="fill:none;stroke:#000;stroke-width:1;stroke-linecap:butt;stroke-opacity:1" id="g209"><path id="path211" d="m 179.67894,216.93692 -41.0515,32.74883" style="stroke-width:1"/></g></g><g style="stroke:url(#linearGradient3636);stroke-width:1" id="g213" transform="translate(-50,-50)"><g style="fill:none;stroke:#000;stroke-width:1;stroke-linecap:butt;stroke-opacity:1" id="g215"><path id="path217" d="m 188.95569,156.63644 -29.56496,19.03902" style="stroke-width:1"/></g></g><g style="stroke:url(#linearGradient3638);stroke-width:1" id="g219" transform="translate(-50,-50)"><g style="fill:none;stroke:#000;stroke-width:1;stroke-linecap:butt;stroke-opacity:1" id="g221"><path id="path223" d="M 180.46063,209.91725 158.3139,182.28413" style="stroke-width:1"/></g></g><g style="stroke:url(#linearGradient3640);stroke-width:1" id="g225" transform="translate(-50,-50)"><g style="fill:none;stroke:#000;stroke-width:1;stroke-linecap:butt;stroke-opacity:1" id="g227"><path id="path229" d="m 154.24971,101.92574 -53.60635,7.34041" style="stroke-width:1"/></g></g><g style="stroke:url(#linearGradient3642);stroke-width:1" id="g231" transform="translate(-50,-50)"><g style="fill:none;stroke:#000;stroke-width:1;stroke-linecap:butt;stroke-opacity:1" id="g233"><path id="path235" d="m 135.11743,257.78793 3.48117,43.52564" style="stroke-width:1"/></g></g><g style="stroke:url(#linearGradient3644);stroke-width:1" id="g237" transform="translate(-50,-50)"><g style="fill:none;stroke:#000;stroke-width:1;stroke-linecap:butt;stroke-opacity:1" id="g239"><path id="path241" d="M 130.24548,250.57016 81.538239,226.24905" style="stroke-width:1"/></g></g><g style="stroke:url(#linearGradient3646);stroke-width:1" id="g243" transform="translate(-50,-50)"><g style="fill:none;stroke:#000;stroke-width:1;stroke-linecap:butt;stroke-opacity:1" id="g245"><path id="path247" d="M 151.15471,175.42607 117.65144,150.86122" style="stroke-width:1"/></g></g><g style="stroke:url(#linearGradient3648);stroke-width:1" id="g249" transform="translate(-50,-50)"><g style="fill:none;stroke:#000;stroke-width:1;stroke-linecap:butt;stroke-opacity:1" id="g251"><path id="path253" d="m 97.824997,114.46555 13.658763,28.91812" style="stroke-width:1"/></g></g><g style="stroke:url(#linearGradient3650);stroke-width:1" id="g255" transform="translate(-50,-50)"><g style="fill:none;stroke:#000;stroke-width:1;stroke-linecap:butt;stroke-opacity:1" id="g257"><path id="path259" d="M 92.606277,113.88062 58.083309,157.95255" style="stroke-width:1"/></g></g><g style="stroke:url(#linearGradient3652);stroke-width:1" id="g261" transform="translate(-50,-50)"><g style="fill:none;stroke:#000;stroke-width:1;stroke-linecap:butt;stroke-opacity:1" id="g263"><path id="path265" d="M 75.391518,219.30371 56.673393,166.60036" style="stroke-width:1"/></g></g><g style="stroke:url(#linearGradient3654);stroke-width:1" id="g267" transform="translate(-50,-50)"><g style="fill:none;stroke:#000;stroke-width:1;stroke-linecap:butt;stroke-opacity:1" id="g269"><path id="path271" d="m 150.43224,179.92932 -39.02703,12.69583" style="stroke-width:1"/></g></g><g style="stroke:url(#linearGradient3656);stroke-width:1" id="g273" transform="translate(-50,-50)"><g style="fill:none;stroke:#000;stroke-width:1;stroke-linecap:butt;stroke-opacity:1" id="g275"><path id="path277" d="m 112.87448,152.84897 -5.47931,36.37871" style="stroke-width:1"/></g></g><g style="stroke:url(#linearGradient3658);stroke-width:1" id="g279" transform="translate(-50,-50)"><g style="fill:none;stroke:#000;stroke-width:1;stroke-linecap:butt;stroke-opacity:1" id="g281"><path id="path283" d="M 80.585068,220.46454 103.13032,197.72275" style="stroke-width:1"/></g></g></g></g></g></g></g></g></g></g></g></g></g></g></svg>